<svg width="28" height="27" viewBox="0 0 28 27" fill="none" xmlns="http://www.w3.org/2000/svg">
<path d="M1.16667 1.60895e-07C0.522334 1.60895e-07 0 0.522335 0 1.16667C0 1.811 0.522334 2.33333 1.16667 2.33333H3.24251C3.41238 2.33333 3.57793 2.38678 3.71573 2.48611C3.85352 2.58543 3.95658 2.72559 4.01028 2.88674L7.85677 14.4284C8.02759 14.9408 8.0493 15.4926 7.91829 16.0166L7.60156 17.2858C7.13683 19.1447 8.58385 21 10.5 21H24.5C25.1443 21 25.6667 20.4777 25.6667 19.8333C25.6667 19.189 25.1443 18.6667 24.5 18.6667H10.5C10.0457 18.6667 9.75408 18.2939 9.86426 17.8532L10.1031 16.8992C10.1436 16.7376 10.2369 16.5941 10.3683 16.4915C10.4996 16.389 10.6615 16.3333 10.8281 16.3333H23.3333C23.8357 16.3336 24.2818 16.0123 24.4408 15.5358L27.5511 6.20247C27.8031 5.44672 27.2403 4.6663 26.4437 4.66667H7.64714C7.47727 4.66667 7.31171 4.61322 7.17391 4.5139C7.03611 4.41458 6.93305 4.27442 6.87934 4.11327L5.77409 0.797526C5.61511 0.321014 5.169 -0.000262467 4.66667 1.60895e-07H1.16667ZM9.33333 22.1667C8.04467 22.1667 7 23.2113 7 24.5C7 25.7887 8.04467 26.8333 9.33333 26.8333C10.622 26.8333 11.6667 25.7887 11.6667 24.5C11.6667 23.2113 10.622 22.1667 9.33333 22.1667ZM23.3333 22.1667C22.0447 22.1667 21 23.2113 21 24.5C21 25.7887 22.0447 26.8333 23.3333 26.8333C24.622 26.8333 25.6667 25.7887 25.6667 24.5C25.6667 23.2113 24.622 22.1667 23.3333 22.1667Z" fill="#52DBC0"/>
</svg>
