<svg width="45" height="45" viewBox="0 0 45 45" fill="none" xmlns="http://www.w3.org/2000/svg">
<path d="M43.6719 25.4066C43.5185 25.2626 43.3812 25.1352 43.2578 25.0207C42.7723 24.5703 42.5286 24.3443 42.4072 24.1338C42.2857 23.9234 42.2118 23.5993 42.0644 22.9536C42.027 22.7897 41.9854 22.607 41.9373 22.4021C41.6675 21.25 40.6924 20.4319 39.5111 20.3662C39.301 20.3545 39.1139 20.3453 38.9459 20.3368C38.2844 20.3039 37.9524 20.2873 37.7241 20.2042C37.4958 20.1211 37.2308 19.9203 36.703 19.5204C36.5689 19.4188 36.4195 19.3057 36.2511 19.1796C35.3039 18.4706 34.0312 18.4705 33.0839 19.1796C32.9155 19.3057 32.7661 19.4188 32.6321 19.5204C32.1042 19.9204 31.8392 20.1211 31.6109 20.2042C31.3825 20.2873 31.0506 20.3039 30.3891 20.3368C30.2211 20.3452 30.034 20.3545 29.8239 20.3662C28.6425 20.4319 27.6675 21.25 27.3976 22.402C27.3496 22.6069 27.3079 22.7896 27.2705 22.9536C27.1231 23.5993 27.0492 23.9234 26.9277 24.1338C26.8809 24.2149 26.8156 24.2986 26.7256 24.3963C24.7509 21.2306 21.6632 18.9833 18.1281 18.0499C20.4987 16.7393 22.1081 14.2137 22.1081 11.3185C22.1081 10.9931 22.0853 10.6671 22.0443 10.344C22.1259 10.2269 22.1732 10.0848 22.1732 9.93337V4.86762L23.642 4.47743V8.34583L22.819 8.82093C22.5966 8.94931 22.4596 9.18659 22.4596 9.44336V13.0495C22.4596 13.3219 22.6136 13.5709 22.8574 13.6926C22.959 13.7433 23.0688 13.7683 23.1783 13.7683C23.3313 13.7683 23.4834 13.7195 23.6103 13.624L24.3607 13.0597L25.1111 13.624C25.3288 13.7877 25.6204 13.8144 25.8641 13.6926C26.1078 13.571 26.2618 13.3219 26.2618 13.0495V9.44345C26.2618 9.18668 26.1248 8.9494 25.9024 8.82102L25.0795 8.34592V4.06496C25.2901 3.9372 25.4257 3.70684 25.4257 3.45088C25.4257 3.12501 25.2065 2.83985 24.8915 2.7562L14.6057 0.0240557C14.4847 -0.00801855 14.3575 -0.00801855 14.2367 0.0240557L3.951 2.7562C3.636 2.83985 3.41679 3.12492 3.41679 3.45088C3.41679 3.77683 3.636 4.0619 3.951 4.14555L6.66922 4.86762V9.93346C6.66922 10.0849 6.71648 10.227 6.79815 10.3441C6.75709 10.6673 6.73427 10.9933 6.73427 11.3186C6.73427 14.2131 8.34292 16.738 10.7125 18.049C8.49368 18.6348 6.43095 19.7439 4.69886 21.3102C2.04981 23.7059 0.382492 26.9727 0.00407052 30.509C-0.0175818 30.7119 0.0478244 30.9143 0.184117 31.066C0.3205 31.2176 0.514742 31.3042 0.718688 31.3042L8.81756 31.3041V43.2548C8.81756 43.9758 9.40415 44.5625 10.1252 44.5625H40.153C40.874 44.5625 41.4606 43.9759 41.4606 43.2548V40.5633L42.3889 40.7255C42.7172 40.783 43.0463 40.6544 43.2486 40.3904C43.451 40.1264 43.4894 39.7749 43.3489 39.4731L41.2707 35.0092C41.3463 34.9771 41.427 34.9431 41.5147 34.9062C41.6697 34.8408 41.8423 34.7681 42.0358 34.6851C43.1234 34.2194 43.7599 33.1171 43.6193 31.9424C43.5944 31.7335 43.5711 31.5476 43.5501 31.3807C43.4677 30.7236 43.4264 30.3937 43.4685 30.1544C43.5107 29.9151 43.6624 29.6192 43.9646 29.0298C44.0413 28.8802 44.1269 28.7135 44.2217 28.5258C44.7556 27.4698 44.5346 26.2164 43.6719 25.4066ZM29.2588 35.8487C29.3641 36.0001 29.4885 36.1926 29.6484 36.4402C29.7397 36.5816 29.8413 36.7391 29.9564 36.9151C30.4239 37.63 31.1772 38.0555 31.9861 38.1082L30.8376 40.575L30.0403 39.2028C29.8891 38.9426 29.5918 38.8043 29.2951 38.8559L27.7316 39.1291L29.2588 35.8487ZM14.4211 20.3427L12.8204 19.1028C13.3447 19.0391 13.878 19.0055 14.4188 19.0054C14.4196 19.0054 14.4204 19.0055 14.4212 19.0055H14.4233C14.9613 19.0056 15.4939 19.0404 16.0193 19.1049L14.4211 20.3427ZM13.3886 21.3612L11.9156 23.1076L10.0352 19.7565C10.3344 19.6505 10.6383 19.5545 10.9469 19.47L13.3886 21.3612ZM17.8906 19.4736C18.1992 19.5585 18.5039 19.6546 18.8041 19.7615L16.9265 23.1076L15.4535 21.3612L17.8906 19.4736ZM24.8241 11.6099L24.7925 11.586C24.5367 11.3937 24.1844 11.3937 23.9286 11.586L23.8969 11.6099V9.85835L24.3605 9.59071L24.8241 9.85835V11.6099ZM14.4211 1.46236L21.9071 3.45088L14.4211 5.43939L6.93516 3.45088L14.4211 1.46236ZM14.2367 6.87779C14.2971 6.89387 14.3591 6.90186 14.4212 6.90186C14.4833 6.90186 14.5453 6.89387 14.6057 6.87779L20.7357 5.24946V9.33501C19.794 9.50985 18.9972 9.66384 18.3352 9.79178C14.4213 10.5484 14.4213 10.5484 10.5073 9.79178C9.84529 9.66384 9.04855 9.50976 8.10681 9.33501V5.24946L14.2367 6.87779ZM8.17177 11.3186C8.17177 11.1502 8.18021 10.9817 8.19378 10.8136C8.97964 10.9607 9.65886 11.0919 10.2344 11.2032C12.3083 11.6041 13.3646 11.8045 14.4211 11.8045C15.4776 11.8045 16.5341 11.6041 18.6078 11.2032C19.1834 11.0919 19.8626 10.9607 20.6485 10.8136C20.662 10.9817 20.6705 11.1501 20.6705 11.3186C20.6705 14.7638 17.8682 17.5669 14.4232 17.5679C14.4225 17.5679 14.4218 17.5679 14.4211 17.5679C14.4203 17.5679 14.4196 17.5679 14.4188 17.5679C10.9739 17.5666 8.17177 14.7637 8.17177 11.3186ZM8.81765 26.9704V29.8666L1.54291 29.8667C2.26068 25.6108 4.99741 22.1127 8.70032 20.3151L11.1696 24.7155C11.2849 24.9211 11.4937 25.057 11.7285 25.0793C11.7512 25.0815 11.7739 25.0826 11.7965 25.0826C12.0071 25.0826 12.2085 24.9899 12.3458 24.8271L14.4211 22.3665L16.4964 24.8271C16.6337 24.9899 16.8351 25.0826 17.0457 25.0826C17.0683 25.0826 17.091 25.0815 17.1137 25.0793C17.3484 25.057 17.5573 24.9211 17.6727 24.7155L20.1378 20.3225C22.4015 21.4243 24.3334 23.1745 25.6592 25.4101C25.5745 25.4899 25.4977 25.5749 25.4255 25.6627H10.1252C9.40424 25.6629 8.81765 26.2494 8.81765 26.9704ZM10.2552 43.125V27.1004H24.8351C24.7935 27.578 24.8825 28.0701 25.1128 28.5256C25.2077 28.7134 25.2931 28.8801 25.3699 29.0298C25.5138 29.3103 25.6232 29.5238 25.7032 29.6969H13.7296C13.3327 29.6969 13.0108 30.0188 13.0108 30.4157C13.0108 30.8126 13.3327 31.1344 13.7296 31.1344H25.8151C25.8057 31.2112 25.7954 31.2927 25.7844 31.3806C25.7634 31.5474 25.7402 31.7334 25.7152 31.9423C25.5987 32.9174 26.0185 33.8412 26.7861 34.3939H13.7296C13.3327 34.3939 13.0108 34.7157 13.0108 35.1126C13.0108 35.5096 13.3327 35.8314 13.7296 35.8314H27.6812L26.1638 39.0907H13.7296C13.3327 39.0907 13.0108 39.4125 13.0108 39.8095C13.0108 40.2064 13.3327 40.5282 13.7296 40.5282H26.2204C26.4191 40.6959 26.6823 40.7713 26.9458 40.7254L29.049 40.3579L30.1218 42.2041C30.282 42.4799 30.5739 42.6469 30.8906 42.6469C30.9043 42.6469 30.918 42.6466 30.9317 42.6459C31.2641 42.6308 31.5578 42.4341 31.6982 42.1324L33.7378 37.7514C34.1997 37.6104 34.4608 37.5393 34.6673 37.5393C34.8738 37.5393 35.135 37.6105 35.5968 37.7515L37.6364 42.1323C37.7768 42.434 38.0705 42.6308 38.4029 42.6459C38.4167 42.6466 38.4303 42.6469 38.444 42.6469C38.7607 42.6469 39.0525 42.4799 39.213 42.204L40.0232 40.8097V43.125H10.2552ZM40.0395 38.8557C39.743 38.8042 39.4457 38.9423 39.2944 39.2026L38.497 40.5749L37.3476 38.106C38.1567 38.0534 38.9105 37.63 39.3782 36.915C39.4934 36.7389 39.595 36.5815 39.6863 36.4402C39.8462 36.1925 39.9705 36 40.0758 35.8485L41.603 39.1288L40.0395 38.8557ZM42.939 27.8771C42.8454 28.0622 42.7612 28.2264 42.6856 28.3738C41.9493 29.8096 41.9231 29.9585 42.1239 31.5595C42.1446 31.7239 42.1675 31.907 42.1921 32.1128C42.2571 32.657 41.9737 33.1479 41.4698 33.3637C41.2792 33.4453 41.1091 33.517 40.9564 33.5814C39.4696 34.208 39.3538 34.3051 38.4786 35.6606C38.3887 35.7998 38.2886 35.9548 38.1751 36.1283C37.8751 36.587 37.3422 36.7811 36.8178 36.6224C36.6194 36.5624 36.443 36.508 36.2846 36.4591C34.7431 35.9836 34.5918 35.9836 33.0501 36.4591C32.8917 36.508 32.7154 36.5624 32.5169 36.6224C31.9923 36.781 31.4595 36.587 31.1596 36.1283C31.0462 35.9547 30.946 35.7997 30.8561 35.6605C29.9808 34.3051 29.8651 34.208 28.3783 33.5813C28.2255 33.517 28.0554 33.4453 27.8649 33.3637C27.3611 33.148 27.0777 32.657 27.1426 32.1128C27.1672 31.907 27.1902 31.7239 27.2108 31.5595C27.4116 29.9585 27.3853 29.8096 26.6491 28.3738C26.5735 28.2263 26.4893 28.0621 26.3958 27.8771C26.1485 27.3881 26.247 26.8297 26.6465 26.4547C26.7977 26.3129 26.933 26.1873 27.0546 26.0746C28.2374 24.9773 28.3129 24.8464 28.6719 23.2735C28.7087 23.1117 28.7498 22.9318 28.7971 22.7299C28.9221 22.1964 29.3564 21.8319 29.9036 21.8016C30.1106 21.7901 30.295 21.7809 30.4605 21.7726C32.0719 21.6923 32.214 21.6406 33.5001 20.6663C33.6321 20.5662 33.7793 20.4548 33.9452 20.3305C34.1646 20.1663 34.416 20.0843 34.6674 20.0843C34.9188 20.0843 35.1703 20.1664 35.3897 20.3305C35.5557 20.4548 35.7028 20.5663 35.8349 20.6664C37.1209 21.6406 37.263 21.6923 38.8744 21.7726C39.0399 21.7809 39.2244 21.7901 39.4314 21.8016C39.9785 21.8319 40.4128 22.1964 40.5378 22.73C40.5851 22.9318 40.6261 23.1118 40.663 23.2735C41.022 24.8464 41.0975 24.9773 42.2802 26.0746C42.4018 26.1874 42.5371 26.3129 42.6883 26.4547C43.0877 26.8298 43.1861 27.3881 42.939 27.8771ZM34.6673 22.4342C31.3885 22.4342 28.7209 25.1017 28.7209 28.3806C28.7209 31.6596 31.3885 34.327 34.6673 34.327C37.9462 34.327 40.6137 31.6596 40.6137 28.3806C40.6137 25.1017 37.9462 22.4342 34.6673 22.4342ZM34.6673 32.8894C32.1812 32.8894 30.1584 30.8668 30.1584 28.3805C30.1584 25.8943 32.1811 23.8716 34.6673 23.8716C37.1536 23.8716 39.1762 25.8943 39.1762 28.3805C39.1762 30.8668 37.1536 32.8894 34.6673 32.8894Z" fill="#52DBC0"/>
</svg>
