<svg width="77" height="35" viewBox="0 0 77 35" fill="none" xmlns="http://www.w3.org/2000/svg">
<path d="M33.219 12.905C32.87 12.905 32.522 12.772 32.256 12.506L22.075 2.326C21.543 1.794 21.543 0.931 22.075 0.399C22.607 -0.133 23.47 -0.133 24.002 0.399L34.183 10.579C34.715 11.111 34.715 11.974 34.183 12.506C33.916 12.772 33.568 12.905 33.219 12.905Z" fill="white"/>
<path d="M23.038 12.905C22.689 12.905 22.341 12.772 22.074 12.506C21.542 11.974 21.542 11.111 22.074 10.579L32.255 0.399C32.787 -0.133 33.65 -0.133 34.182 0.399C34.714 0.931 34.714 1.794 34.182 2.326L24.001 12.506C23.736 12.772 23.387 12.905 23.038 12.905Z" fill="white"/>
<path d="M74.686 12.905C74.337 12.905 73.989 12.772 73.723 12.506L63.542 2.326C63.01 1.794 63.01 0.931 63.542 0.399C64.074 -0.133 64.937 -0.133 65.469 0.399L75.65 10.579C76.182 11.111 76.182 11.974 75.65 12.506C75.383 12.772 75.034 12.905 74.686 12.905Z" fill="white"/>
<path d="M64.505 12.905C64.156 12.905 63.808 12.772 63.542 12.506C63.01 11.974 63.01 11.111 63.542 10.579L73.723 0.399C74.255 -0.133 75.117 -0.133 75.65 0.399C76.182 0.931 76.182 1.794 75.65 2.326L65.469 12.506C65.202 12.772 64.853 12.905 64.505 12.905Z" fill="white"/>
<path d="M11.543 34.5801C11.194 34.5801 10.846 34.447 10.579 34.181L0.399 24.0011C-0.133 23.4691 -0.133 22.606 0.399 22.074C0.931 21.542 1.794 21.542 2.326 22.074L12.506 32.254C13.038 32.786 13.038 33.649 12.506 34.181C12.24 34.447 11.892 34.5801 11.543 34.5801Z" fill="white"/>
<path d="M1.36299 34.5801C1.01399 34.5801 0.665977 34.447 0.399977 34.181C-0.132023 33.649 -0.132023 32.786 0.399977 32.254L10.58 22.074C11.112 21.542 11.975 21.542 12.507 22.074C13.039 22.606 13.039 23.4691 12.507 24.0011L2.32698 34.181C2.05998 34.447 1.71199 34.5801 1.36299 34.5801Z" fill="white"/>
<path d="M53.009 34.5801C52.66 34.5801 52.312 34.447 52.045 34.181L41.865 24.0011C41.333 23.4691 41.333 22.606 41.865 22.074C42.397 21.542 43.259 21.542 43.792 22.074L53.972 32.254C54.504 32.786 54.504 33.649 53.972 34.181C53.707 34.447 53.358 34.5801 53.009 34.5801Z" fill="white"/>
<path d="M42.829 34.5801C42.48 34.5801 42.132 34.447 41.866 34.181C41.334 33.649 41.334 32.786 41.866 32.254L52.046 22.074C52.578 21.542 53.441 21.542 53.973 22.074C54.505 22.606 54.505 23.4691 53.973 24.0011L43.793 34.181C43.527 34.447 43.178 34.5801 42.829 34.5801Z" fill="white"/>
</svg>
