<svg width="34" height="67" viewBox="0 0 34 67" fill="none" xmlns="http://www.w3.org/2000/svg">
<path d="M0 0C18.341 0 33.263 14.922 33.263 33.263C33.263 51.604 18.341 66.526 0 66.526V64.6C17.28 64.6 31.337 50.542 31.337 33.263C31.337 15.983 17.279 1.92596 0 1.92596V0Z" fill="#3A4351" fill-opacity="0.1"/>
<path d="M0 7.5C14.206 7.5 25.762 19.057 25.762 33.263C25.762 47.469 14.205 59.026 0 59.026V57.1C13.144 57.1 23.837 46.406 23.837 33.263C23.837 20.119 13.144 9.42596 0 9.42596V7.5Z" fill="#3A4351" fill-opacity="0.1"/>
<path d="M0 16.042C9.496 16.042 17.221 23.767 17.221 33.263C17.221 42.759 9.496 50.484 0 50.484V48.558C8.434 48.558 15.295 41.696 15.295 33.262C15.295 24.828 8.434 17.967 0 17.967V16.042Z" fill="#3A4351" fill-opacity="0.1"/>
<path d="M0 24.704C4.719 24.704 8.559 28.544 8.559 33.263C8.559 37.982 4.719 41.822 0 41.822V39.896C3.658 39.896 6.634 36.92 6.634 33.262C6.634 29.605 3.658 26.628 0 26.628V24.704Z" fill="#3A4351" fill-opacity="0.1"/>
</svg>
