<svg width="51" height="22" viewBox="0 0 51 22" fill="none" xmlns="http://www.w3.org/2000/svg">
<path d="M22.2772 7.9069C22.0431 7.9069 21.8097 7.82541 21.6314 7.66244L14.8036 1.42516C14.4468 1.0992 14.4468 0.570438 14.8036 0.244482C15.1604 -0.0814738 15.7391 -0.0814738 16.0959 0.244482L22.9237 6.48176C23.2805 6.80772 23.2805 7.33648 22.9237 7.66244C22.7446 7.82541 22.5106 7.9069 22.2772 7.9069Z" fill="#52DBC0"/>
<path d="M15.4495 7.9069C15.2155 7.9069 14.9821 7.82541 14.803 7.66243C14.4463 7.33647 14.4463 6.80771 14.803 6.48176L21.6308 0.244475C21.9876 -0.0814814 22.5664 -0.0814814 22.9231 0.244475C23.2799 0.570431 23.2799 1.09919 22.9231 1.42515L16.0954 7.66243C15.917 7.82541 15.6836 7.9069 15.4495 7.9069Z" fill="#52DBC0"/>
<path d="M50.0859 7.9069C49.8519 7.9069 49.6185 7.82541 49.4401 7.66244L42.6123 1.42516C42.2556 1.0992 42.2556 0.570438 42.6123 0.244482C42.9691 -0.0814738 43.5479 -0.0814738 43.9047 0.244482L50.7324 6.48176C51.0892 6.80772 51.0892 7.33648 50.7324 7.66244C50.5534 7.82541 50.32 7.9069 50.0859 7.9069Z" fill="#52DBC0"/>
<path d="M43.2582 7.9069C43.0242 7.9069 42.7908 7.82541 42.6117 7.66243C42.255 7.33647 42.255 6.80771 42.6117 6.48176L49.4395 0.244475C49.7963 -0.0814814 50.375 -0.0814814 50.7318 0.244475C51.0886 0.570431 51.0886 1.09919 50.7318 1.42515L43.904 7.66243C43.7263 7.82541 43.4923 7.9069 43.2582 7.9069Z" fill="#52DBC0"/>
<path d="M7.7405 21.1871C7.50645 21.1871 7.27307 21.1057 7.09468 20.9427L0.267585 14.7054C-0.0891949 14.3794 -0.0891949 13.8507 0.267585 13.5247C0.624364 13.1988 1.20313 13.1988 1.55991 13.5247L8.38633 19.762C8.74311 20.088 8.74311 20.6167 8.38633 20.9427C8.20794 21.1057 7.97388 21.1871 7.7405 21.1871Z" fill="#52DBC0"/>
<path d="M0.913412 21.1871C0.67936 21.1871 0.445974 21.1057 0.267585 20.9427C-0.0891948 20.6167 -0.0891948 20.088 0.267585 19.762L7.09468 13.5247C7.45146 13.1988 8.03022 13.1988 8.387 13.5247C8.74378 13.8507 8.74378 14.3794 8.387 14.7054L1.55991 20.9427C1.38084 21.1057 1.14679 21.1871 0.913412 21.1871Z" fill="#52DBC0"/>
<path d="M35.5492 21.1871C35.3151 21.1871 35.0818 21.1057 34.9034 20.9427L28.0763 14.7054C27.7195 14.3794 27.7195 13.8507 28.0763 13.5247C28.433 13.1988 29.0118 13.1988 29.3686 13.5247L36.1957 19.762C36.5525 20.088 36.5525 20.6167 36.1957 20.9427C36.0166 21.1057 35.7832 21.1871 35.5492 21.1871Z" fill="#52DBC0"/>
<path d="M28.7221 21.1871C28.4881 21.1871 28.2547 21.1057 28.0763 20.9427C27.7195 20.6167 27.7195 20.088 28.0763 19.762L34.9034 13.5247C35.2601 13.1988 35.8389 13.1988 36.1957 13.5247C36.5525 13.8507 36.5525 14.3794 36.1957 14.7054L29.3686 20.9427C29.1895 21.1057 28.9562 21.1871 28.7221 21.1871Z" fill="#52DBC0"/>
</svg>
