<svg width="233" height="79" viewBox="0 0 233 79" fill="none" xmlns="http://www.w3.org/2000/svg">
<path d="M0.333298 46.0413L1.1717 48.1689L15.567 36.8921L27.0464 52.1289L42.0628 40.3642L53.5409 55.6009L68.5521 43.8355L80.0276 59.0718L95.0414 47.3068L106.516 62.5429L121.527 50.7776L133.002 66.0139L148.636 53.7626L147.799 51.6352L133.409 62.9109L121.933 47.6764L106.922 59.44L95.4478 44.2057L80.4342 55.9689L68.9585 40.7344L53.9475 52.4979L42.4692 37.2631L27.453 49.026L15.9733 33.7909L0.333298 46.0413Z" fill="#3A4351" fill-opacity="0.2"/>
<path d="M28.3301 38.8655L29.1685 40.9931L43.5635 29.7181L55.0431 44.9531L70.0594 33.1902L81.5377 48.4251L96.5487 36.6615L108.026 51.8962L123.038 40.1328L134.512 55.3672L149.523 43.6036L160.999 58.8381L176.634 46.587L175.795 44.4612L161.406 55.7352L149.93 40.5024L134.919 52.2642L123.444 37.0317L108.432 48.7933L96.955 33.5604L81.9443 45.3222L70.4658 30.0891L55.4498 41.8502L43.9699 26.6169L28.3301 38.8655Z" fill="#3A4351" fill-opacity="0.2"/>
<path d="M56.328 31.6917L57.1651 33.8192L71.5616 22.5425L83.0413 37.7775L98.0575 26.0146L109.534 41.2493L124.545 29.4857L136.022 44.7205L151.035 32.957L162.509 48.1914L177.521 36.428L188.996 51.6624L204.631 39.4113L203.792 37.2837L189.402 48.5612L177.928 33.3268L162.916 45.0903L151.441 29.8559L136.429 41.6193L124.952 26.3846L109.941 38.1482L98.4639 22.9135L83.4477 34.6764L71.968 19.4413L56.328 31.6917Z" fill="#3A4351" fill-opacity="0.2"/>
<path d="M84.3247 24.516L85.1632 26.6436L99.5584 15.3667L111.039 30.6019L126.054 18.8389L137.531 34.0736L152.542 22.31L164.019 37.5447L179.033 25.7814L190.507 41.0158L205.518 29.2522L216.994 44.4867L232.627 32.2355L231.79 30.1098L217.4 41.3856L205.925 26.1511L190.914 37.9147L179.439 22.6803L164.426 34.4436L152.949 19.2088L137.938 30.9724L126.461 15.7377L111.446 27.5008L99.9648 12.2656L84.3247 24.516Z" fill="#3A4351" fill-opacity="0.2"/>
</svg>
