<svg width="120" height="120" viewBox="0 0 120 120" fill="none" xmlns="http://www.w3.org/2000/svg">
<mask id="mask0_312_202" style="mask-type:luminance" maskUnits="userSpaceOnUse" x="0" y="0" width="120" height="120">
<path d="M60 120C93.1371 120 120 93.1371 120 60C120 26.8629 93.1371 0 60 0C26.8629 0 0 26.8629 0 60C0 93.1371 26.8629 120 60 120Z" fill="white"/>
</mask>
<g mask="url(#mask0_312_202)">
<path d="M2.26253 3.12988C1.27821 3.12988 0.480103 3.92799 0.480103 4.91231C0.480103 5.89664 1.27821 6.69474 2.26253 6.69474C3.24686 6.69474 4.04495 5.89664 4.04495 4.91231C4.04495 3.92799 3.24686 3.12988 2.26253 3.12988Z" fill="white"/>
</g>
<mask id="mask1_312_202" style="mask-type:luminance" maskUnits="userSpaceOnUse" x="0" y="0" width="120" height="120">
<path d="M60 120C93.1371 120 120 93.1371 120 60C120 26.8629 93.1371 0 60 0C26.8629 0 0 26.8629 0 60C0 93.1371 26.8629 120 60 120Z" fill="white"/>
</mask>
<g mask="url(#mask1_312_202)">
<path d="M16.5194 6.69474C17.5038 6.69474 18.3018 5.89672 18.3018 4.91231C18.3018 3.9279 17.5038 3.12988 16.5194 3.12988C15.535 3.12988 14.7369 3.9279 14.7369 4.91231C14.7369 5.89672 15.535 6.69474 16.5194 6.69474Z" fill="white"/>
</g>
<mask id="mask2_312_202" style="mask-type:luminance" maskUnits="userSpaceOnUse" x="0" y="0" width="120" height="120">
<path d="M60 120C93.1371 120 120 93.1371 120 60C120 26.8629 93.1371 0 60 0C26.8629 0 0 26.8629 0 60C0 93.1371 26.8629 120 60 120Z" fill="white"/>
</mask>
<g mask="url(#mask2_312_202)">
<path d="M30.7749 6.69474C31.7593 6.69474 32.5573 5.89672 32.5573 4.91231C32.5573 3.9279 31.7593 3.12988 30.7749 3.12988C29.7905 3.12988 28.9924 3.9279 28.9924 4.91231C28.9924 5.89672 29.7905 6.69474 30.7749 6.69474Z" fill="white"/>
</g>
<mask id="mask3_312_202" style="mask-type:luminance" maskUnits="userSpaceOnUse" x="0" y="0" width="120" height="120">
<path d="M60 120C93.1371 120 120 93.1371 120 60C120 26.8629 93.1371 0 60 0C26.8629 0 0 26.8629 0 60C0 93.1371 26.8629 120 60 120Z" fill="white"/>
</mask>
<g mask="url(#mask3_312_202)">
<path d="M45.0302 3.12988C44.0459 3.12988 43.2478 3.92799 43.2478 4.91231C43.2478 5.89664 44.0459 6.69474 45.0302 6.69474C46.0146 6.69474 46.8127 5.89664 46.8127 4.91231C46.8127 3.92799 46.0146 3.12988 45.0302 3.12988Z" fill="white"/>
</g>
<mask id="mask4_312_202" style="mask-type:luminance" maskUnits="userSpaceOnUse" x="0" y="0" width="120" height="120">
<path d="M60 120C93.1371 120 120 93.1371 120 60C120 26.8629 93.1371 0 60 0C26.8629 0 0 26.8629 0 60C0 93.1371 26.8629 120 60 120Z" fill="white"/>
</mask>
<g mask="url(#mask4_312_202)">
<path d="M59.2869 6.69474C60.2714 6.69474 61.0694 5.89672 61.0694 4.91231C61.0694 3.9279 60.2714 3.12988 59.2869 3.12988C58.3025 3.12988 57.5045 3.9279 57.5045 4.91231C57.5045 5.89672 58.3025 6.69474 59.2869 6.69474Z" fill="white"/>
</g>
<mask id="mask5_312_202" style="mask-type:luminance" maskUnits="userSpaceOnUse" x="0" y="0" width="120" height="120">
<path d="M60 120C93.1371 120 120 93.1371 120 60C120 26.8629 93.1371 0 60 0C26.8629 0 0 26.8629 0 60C0 93.1371 26.8629 120 60 120Z" fill="white"/>
</mask>
<g mask="url(#mask5_312_202)">
<path d="M73.5424 3.12988C72.5581 3.12988 71.76 3.92799 71.76 4.91231C71.76 5.89664 72.5581 6.69474 73.5424 6.69474C74.5268 6.69474 75.3249 5.89664 75.3249 4.91231C75.3249 3.92799 74.5268 3.12988 73.5424 3.12988Z" fill="white"/>
</g>
<mask id="mask6_312_202" style="mask-type:luminance" maskUnits="userSpaceOnUse" x="0" y="0" width="120" height="120">
<path d="M60 120C93.1371 120 120 93.1371 120 60C120 26.8629 93.1371 0 60 0C26.8629 0 0 26.8629 0 60C0 93.1371 26.8629 120 60 120Z" fill="white"/>
</mask>
<g mask="url(#mask6_312_202)">
<path d="M87.7993 6.69474C88.7837 6.69474 89.5817 5.89672 89.5817 4.91231C89.5817 3.9279 88.7837 3.12988 87.7993 3.12988C86.8149 3.12988 86.0168 3.9279 86.0168 4.91231C86.0168 5.89672 86.8149 6.69474 87.7993 6.69474Z" fill="white"/>
</g>
<mask id="mask7_312_202" style="mask-type:luminance" maskUnits="userSpaceOnUse" x="0" y="0" width="120" height="120">
<path d="M60 120C93.1371 120 120 93.1371 120 60C120 26.8629 93.1371 0 60 0C26.8629 0 0 26.8629 0 60C0 93.1371 26.8629 120 60 120Z" fill="white"/>
</mask>
<g mask="url(#mask7_312_202)">
<path d="M102.055 3.12988C101.07 3.12988 100.272 3.92799 100.272 4.91231C100.272 5.89664 101.07 6.69474 102.055 6.69474C103.039 6.69474 103.837 5.89664 103.837 4.91231C103.837 3.92799 103.039 3.12988 102.055 3.12988Z" fill="white"/>
</g>
<mask id="mask8_312_202" style="mask-type:luminance" maskUnits="userSpaceOnUse" x="0" y="0" width="120" height="120">
<path d="M60 120C93.1371 120 120 93.1371 120 60C120 26.8629 93.1371 0 60 0C26.8629 0 0 26.8629 0 60C0 93.1371 26.8629 120 60 120Z" fill="white"/>
</mask>
<g mask="url(#mask8_312_202)">
<path d="M116.311 3.12988C115.327 3.12988 114.529 3.92799 114.529 4.91231C114.529 5.89664 115.327 6.69474 116.311 6.69474C117.296 6.69474 118.094 5.89664 118.094 4.91231C118.092 3.92799 117.296 3.12988 116.311 3.12988Z" fill="white"/>
</g>
<mask id="mask9_312_202" style="mask-type:luminance" maskUnits="userSpaceOnUse" x="0" y="0" width="120" height="120">
<path d="M60 120C93.1371 120 120 93.1371 120 60C120 26.8629 93.1371 0 60 0C26.8629 0 0 26.8629 0 60C0 93.1371 26.8629 120 60 120Z" fill="white"/>
</mask>
<g mask="url(#mask9_312_202)">
<path d="M9.59456 13.6304C8.61024 13.6304 7.81213 14.4285 7.81213 15.4128C7.81213 16.3971 8.61024 17.1952 9.59456 17.1952C10.5789 17.1952 11.377 16.3971 11.377 15.4128C11.377 14.4285 10.5789 13.6304 9.59456 13.6304Z" fill="white"/>
</g>
<mask id="mask10_312_202" style="mask-type:luminance" maskUnits="userSpaceOnUse" x="0" y="0" width="120" height="120">
<path d="M60 120C93.1371 120 120 93.1371 120 60C120 26.8629 93.1371 0 60 0C26.8629 0 0 26.8629 0 60C0 93.1371 26.8629 120 60 120Z" fill="white"/>
</mask>
<g mask="url(#mask10_312_202)">
<path d="M23.8512 13.6304C22.8668 13.6304 22.0687 14.4285 22.0687 15.4128C22.0687 16.3971 22.8668 17.1952 23.8512 17.1952C24.8355 17.1952 25.6336 16.3971 25.6336 15.4128C25.6323 14.4285 24.8342 13.6304 23.8512 13.6304Z" fill="white"/>
</g>
<mask id="mask11_312_202" style="mask-type:luminance" maskUnits="userSpaceOnUse" x="0" y="0" width="120" height="120">
<path d="M60 120C93.1371 120 120 93.1371 120 60C120 26.8629 93.1371 0 60 0C26.8629 0 0 26.8629 0 60C0 93.1371 26.8629 120 60 120Z" fill="white"/>
</mask>
<g mask="url(#mask11_312_202)">
<path d="M38.1066 13.6304C37.1223 13.6304 36.3242 14.4285 36.3242 15.4128C36.3242 16.3971 37.1223 17.1952 38.1066 17.1952C39.091 17.1952 39.8891 16.3971 39.8891 15.4128C39.8891 14.4285 39.091 13.6304 38.1066 13.6304Z" fill="white"/>
</g>
<mask id="mask12_312_202" style="mask-type:luminance" maskUnits="userSpaceOnUse" x="0" y="0" width="120" height="120">
<path d="M60 120C93.1371 120 120 93.1371 120 60C120 26.8629 93.1371 0 60 0C26.8629 0 0 26.8629 0 60C0 93.1371 26.8629 120 60 120Z" fill="white"/>
</mask>
<g mask="url(#mask12_312_202)">
<path d="M52.3621 13.6304C51.3778 13.6304 50.5797 14.4285 50.5797 15.4128C50.5797 16.3971 51.3778 17.1952 52.3621 17.1952C53.3465 17.1952 54.1446 16.3971 54.1446 15.4128C54.1446 14.4285 53.3465 13.6304 52.3621 13.6304Z" fill="white"/>
</g>
<mask id="mask13_312_202" style="mask-type:luminance" maskUnits="userSpaceOnUse" x="0" y="0" width="120" height="120">
<path d="M60 120C93.1371 120 120 93.1371 120 60C120 26.8629 93.1371 0 60 0C26.8629 0 0 26.8629 0 60C0 93.1371 26.8629 120 60 120Z" fill="white"/>
</mask>
<g mask="url(#mask13_312_202)">
<path d="M66.619 13.6304C65.6347 13.6304 64.8365 14.4285 64.8365 15.4128C64.8365 16.3971 65.6347 17.1952 66.619 17.1952C67.6033 17.1952 68.4014 16.3971 68.4014 15.4128C68.4014 14.4285 67.6033 13.6304 66.619 13.6304Z" fill="white"/>
</g>
<mask id="mask14_312_202" style="mask-type:luminance" maskUnits="userSpaceOnUse" x="0" y="0" width="120" height="120">
<path d="M60 120C93.1371 120 120 93.1371 120 60C120 26.8629 93.1371 0 60 0C26.8629 0 0 26.8629 0 60C0 93.1371 26.8629 120 60 120Z" fill="white"/>
</mask>
<g mask="url(#mask14_312_202)">
<path d="M80.8743 13.6304C79.89 13.6304 79.0919 14.4285 79.0919 15.4128C79.0919 16.3971 79.89 17.1952 80.8743 17.1952C81.8587 17.1952 82.6568 16.3971 82.6568 15.4128C82.6568 14.4285 81.8587 13.6304 80.8743 13.6304Z" fill="white"/>
</g>
<mask id="mask15_312_202" style="mask-type:luminance" maskUnits="userSpaceOnUse" x="0" y="0" width="120" height="120">
<path d="M60 120C93.1371 120 120 93.1371 120 60C120 26.8629 93.1371 0 60 0C26.8629 0 0 26.8629 0 60C0 93.1371 26.8629 120 60 120Z" fill="white"/>
</mask>
<g mask="url(#mask15_312_202)">
<path d="M95.1311 13.6304C94.1467 13.6304 93.3486 14.4285 93.3486 15.4128C93.3486 16.3971 94.1467 17.1952 95.1311 17.1952C96.1154 17.1952 96.9135 16.3971 96.9135 15.4128C96.9122 14.4285 96.1154 13.6304 95.1311 13.6304Z" fill="white"/>
</g>
<mask id="mask16_312_202" style="mask-type:luminance" maskUnits="userSpaceOnUse" x="0" y="0" width="120" height="120">
<path d="M60 120C93.1371 120 120 93.1371 120 60C120 26.8629 93.1371 0 60 0C26.8629 0 0 26.8629 0 60C0 93.1371 26.8629 120 60 120Z" fill="white"/>
</mask>
<g mask="url(#mask16_312_202)">
<path d="M109.387 13.6304C108.402 13.6304 107.604 14.4285 107.604 15.4128C107.604 16.3971 108.402 17.1952 109.387 17.1952C110.371 17.1952 111.169 16.3971 111.169 15.4128C111.169 14.4285 110.371 13.6304 109.387 13.6304Z" fill="white"/>
</g>
<mask id="mask17_312_202" style="mask-type:luminance" maskUnits="userSpaceOnUse" x="0" y="0" width="120" height="120">
<path d="M60 120C93.1371 120 120 93.1371 120 60C120 26.8629 93.1371 0 60 0C26.8629 0 0 26.8629 0 60C0 93.1371 26.8629 120 60 120Z" fill="white"/>
</mask>
<g mask="url(#mask17_312_202)">
<path d="M2.26253 23.5242C1.27821 23.5242 0.480103 24.3223 0.480103 25.3066C0.480103 26.2909 1.27821 27.089 2.26253 27.089C3.24686 27.089 4.04495 26.2909 4.04495 25.3066C4.04495 24.3223 3.24686 23.5242 2.26253 23.5242Z" fill="white"/>
</g>
<mask id="mask18_312_202" style="mask-type:luminance" maskUnits="userSpaceOnUse" x="0" y="0" width="120" height="120">
<path d="M60 120C93.1371 120 120 93.1371 120 60C120 26.8629 93.1371 0 60 0C26.8629 0 0 26.8629 0 60C0 93.1371 26.8629 120 60 120Z" fill="white"/>
</mask>
<g mask="url(#mask18_312_202)">
<path d="M16.5194 27.089C17.5038 27.089 18.3018 26.291 18.3018 25.3066C18.3018 24.3222 17.5038 23.5242 16.5194 23.5242C15.535 23.5242 14.7369 24.3222 14.7369 25.3066C14.7369 26.291 15.535 27.089 16.5194 27.089Z" fill="white"/>
</g>
<mask id="mask19_312_202" style="mask-type:luminance" maskUnits="userSpaceOnUse" x="0" y="0" width="120" height="120">
<path d="M60 120C93.1371 120 120 93.1371 120 60C120 26.8629 93.1371 0 60 0C26.8629 0 0 26.8629 0 60C0 93.1371 26.8629 120 60 120Z" fill="white"/>
</mask>
<g mask="url(#mask19_312_202)">
<path d="M30.7749 27.089C31.7593 27.089 32.5573 26.291 32.5573 25.3066C32.5573 24.3222 31.7593 23.5242 30.7749 23.5242C29.7905 23.5242 28.9924 24.3222 28.9924 25.3066C28.9924 26.291 29.7905 27.089 30.7749 27.089Z" fill="white"/>
</g>
<mask id="mask20_312_202" style="mask-type:luminance" maskUnits="userSpaceOnUse" x="0" y="0" width="120" height="120">
<path d="M60 120C93.1371 120 120 93.1371 120 60C120 26.8629 93.1371 0 60 0C26.8629 0 0 26.8629 0 60C0 93.1371 26.8629 120 60 120Z" fill="white"/>
</mask>
<g mask="url(#mask20_312_202)">
<path d="M45.0302 23.5242C44.0459 23.5242 43.2478 24.3223 43.2478 25.3066C43.2478 26.2909 44.0459 27.089 45.0302 27.089C46.0146 27.089 46.8127 26.2909 46.8127 25.3066C46.8127 24.3223 46.0146 23.5242 45.0302 23.5242Z" fill="white"/>
</g>
<mask id="mask21_312_202" style="mask-type:luminance" maskUnits="userSpaceOnUse" x="0" y="0" width="120" height="120">
<path d="M60 120C93.1371 120 120 93.1371 120 60C120 26.8629 93.1371 0 60 0C26.8629 0 0 26.8629 0 60C0 93.1371 26.8629 120 60 120Z" fill="white"/>
</mask>
<g mask="url(#mask21_312_202)">
<path d="M59.2869 27.089C60.2714 27.089 61.0694 26.291 61.0694 25.3066C61.0694 24.3222 60.2714 23.5242 59.2869 23.5242C58.3025 23.5242 57.5045 24.3222 57.5045 25.3066C57.5045 26.291 58.3025 27.089 59.2869 27.089Z" fill="white"/>
</g>
<mask id="mask22_312_202" style="mask-type:luminance" maskUnits="userSpaceOnUse" x="0" y="0" width="120" height="120">
<path d="M60 120C93.1371 120 120 93.1371 120 60C120 26.8629 93.1371 0 60 0C26.8629 0 0 26.8629 0 60C0 93.1371 26.8629 120 60 120Z" fill="white"/>
</mask>
<g mask="url(#mask22_312_202)">
<path d="M73.5424 23.5242C72.5581 23.5242 71.76 24.3223 71.76 25.3066C71.76 26.2909 72.5581 27.089 73.5424 27.089C74.5268 27.089 75.3249 26.2909 75.3249 25.3066C75.3249 24.3223 74.5268 23.5242 73.5424 23.5242Z" fill="white"/>
</g>
<mask id="mask23_312_202" style="mask-type:luminance" maskUnits="userSpaceOnUse" x="0" y="0" width="120" height="120">
<path d="M60 120C93.1371 120 120 93.1371 120 60C120 26.8629 93.1371 0 60 0C26.8629 0 0 26.8629 0 60C0 93.1371 26.8629 120 60 120Z" fill="white"/>
</mask>
<g mask="url(#mask23_312_202)">
<path d="M87.7993 27.089C88.7837 27.089 89.5817 26.291 89.5817 25.3066C89.5817 24.3222 88.7837 23.5242 87.7993 23.5242C86.8149 23.5242 86.0168 24.3222 86.0168 25.3066C86.0168 26.291 86.8149 27.089 87.7993 27.089Z" fill="white"/>
</g>
<mask id="mask24_312_202" style="mask-type:luminance" maskUnits="userSpaceOnUse" x="0" y="0" width="120" height="120">
<path d="M60 120C93.1371 120 120 93.1371 120 60C120 26.8629 93.1371 0 60 0C26.8629 0 0 26.8629 0 60C0 93.1371 26.8629 120 60 120Z" fill="white"/>
</mask>
<g mask="url(#mask24_312_202)">
<path d="M102.055 23.5242C101.07 23.5242 100.272 24.3223 100.272 25.3066C100.272 26.2909 101.07 27.089 102.055 27.089C103.039 27.089 103.837 26.2909 103.837 25.3066C103.837 24.3223 103.039 23.5242 102.055 23.5242Z" fill="white"/>
</g>
<mask id="mask25_312_202" style="mask-type:luminance" maskUnits="userSpaceOnUse" x="0" y="0" width="120" height="120">
<path d="M60 120C93.1371 120 120 93.1371 120 60C120 26.8629 93.1371 0 60 0C26.8629 0 0 26.8629 0 60C0 93.1371 26.8629 120 60 120Z" fill="white"/>
</mask>
<g mask="url(#mask25_312_202)">
<path d="M116.311 23.5242C115.327 23.5242 114.529 24.3223 114.529 25.3066C114.529 26.2909 115.327 27.089 116.311 27.089C117.296 27.089 118.094 26.2909 118.094 25.3066C118.092 24.3223 117.296 23.5242 116.311 23.5242Z" fill="white"/>
</g>
<mask id="mask26_312_202" style="mask-type:luminance" maskUnits="userSpaceOnUse" x="0" y="0" width="120" height="120">
<path d="M60 120C93.1371 120 120 93.1371 120 60C120 26.8629 93.1371 0 60 0C26.8629 0 0 26.8629 0 60C0 93.1371 26.8629 120 60 120Z" fill="white"/>
</mask>
<g mask="url(#mask26_312_202)">
<path d="M9.59456 34.0247C8.61024 34.0247 7.81213 34.8228 7.81213 35.8071C7.81213 36.7914 8.61024 37.5895 9.59456 37.5895C10.5789 37.5895 11.377 36.7914 11.377 35.8071C11.377 34.8228 10.5789 34.0247 9.59456 34.0247Z" fill="white"/>
</g>
<mask id="mask27_312_202" style="mask-type:luminance" maskUnits="userSpaceOnUse" x="0" y="0" width="120" height="120">
<path d="M60 120C93.1371 120 120 93.1371 120 60C120 26.8629 93.1371 0 60 0C26.8629 0 0 26.8629 0 60C0 93.1371 26.8629 120 60 120Z" fill="white"/>
</mask>
<g mask="url(#mask27_312_202)">
<path d="M23.8512 34.0247C22.8668 34.0247 22.0687 34.8228 22.0687 35.8071C22.0687 36.7914 22.8668 37.5895 23.8512 37.5895C24.8355 37.5895 25.6336 36.7914 25.6336 35.8071C25.6336 34.8228 24.8342 34.0247 23.8512 34.0247Z" fill="white"/>
</g>
<mask id="mask28_312_202" style="mask-type:luminance" maskUnits="userSpaceOnUse" x="0" y="0" width="120" height="120">
<path d="M60 120C93.1371 120 120 93.1371 120 60C120 26.8629 93.1371 0 60 0C26.8629 0 0 26.8629 0 60C0 93.1371 26.8629 120 60 120Z" fill="white"/>
</mask>
<g mask="url(#mask28_312_202)">
<path d="M38.1066 34.0247C37.1223 34.0247 36.3242 34.8228 36.3242 35.8071C36.3242 36.7914 37.1223 37.5895 38.1066 37.5895C39.091 37.5895 39.8891 36.7914 39.8891 35.8071C39.8891 34.8228 39.091 34.0247 38.1066 34.0247Z" fill="white"/>
</g>
<mask id="mask29_312_202" style="mask-type:luminance" maskUnits="userSpaceOnUse" x="0" y="0" width="120" height="120">
<path d="M60 120C93.1371 120 120 93.1371 120 60C120 26.8629 93.1371 0 60 0C26.8629 0 0 26.8629 0 60C0 93.1371 26.8629 120 60 120Z" fill="white"/>
</mask>
<g mask="url(#mask29_312_202)">
<path d="M52.3621 34.0247C51.3778 34.0247 50.5797 34.8228 50.5797 35.8071C50.5797 36.7914 51.3778 37.5895 52.3621 37.5895C53.3465 37.5895 54.1446 36.7914 54.1446 35.8071C54.1446 34.8228 53.3465 34.0247 52.3621 34.0247Z" fill="white"/>
</g>
<mask id="mask30_312_202" style="mask-type:luminance" maskUnits="userSpaceOnUse" x="0" y="0" width="120" height="120">
<path d="M60 120C93.1371 120 120 93.1371 120 60C120 26.8629 93.1371 0 60 0C26.8629 0 0 26.8629 0 60C0 93.1371 26.8629 120 60 120Z" fill="white"/>
</mask>
<g mask="url(#mask30_312_202)">
<path d="M66.619 34.0247C65.6347 34.0247 64.8365 34.8228 64.8365 35.8071C64.8365 36.7914 65.6347 37.5895 66.619 37.5895C67.6033 37.5895 68.4014 36.7914 68.4014 35.8071C68.4014 34.8228 67.6033 34.0247 66.619 34.0247Z" fill="white"/>
</g>
<mask id="mask31_312_202" style="mask-type:luminance" maskUnits="userSpaceOnUse" x="0" y="0" width="120" height="120">
<path d="M60 120C93.1371 120 120 93.1371 120 60C120 26.8629 93.1371 0 60 0C26.8629 0 0 26.8629 0 60C0 93.1371 26.8629 120 60 120Z" fill="white"/>
</mask>
<g mask="url(#mask31_312_202)">
<path d="M80.8797 31.3987C79.8954 31.3987 79.0973 32.1968 79.0973 33.1811C79.0973 34.1654 79.8954 34.9635 80.8797 34.9635C81.864 34.9635 82.6621 34.1654 82.6621 33.1811C82.6621 32.1968 81.864 31.3987 80.8797 31.3987Z" fill="white"/>
</g>
<mask id="mask32_312_202" style="mask-type:luminance" maskUnits="userSpaceOnUse" x="0" y="0" width="120" height="120">
<path d="M60 120C93.1371 120 120 93.1371 120 60C120 26.8629 93.1371 0 60 0C26.8629 0 0 26.8629 0 60C0 93.1371 26.8629 120 60 120Z" fill="white"/>
</mask>
<g mask="url(#mask32_312_202)">
<path d="M95.1311 34.0247C94.1467 34.0247 93.3486 34.8228 93.3486 35.8071C93.3486 36.7914 94.1467 37.5895 95.1311 37.5895C96.1154 37.5895 96.9135 36.7914 96.9135 35.8071C96.9135 34.8228 96.1154 34.0247 95.1311 34.0247Z" fill="white"/>
</g>
<mask id="mask33_312_202" style="mask-type:luminance" maskUnits="userSpaceOnUse" x="0" y="0" width="120" height="120">
<path d="M60 120C93.1371 120 120 93.1371 120 60C120 26.8629 93.1371 0 60 0C26.8629 0 0 26.8629 0 60C0 93.1371 26.8629 120 60 120Z" fill="white"/>
</mask>
<g mask="url(#mask33_312_202)">
<path d="M109.387 34.0247C108.402 34.0247 107.604 34.8228 107.604 35.8071C107.604 36.7914 108.402 37.5895 109.387 37.5895C110.371 37.5895 111.169 36.7914 111.169 35.8071C111.169 34.8228 110.371 34.0247 109.387 34.0247Z" fill="white"/>
</g>
<mask id="mask34_312_202" style="mask-type:luminance" maskUnits="userSpaceOnUse" x="0" y="0" width="120" height="120">
<path d="M60 120C93.1371 120 120 93.1371 120 60C120 26.8629 93.1371 0 60 0C26.8629 0 0 26.8629 0 60C0 93.1371 26.8629 120 60 120Z" fill="white"/>
</mask>
<g mask="url(#mask34_312_202)">
<path d="M2.26253 45.106C1.27821 45.106 0.480103 45.9041 0.480103 46.8884C0.480103 47.8727 1.27821 48.6708 2.26253 48.6708C3.24686 48.6708 4.04495 47.8727 4.04495 46.8884C4.04495 45.9041 3.24686 45.106 2.26253 45.106Z" fill="white"/>
</g>
<mask id="mask35_312_202" style="mask-type:luminance" maskUnits="userSpaceOnUse" x="0" y="0" width="120" height="120">
<path d="M60 120C93.1371 120 120 93.1371 120 60C120 26.8629 93.1371 0 60 0C26.8629 0 0 26.8629 0 60C0 93.1371 26.8629 120 60 120Z" fill="white"/>
</mask>
<g mask="url(#mask35_312_202)">
<path d="M16.5194 45.106C15.535 45.106 14.7369 45.9041 14.7369 46.8884C14.7369 47.8727 15.535 48.6708 16.5194 48.6708C17.5037 48.6708 18.3018 47.8727 18.3018 46.8884C18.3018 45.9041 17.5037 45.106 16.5194 45.106Z" fill="white"/>
</g>
<mask id="mask36_312_202" style="mask-type:luminance" maskUnits="userSpaceOnUse" x="0" y="0" width="120" height="120">
<path d="M60 120C93.1371 120 120 93.1371 120 60C120 26.8629 93.1371 0 60 0C26.8629 0 0 26.8629 0 60C0 93.1371 26.8629 120 60 120Z" fill="white"/>
</mask>
<g mask="url(#mask36_312_202)">
<path d="M30.7749 45.106C29.7905 45.106 28.9924 45.9041 28.9924 46.8884C28.9924 47.8727 29.7905 48.6708 30.7749 48.6708C31.7592 48.6708 32.5573 47.8727 32.5573 46.8884C32.5573 45.9041 31.7592 45.106 30.7749 45.106Z" fill="white"/>
</g>
<mask id="mask37_312_202" style="mask-type:luminance" maskUnits="userSpaceOnUse" x="0" y="0" width="120" height="120">
<path d="M60 120C93.1371 120 120 93.1371 120 60C120 26.8629 93.1371 0 60 0C26.8629 0 0 26.8629 0 60C0 93.1371 26.8629 120 60 120Z" fill="white"/>
</mask>
<g mask="url(#mask37_312_202)">
<path d="M45.0302 45.106C44.0459 45.106 43.2478 45.9041 43.2478 46.8884C43.2478 47.8727 44.0459 48.6708 45.0302 48.6708C46.0146 48.6708 46.8127 47.8727 46.8127 46.8884C46.8127 45.9041 46.0146 45.106 45.0302 45.106Z" fill="white"/>
</g>
<mask id="mask38_312_202" style="mask-type:luminance" maskUnits="userSpaceOnUse" x="0" y="0" width="120" height="120">
<path d="M60 120C93.1371 120 120 93.1371 120 60C120 26.8629 93.1371 0 60 0C26.8629 0 0 26.8629 0 60C0 93.1371 26.8629 120 60 120Z" fill="white"/>
</mask>
<g mask="url(#mask38_312_202)">
<path d="M59.2869 45.106C58.3026 45.106 57.5045 45.9041 57.5045 46.8884C57.5045 47.8727 58.3026 48.6708 59.2869 48.6708C60.2713 48.6708 61.0694 47.8727 61.0694 46.8884C61.0694 45.9041 60.2713 45.106 59.2869 45.106Z" fill="white"/>
</g>
<mask id="mask39_312_202" style="mask-type:luminance" maskUnits="userSpaceOnUse" x="0" y="0" width="120" height="120">
<path d="M60 120C93.1371 120 120 93.1371 120 60C120 26.8629 93.1371 0 60 0C26.8629 0 0 26.8629 0 60C0 93.1371 26.8629 120 60 120Z" fill="white"/>
</mask>
<g mask="url(#mask39_312_202)">
<path d="M73.5424 45.106C72.5581 45.106 71.76 45.9041 71.76 46.8884C71.76 47.8727 72.5581 48.6708 73.5424 48.6708C74.5268 48.6708 75.3249 47.8727 75.3249 46.8884C75.3249 45.9041 74.5268 45.106 73.5424 45.106Z" fill="white"/>
</g>
<mask id="mask40_312_202" style="mask-type:luminance" maskUnits="userSpaceOnUse" x="0" y="0" width="120" height="120">
<path d="M60 120C93.1371 120 120 93.1371 120 60C120 26.8629 93.1371 0 60 0C26.8629 0 0 26.8629 0 60C0 93.1371 26.8629 120 60 120Z" fill="white"/>
</mask>
<g mask="url(#mask40_312_202)">
<path d="M87.7993 45.106C86.8149 45.106 86.0168 45.9041 86.0168 46.8884C86.0168 47.8727 86.8149 48.6708 87.7993 48.6708C88.7836 48.6708 89.5817 47.8727 89.5817 46.8884C89.5817 45.9041 88.7836 45.106 87.7993 45.106Z" fill="white"/>
</g>
<mask id="mask41_312_202" style="mask-type:luminance" maskUnits="userSpaceOnUse" x="0" y="0" width="120" height="120">
<path d="M60 120C93.1371 120 120 93.1371 120 60C120 26.8629 93.1371 0 60 0C26.8629 0 0 26.8629 0 60C0 93.1371 26.8629 120 60 120Z" fill="white"/>
</mask>
<g mask="url(#mask41_312_202)">
<path d="M102.055 45.106C101.07 45.106 100.272 45.9041 100.272 46.8884C100.272 47.8727 101.07 48.6708 102.055 48.6708C103.039 48.6708 103.837 47.8727 103.837 46.8884C103.837 45.9041 103.039 45.106 102.055 45.106Z" fill="white"/>
</g>
<mask id="mask42_312_202" style="mask-type:luminance" maskUnits="userSpaceOnUse" x="0" y="0" width="120" height="120">
<path d="M60 120C93.1371 120 120 93.1371 120 60C120 26.8629 93.1371 0 60 0C26.8629 0 0 26.8629 0 60C0 93.1371 26.8629 120 60 120Z" fill="white"/>
</mask>
<g mask="url(#mask42_312_202)">
<path d="M116.311 45.106C115.327 45.106 114.529 45.9041 114.529 46.8884C114.529 47.8727 115.327 48.6708 116.311 48.6708C117.296 48.6708 118.094 47.8727 118.094 46.8884C118.094 45.9041 117.296 45.106 116.311 45.106Z" fill="white"/>
</g>
<mask id="mask43_312_202" style="mask-type:luminance" maskUnits="userSpaceOnUse" x="0" y="0" width="120" height="120">
<path d="M60 120C93.1371 120 120 93.1371 120 60C120 26.8629 93.1371 0 60 0C26.8629 0 0 26.8629 0 60C0 93.1371 26.8629 120 60 120Z" fill="white"/>
</mask>
<g mask="url(#mask43_312_202)">
<path d="M9.59456 59.1713C10.579 59.1713 11.377 58.3733 11.377 57.3889C11.377 56.4045 10.579 55.6064 9.59456 55.6064C8.61015 55.6064 7.81213 56.4045 7.81213 57.3889C7.81213 58.3733 8.61015 59.1713 9.59456 59.1713Z" fill="white"/>
</g>
<mask id="mask44_312_202" style="mask-type:luminance" maskUnits="userSpaceOnUse" x="0" y="0" width="120" height="120">
<path d="M60 120C93.1371 120 120 93.1371 120 60C120 26.8629 93.1371 0 60 0C26.8629 0 0 26.8629 0 60C0 93.1371 26.8629 120 60 120Z" fill="white"/>
</mask>
<g mask="url(#mask44_312_202)">
<path d="M23.8512 55.6064C22.8668 55.6064 22.0687 56.4045 22.0687 57.3889C22.0687 58.3732 22.8668 59.1713 23.8512 59.1713C24.8355 59.1713 25.6336 58.3732 25.6336 57.3889C25.6323 56.4045 24.8342 55.6064 23.8512 55.6064Z" fill="white"/>
</g>
<mask id="mask45_312_202" style="mask-type:luminance" maskUnits="userSpaceOnUse" x="0" y="0" width="120" height="120">
<path d="M60 120C93.1371 120 120 93.1371 120 60C120 26.8629 93.1371 0 60 0C26.8629 0 0 26.8629 0 60C0 93.1371 26.8629 120 60 120Z" fill="white"/>
</mask>
<g mask="url(#mask45_312_202)">
<path d="M38.1066 59.1713C39.0911 59.1713 39.8891 58.3733 39.8891 57.3889C39.8891 56.4045 39.0911 55.6064 38.1066 55.6064C37.1222 55.6064 36.3242 56.4045 36.3242 57.3889C36.3242 58.3733 37.1222 59.1713 38.1066 59.1713Z" fill="white"/>
</g>
<mask id="mask46_312_202" style="mask-type:luminance" maskUnits="userSpaceOnUse" x="0" y="0" width="120" height="120">
<path d="M60 120C93.1371 120 120 93.1371 120 60C120 26.8629 93.1371 0 60 0C26.8629 0 0 26.8629 0 60C0 93.1371 26.8629 120 60 120Z" fill="white"/>
</mask>
<g mask="url(#mask46_312_202)">
<path d="M52.3621 55.6064C51.3778 55.6064 50.5797 56.4045 50.5797 57.3889C50.5797 58.3732 51.3778 59.1713 52.3621 59.1713C53.3465 59.1713 54.1446 58.3732 54.1446 57.3889C54.1446 56.4045 53.3465 55.6064 52.3621 55.6064Z" fill="white"/>
</g>
<mask id="mask47_312_202" style="mask-type:luminance" maskUnits="userSpaceOnUse" x="0" y="0" width="120" height="120">
<path d="M60 120C93.1371 120 120 93.1371 120 60C120 26.8629 93.1371 0 60 0C26.8629 0 0 26.8629 0 60C0 93.1371 26.8629 120 60 120Z" fill="white"/>
</mask>
<g mask="url(#mask47_312_202)">
<path d="M66.619 55.6064C65.6347 55.6064 64.8365 56.4045 64.8365 57.3889C64.8365 58.3732 65.6347 59.1713 66.619 59.1713C67.6033 59.1713 68.4014 58.3732 68.4014 57.3889C68.4014 56.4045 67.6033 55.6064 66.619 55.6064Z" fill="white"/>
</g>
<mask id="mask48_312_202" style="mask-type:luminance" maskUnits="userSpaceOnUse" x="0" y="0" width="120" height="120">
<path d="M60 120C93.1371 120 120 93.1371 120 60C120 26.8629 93.1371 0 60 0C26.8629 0 0 26.8629 0 60C0 93.1371 26.8629 120 60 120Z" fill="white"/>
</mask>
<g mask="url(#mask48_312_202)">
<path d="M80.8743 59.1713C81.8588 59.1713 82.6568 58.3733 82.6568 57.3889C82.6568 56.4045 81.8588 55.6064 80.8743 55.6064C79.8899 55.6064 79.0919 56.4045 79.0919 57.3889C79.0919 58.3733 79.8899 59.1713 80.8743 59.1713Z" fill="white"/>
</g>
<mask id="mask49_312_202" style="mask-type:luminance" maskUnits="userSpaceOnUse" x="0" y="0" width="120" height="120">
<path d="M60 120C93.1371 120 120 93.1371 120 60C120 26.8629 93.1371 0 60 0C26.8629 0 0 26.8629 0 60C0 93.1371 26.8629 120 60 120Z" fill="white"/>
</mask>
<g mask="url(#mask49_312_202)">
<path d="M95.1311 55.6064C94.1467 55.6064 93.3486 56.4045 93.3486 57.3889C93.3486 58.3732 94.1467 59.1713 95.1311 59.1713C96.1154 59.1713 96.9135 58.3732 96.9135 57.3889C96.9122 56.4045 96.1154 55.6064 95.1311 55.6064Z" fill="white"/>
</g>
<mask id="mask50_312_202" style="mask-type:luminance" maskUnits="userSpaceOnUse" x="0" y="0" width="120" height="120">
<path d="M60 120C93.1371 120 120 93.1371 120 60C120 26.8629 93.1371 0 60 0C26.8629 0 0 26.8629 0 60C0 93.1371 26.8629 120 60 120Z" fill="white"/>
</mask>
<g mask="url(#mask50_312_202)">
<path d="M109.387 59.1713C110.371 59.1713 111.169 58.3733 111.169 57.3889C111.169 56.4045 110.371 55.6064 109.387 55.6064C108.402 55.6064 107.604 56.4045 107.604 57.3889C107.604 58.3733 108.402 59.1713 109.387 59.1713Z" fill="white"/>
</g>
<mask id="mask51_312_202" style="mask-type:luminance" maskUnits="userSpaceOnUse" x="0" y="0" width="120" height="120">
<path d="M60 120C93.1371 120 120 93.1371 120 60C120 26.8629 93.1371 0 60 0C26.8629 0 0 26.8629 0 60C0 93.1371 26.8629 120 60 120Z" fill="white"/>
</mask>
<g mask="url(#mask51_312_202)">
<path d="M2.26253 65.5002C1.27821 65.5002 0.480103 66.2983 0.480103 67.2827C0.480103 68.267 1.27821 69.0651 2.26253 69.0651C3.24686 69.0651 4.04495 68.267 4.04495 67.2827C4.04495 66.2983 3.24686 65.5002 2.26253 65.5002Z" fill="white"/>
</g>
<mask id="mask52_312_202" style="mask-type:luminance" maskUnits="userSpaceOnUse" x="0" y="0" width="120" height="120">
<path d="M60 120C93.1371 120 120 93.1371 120 60C120 26.8629 93.1371 0 60 0C26.8629 0 0 26.8629 0 60C0 93.1371 26.8629 120 60 120Z" fill="white"/>
</mask>
<g mask="url(#mask52_312_202)">
<path d="M16.5194 65.5002C15.535 65.5002 14.7369 66.2983 14.7369 67.2827C14.7369 68.267 15.535 69.0651 16.5194 69.0651C17.5037 69.0651 18.3018 68.267 18.3018 67.2827C18.3005 66.2983 17.5037 65.5002 16.5194 65.5002Z" fill="white"/>
</g>
<mask id="mask53_312_202" style="mask-type:luminance" maskUnits="userSpaceOnUse" x="0" y="0" width="120" height="120">
<path d="M60 120C93.1371 120 120 93.1371 120 60C120 26.8629 93.1371 0 60 0C26.8629 0 0 26.8629 0 60C0 93.1371 26.8629 120 60 120Z" fill="white"/>
</mask>
<g mask="url(#mask53_312_202)">
<path d="M30.7749 65.5002C29.7905 65.5002 28.9924 66.2983 28.9924 67.2827C28.9924 68.267 29.7905 69.0651 30.7749 69.0651C31.7592 69.0651 32.5573 68.267 32.5573 67.2827C32.5573 66.2983 31.7592 65.5002 30.7749 65.5002Z" fill="white"/>
</g>
<mask id="mask54_312_202" style="mask-type:luminance" maskUnits="userSpaceOnUse" x="0" y="0" width="120" height="120">
<path d="M60 120C93.1371 120 120 93.1371 120 60C120 26.8629 93.1371 0 60 0C26.8629 0 0 26.8629 0 60C0 93.1371 26.8629 120 60 120Z" fill="white"/>
</mask>
<g mask="url(#mask54_312_202)">
<path d="M45.0302 65.5002C44.0459 65.5002 43.2478 66.2983 43.2478 67.2827C43.2478 68.267 44.0459 69.0651 45.0302 69.0651C46.0146 69.0651 46.8127 68.267 46.8127 67.2827C46.8127 66.2983 46.0146 65.5002 45.0302 65.5002Z" fill="white"/>
</g>
<mask id="mask55_312_202" style="mask-type:luminance" maskUnits="userSpaceOnUse" x="0" y="0" width="120" height="120">
<path d="M60 120C93.1371 120 120 93.1371 120 60C120 26.8629 93.1371 0 60 0C26.8629 0 0 26.8629 0 60C0 93.1371 26.8629 120 60 120Z" fill="white"/>
</mask>
<g mask="url(#mask55_312_202)">
<path d="M59.2869 65.5002C58.3026 65.5002 57.5045 66.2983 57.5045 67.2827C57.5045 68.267 58.3026 69.0651 59.2869 69.0651C60.2713 69.0651 61.0694 68.267 61.0694 67.2827C61.0694 66.2983 60.2713 65.5002 59.2869 65.5002Z" fill="white"/>
</g>
<mask id="mask56_312_202" style="mask-type:luminance" maskUnits="userSpaceOnUse" x="0" y="0" width="120" height="120">
<path d="M60 120C93.1371 120 120 93.1371 120 60C120 26.8629 93.1371 0 60 0C26.8629 0 0 26.8629 0 60C0 93.1371 26.8629 120 60 120Z" fill="white"/>
</mask>
<g mask="url(#mask56_312_202)">
<path d="M73.5424 65.5002C72.5581 65.5002 71.76 66.2983 71.76 67.2827C71.76 68.267 72.5581 69.0651 73.5424 69.0651C74.5268 69.0651 75.3249 68.267 75.3249 67.2827C75.3249 66.2983 74.5268 65.5002 73.5424 65.5002Z" fill="white"/>
</g>
<mask id="mask57_312_202" style="mask-type:luminance" maskUnits="userSpaceOnUse" x="0" y="0" width="120" height="120">
<path d="M60 120C93.1371 120 120 93.1371 120 60C120 26.8629 93.1371 0 60 0C26.8629 0 0 26.8629 0 60C0 93.1371 26.8629 120 60 120Z" fill="white"/>
</mask>
<g mask="url(#mask57_312_202)">
<path d="M87.7993 65.5002C86.8149 65.5002 86.0168 66.2983 86.0168 67.2827C86.0168 68.267 86.8149 69.0651 87.7993 69.0651C88.7836 69.0651 89.5817 68.267 89.5817 67.2827C89.5817 66.2983 88.7836 65.5002 87.7993 65.5002Z" fill="white"/>
</g>
<mask id="mask58_312_202" style="mask-type:luminance" maskUnits="userSpaceOnUse" x="0" y="0" width="120" height="120">
<path d="M60 120C93.1371 120 120 93.1371 120 60C120 26.8629 93.1371 0 60 0C26.8629 0 0 26.8629 0 60C0 93.1371 26.8629 120 60 120Z" fill="white"/>
</mask>
<g mask="url(#mask58_312_202)">
<path d="M102.055 65.5002C101.07 65.5002 100.272 66.2983 100.272 67.2827C100.272 68.267 101.07 69.0651 102.055 69.0651C103.039 69.0651 103.837 68.267 103.837 67.2827C103.837 66.2983 103.039 65.5002 102.055 65.5002Z" fill="white"/>
</g>
<mask id="mask59_312_202" style="mask-type:luminance" maskUnits="userSpaceOnUse" x="0" y="0" width="120" height="120">
<path d="M60 120C93.1371 120 120 93.1371 120 60C120 26.8629 93.1371 0 60 0C26.8629 0 0 26.8629 0 60C0 93.1371 26.8629 120 60 120Z" fill="white"/>
</mask>
<g mask="url(#mask59_312_202)">
<path d="M116.311 65.5002C115.327 65.5002 114.529 66.2983 114.529 67.2827C114.529 68.267 115.327 69.0651 116.311 69.0651C117.296 69.0651 118.094 68.267 118.094 67.2827C118.092 66.2983 117.296 65.5002 116.311 65.5002Z" fill="white"/>
</g>
<mask id="mask60_312_202" style="mask-type:luminance" maskUnits="userSpaceOnUse" x="0" y="0" width="120" height="120">
<path d="M60 120C93.1371 120 120 93.1371 120 60C120 26.8629 93.1371 0 60 0C26.8629 0 0 26.8629 0 60C0 93.1371 26.8629 120 60 120Z" fill="white"/>
</mask>
<g mask="url(#mask60_312_202)">
<path d="M9.59456 79.5653C10.579 79.5653 11.377 78.7673 11.377 77.7829C11.377 76.7985 10.579 76.0005 9.59456 76.0005C8.61015 76.0005 7.81213 76.7985 7.81213 77.7829C7.81213 78.7673 8.61015 79.5653 9.59456 79.5653Z" fill="white"/>
</g>
<mask id="mask61_312_202" style="mask-type:luminance" maskUnits="userSpaceOnUse" x="0" y="0" width="120" height="120">
<path d="M60 120C93.1371 120 120 93.1371 120 60C120 26.8629 93.1371 0 60 0C26.8629 0 0 26.8629 0 60C0 93.1371 26.8629 120 60 120Z" fill="white"/>
</mask>
<g mask="url(#mask61_312_202)">
<path d="M23.8512 76.0005C22.8668 76.0005 22.0687 76.7986 22.0687 77.7829C22.0687 78.7672 22.8668 79.5653 23.8512 79.5653C24.8355 79.5653 25.6336 78.7672 25.6336 77.7829C25.6323 76.7986 24.8342 76.0005 23.8512 76.0005Z" fill="white"/>
</g>
<mask id="mask62_312_202" style="mask-type:luminance" maskUnits="userSpaceOnUse" x="0" y="0" width="120" height="120">
<path d="M60 120C93.1371 120 120 93.1371 120 60C120 26.8629 93.1371 0 60 0C26.8629 0 0 26.8629 0 60C0 93.1371 26.8629 120 60 120Z" fill="white"/>
</mask>
<g mask="url(#mask62_312_202)">
<path d="M38.1066 79.5653C39.0911 79.5653 39.8891 78.7673 39.8891 77.7829C39.8891 76.7985 39.0911 76.0005 38.1066 76.0005C37.1222 76.0005 36.3242 76.7985 36.3242 77.7829C36.3242 78.7673 37.1222 79.5653 38.1066 79.5653Z" fill="white"/>
</g>
<mask id="mask63_312_202" style="mask-type:luminance" maskUnits="userSpaceOnUse" x="0" y="0" width="120" height="120">
<path d="M60 120C93.1371 120 120 93.1371 120 60C120 26.8629 93.1371 0 60 0C26.8629 0 0 26.8629 0 60C0 93.1371 26.8629 120 60 120Z" fill="white"/>
</mask>
<g mask="url(#mask63_312_202)">
<path d="M52.3621 76.0005C51.3778 76.0005 50.5797 76.7986 50.5797 77.7829C50.5797 78.7672 51.3778 79.5653 52.3621 79.5653C53.3465 79.5653 54.1446 78.7672 54.1446 77.7829C54.1446 76.7986 53.3465 76.0005 52.3621 76.0005Z" fill="white"/>
</g>
<mask id="mask64_312_202" style="mask-type:luminance" maskUnits="userSpaceOnUse" x="0" y="0" width="120" height="120">
<path d="M60 120C93.1371 120 120 93.1371 120 60C120 26.8629 93.1371 0 60 0C26.8629 0 0 26.8629 0 60C0 93.1371 26.8629 120 60 120Z" fill="white"/>
</mask>
<g mask="url(#mask64_312_202)">
<path d="M66.619 76.0005C65.6347 76.0005 64.8365 76.7986 64.8365 77.7829C64.8365 78.7672 65.6347 79.5653 66.619 79.5653C67.6033 79.5653 68.4014 78.7672 68.4014 77.7829C68.4014 76.7986 67.6033 76.0005 66.619 76.0005Z" fill="white"/>
</g>
<mask id="mask65_312_202" style="mask-type:luminance" maskUnits="userSpaceOnUse" x="0" y="0" width="120" height="120">
<path d="M60 120C93.1371 120 120 93.1371 120 60C120 26.8629 93.1371 0 60 0C26.8629 0 0 26.8629 0 60C0 93.1371 26.8629 120 60 120Z" fill="white"/>
</mask>
<g mask="url(#mask65_312_202)">
<path d="M80.8743 79.5653C81.8588 79.5653 82.6568 78.7673 82.6568 77.7829C82.6568 76.7985 81.8588 76.0005 80.8743 76.0005C79.8899 76.0005 79.0919 76.7985 79.0919 77.7829C79.0919 78.7673 79.8899 79.5653 80.8743 79.5653Z" fill="white"/>
</g>
<mask id="mask66_312_202" style="mask-type:luminance" maskUnits="userSpaceOnUse" x="0" y="0" width="120" height="120">
<path d="M60 120C93.1371 120 120 93.1371 120 60C120 26.8629 93.1371 0 60 0C26.8629 0 0 26.8629 0 60C0 93.1371 26.8629 120 60 120Z" fill="white"/>
</mask>
<g mask="url(#mask66_312_202)">
<path d="M95.1311 76.0005C94.1467 76.0005 93.3486 76.7986 93.3486 77.7829C93.3486 78.7672 94.1467 79.5653 95.1311 79.5653C96.1154 79.5653 96.9135 78.7672 96.9135 77.7829C96.9122 76.7986 96.1154 76.0005 95.1311 76.0005Z" fill="white"/>
</g>
<mask id="mask67_312_202" style="mask-type:luminance" maskUnits="userSpaceOnUse" x="0" y="0" width="120" height="120">
<path d="M60 120C93.1371 120 120 93.1371 120 60C120 26.8629 93.1371 0 60 0C26.8629 0 0 26.8629 0 60C0 93.1371 26.8629 120 60 120Z" fill="white"/>
</mask>
<g mask="url(#mask67_312_202)">
<path d="M109.387 79.5653C110.371 79.5653 111.169 78.7673 111.169 77.7829C111.169 76.7985 110.371 76.0005 109.387 76.0005C108.402 76.0005 107.604 76.7985 107.604 77.7829C107.604 78.7673 108.402 79.5653 109.387 79.5653Z" fill="white"/>
</g>
<mask id="mask68_312_202" style="mask-type:luminance" maskUnits="userSpaceOnUse" x="0" y="0" width="120" height="120">
<path d="M60 120C93.1371 120 120 93.1371 120 60C120 26.8629 93.1371 0 60 0C26.8629 0 0 26.8629 0 60C0 93.1371 26.8629 120 60 120Z" fill="white"/>
</mask>
<g mask="url(#mask68_312_202)">
<path d="M2.26253 88.0068C1.27821 88.0068 0.480103 88.8049 0.480103 89.7893C0.480103 90.7736 1.27821 91.5717 2.26253 91.5717C3.24686 91.5717 4.04495 90.7736 4.04495 89.7893C4.04495 88.8049 3.24686 88.0068 2.26253 88.0068Z" fill="white"/>
</g>
<mask id="mask69_312_202" style="mask-type:luminance" maskUnits="userSpaceOnUse" x="0" y="0" width="120" height="120">
<path d="M60 120C93.1371 120 120 93.1371 120 60C120 26.8629 93.1371 0 60 0C26.8629 0 0 26.8629 0 60C0 93.1371 26.8629 120 60 120Z" fill="white"/>
</mask>
<g mask="url(#mask69_312_202)">
<path d="M16.5194 91.5717C17.5038 91.5717 18.3018 90.7737 18.3018 89.7893C18.3018 88.8049 17.5038 88.0068 16.5194 88.0068C15.535 88.0068 14.7369 88.8049 14.7369 89.7893C14.7369 90.7737 15.535 91.5717 16.5194 91.5717Z" fill="white"/>
</g>
<mask id="mask70_312_202" style="mask-type:luminance" maskUnits="userSpaceOnUse" x="0" y="0" width="120" height="120">
<path d="M60 120C93.1371 120 120 93.1371 120 60C120 26.8629 93.1371 0 60 0C26.8629 0 0 26.8629 0 60C0 93.1371 26.8629 120 60 120Z" fill="white"/>
</mask>
<g mask="url(#mask70_312_202)">
<path d="M30.7749 91.5717C31.7593 91.5717 32.5573 90.7737 32.5573 89.7893C32.5573 88.8049 31.7593 88.0068 30.7749 88.0068C29.7905 88.0068 28.9924 88.8049 28.9924 89.7893C28.9924 90.7737 29.7905 91.5717 30.7749 91.5717Z" fill="white"/>
</g>
<mask id="mask71_312_202" style="mask-type:luminance" maskUnits="userSpaceOnUse" x="0" y="0" width="120" height="120">
<path d="M60 120C93.1371 120 120 93.1371 120 60C120 26.8629 93.1371 0 60 0C26.8629 0 0 26.8629 0 60C0 93.1371 26.8629 120 60 120Z" fill="white"/>
</mask>
<g mask="url(#mask71_312_202)">
<path d="M45.0302 88.0068C44.0459 88.0068 43.2478 88.8049 43.2478 89.7893C43.2478 90.7736 44.0459 91.5717 45.0302 91.5717C46.0146 91.5717 46.8127 90.7736 46.8127 89.7893C46.8127 88.8049 46.0146 88.0068 45.0302 88.0068Z" fill="white"/>
</g>
<mask id="mask72_312_202" style="mask-type:luminance" maskUnits="userSpaceOnUse" x="0" y="0" width="120" height="120">
<path d="M60 120C93.1371 120 120 93.1371 120 60C120 26.8629 93.1371 0 60 0C26.8629 0 0 26.8629 0 60C0 93.1371 26.8629 120 60 120Z" fill="white"/>
</mask>
<g mask="url(#mask72_312_202)">
<path d="M59.2869 91.5717C60.2714 91.5717 61.0694 90.7737 61.0694 89.7893C61.0694 88.8049 60.2714 88.0068 59.2869 88.0068C58.3025 88.0068 57.5045 88.8049 57.5045 89.7893C57.5045 90.7737 58.3025 91.5717 59.2869 91.5717Z" fill="white"/>
</g>
<mask id="mask73_312_202" style="mask-type:luminance" maskUnits="userSpaceOnUse" x="0" y="0" width="120" height="120">
<path d="M60 120C93.1371 120 120 93.1371 120 60C120 26.8629 93.1371 0 60 0C26.8629 0 0 26.8629 0 60C0 93.1371 26.8629 120 60 120Z" fill="white"/>
</mask>
<g mask="url(#mask73_312_202)">
<path d="M73.5424 88.0068C72.5581 88.0068 71.76 88.8049 71.76 89.7893C71.76 90.7736 72.5581 91.5717 73.5424 91.5717C74.5268 91.5717 75.3249 90.7736 75.3249 89.7893C75.3249 88.8049 74.5268 88.0068 73.5424 88.0068Z" fill="white"/>
</g>
<mask id="mask74_312_202" style="mask-type:luminance" maskUnits="userSpaceOnUse" x="0" y="0" width="120" height="120">
<path d="M60 120C93.1371 120 120 93.1371 120 60C120 26.8629 93.1371 0 60 0C26.8629 0 0 26.8629 0 60C0 93.1371 26.8629 120 60 120Z" fill="white"/>
</mask>
<g mask="url(#mask74_312_202)">
<path d="M87.7993 91.5717C88.7837 91.5717 89.5817 90.7737 89.5817 89.7893C89.5817 88.8049 88.7837 88.0068 87.7993 88.0068C86.8149 88.0068 86.0168 88.8049 86.0168 89.7893C86.0168 90.7737 86.8149 91.5717 87.7993 91.5717Z" fill="white"/>
</g>
<mask id="mask75_312_202" style="mask-type:luminance" maskUnits="userSpaceOnUse" x="0" y="0" width="120" height="120">
<path d="M60 120C93.1371 120 120 93.1371 120 60C120 26.8629 93.1371 0 60 0C26.8629 0 0 26.8629 0 60C0 93.1371 26.8629 120 60 120Z" fill="white"/>
</mask>
<g mask="url(#mask75_312_202)">
<path d="M102.055 88.0068C101.07 88.0068 100.272 88.8049 100.272 89.7893C100.272 90.7736 101.07 91.5717 102.055 91.5717C103.039 91.5717 103.837 90.7736 103.837 89.7893C103.837 88.8049 103.039 88.0068 102.055 88.0068Z" fill="white"/>
</g>
<mask id="mask76_312_202" style="mask-type:luminance" maskUnits="userSpaceOnUse" x="0" y="0" width="120" height="120">
<path d="M60 120C93.1371 120 120 93.1371 120 60C120 26.8629 93.1371 0 60 0C26.8629 0 0 26.8629 0 60C0 93.1371 26.8629 120 60 120Z" fill="white"/>
</mask>
<g mask="url(#mask76_312_202)">
<path d="M116.311 88.0068C115.327 88.0068 114.529 88.8049 114.529 89.7893C114.529 90.7736 115.327 91.5717 116.311 91.5717C117.296 91.5717 118.094 90.7736 118.094 89.7893C118.094 88.8049 117.296 88.0068 116.311 88.0068Z" fill="white"/>
</g>
<mask id="mask77_312_202" style="mask-type:luminance" maskUnits="userSpaceOnUse" x="0" y="0" width="120" height="120">
<path d="M60 120C93.1371 120 120 93.1371 120 60C120 26.8629 93.1371 0 60 0C26.8629 0 0 26.8629 0 60C0 93.1371 26.8629 120 60 120Z" fill="white"/>
</mask>
<g mask="url(#mask77_312_202)">
<path d="M9.59456 98.5071C8.61024 98.5071 7.81213 99.3052 7.81213 100.29C7.81213 101.274 8.61024 102.072 9.59456 102.072C10.5789 102.072 11.377 101.274 11.377 100.29C11.377 99.3052 10.5789 98.5071 9.59456 98.5071Z" fill="white"/>
</g>
<mask id="mask78_312_202" style="mask-type:luminance" maskUnits="userSpaceOnUse" x="0" y="0" width="120" height="120">
<path d="M60 120C93.1371 120 120 93.1371 120 60C120 26.8629 93.1371 0 60 0C26.8629 0 0 26.8629 0 60C0 93.1371 26.8629 120 60 120Z" fill="white"/>
</mask>
<g mask="url(#mask78_312_202)">
<path d="M23.8512 98.5071C22.8668 98.5071 22.0687 99.3052 22.0687 100.29C22.0687 101.274 22.8668 102.072 23.8512 102.072C24.8355 102.072 25.6336 101.274 25.6336 100.29C25.6323 99.3052 24.8342 98.5071 23.8512 98.5071Z" fill="white"/>
</g>
<mask id="mask79_312_202" style="mask-type:luminance" maskUnits="userSpaceOnUse" x="0" y="0" width="120" height="120">
<path d="M60 120C93.1371 120 120 93.1371 120 60C120 26.8629 93.1371 0 60 0C26.8629 0 0 26.8629 0 60C0 93.1371 26.8629 120 60 120Z" fill="white"/>
</mask>
<g mask="url(#mask79_312_202)">
<path d="M38.1066 98.5071C37.1223 98.5071 36.3242 99.3052 36.3242 100.29C36.3242 101.274 37.1223 102.072 38.1066 102.072C39.091 102.072 39.8891 101.274 39.8891 100.29C39.8891 99.3052 39.091 98.5071 38.1066 98.5071Z" fill="white"/>
</g>
<mask id="mask80_312_202" style="mask-type:luminance" maskUnits="userSpaceOnUse" x="0" y="0" width="120" height="120">
<path d="M60 120C93.1371 120 120 93.1371 120 60C120 26.8629 93.1371 0 60 0C26.8629 0 0 26.8629 0 60C0 93.1371 26.8629 120 60 120Z" fill="white"/>
</mask>
<g mask="url(#mask80_312_202)">
<path d="M52.3621 98.5071C51.3778 98.5071 50.5797 99.3052 50.5797 100.29C50.5797 101.274 51.3778 102.072 52.3621 102.072C53.3465 102.072 54.1446 101.274 54.1446 100.29C54.1446 99.3052 53.3465 98.5071 52.3621 98.5071Z" fill="white"/>
</g>
<mask id="mask81_312_202" style="mask-type:luminance" maskUnits="userSpaceOnUse" x="0" y="0" width="120" height="120">
<path d="M60 120C93.1371 120 120 93.1371 120 60C120 26.8629 93.1371 0 60 0C26.8629 0 0 26.8629 0 60C0 93.1371 26.8629 120 60 120Z" fill="white"/>
</mask>
<g mask="url(#mask81_312_202)">
<path d="M66.619 98.5071C65.6347 98.5071 64.8365 99.3052 64.8365 100.29C64.8365 101.274 65.6347 102.072 66.619 102.072C67.6033 102.072 68.4014 101.274 68.4014 100.29C68.4014 99.3052 67.6033 98.5071 66.619 98.5071Z" fill="white"/>
</g>
<mask id="mask82_312_202" style="mask-type:luminance" maskUnits="userSpaceOnUse" x="0" y="0" width="120" height="120">
<path d="M60 120C93.1371 120 120 93.1371 120 60C120 26.8629 93.1371 0 60 0C26.8629 0 0 26.8629 0 60C0 93.1371 26.8629 120 60 120Z" fill="white"/>
</mask>
<g mask="url(#mask82_312_202)">
<path d="M80.8743 98.5071C79.89 98.5071 79.0919 99.3052 79.0919 100.29C79.0919 101.274 79.89 102.072 80.8743 102.072C81.8587 102.072 82.6568 101.274 82.6568 100.29C82.6568 99.3052 81.8587 98.5071 80.8743 98.5071Z" fill="white"/>
</g>
<mask id="mask83_312_202" style="mask-type:luminance" maskUnits="userSpaceOnUse" x="0" y="0" width="120" height="120">
<path d="M60 120C93.1371 120 120 93.1371 120 60C120 26.8629 93.1371 0 60 0C26.8629 0 0 26.8629 0 60C0 93.1371 26.8629 120 60 120Z" fill="white"/>
</mask>
<g mask="url(#mask83_312_202)">
<path d="M95.1311 98.5071C94.1467 98.5071 93.3486 99.3052 93.3486 100.29C93.3486 101.274 94.1467 102.072 95.1311 102.072C96.1154 102.072 96.9135 101.274 96.9135 100.29C96.9122 99.3052 96.1154 98.5071 95.1311 98.5071Z" fill="white"/>
</g>
<mask id="mask84_312_202" style="mask-type:luminance" maskUnits="userSpaceOnUse" x="0" y="0" width="120" height="120">
<path d="M60 120C93.1371 120 120 93.1371 120 60C120 26.8629 93.1371 0 60 0C26.8629 0 0 26.8629 0 60C0 93.1371 26.8629 120 60 120Z" fill="white"/>
</mask>
<g mask="url(#mask84_312_202)">
<path d="M109.387 98.5071C108.402 98.5071 107.604 99.3052 107.604 100.29C107.604 101.274 108.402 102.072 109.387 102.072C110.371 102.072 111.169 101.274 111.169 100.29C111.169 99.3052 110.371 98.5071 109.387 98.5071Z" fill="white"/>
</g>
<mask id="mask85_312_202" style="mask-type:luminance" maskUnits="userSpaceOnUse" x="0" y="0" width="120" height="120">
<path d="M60 120C93.1371 120 120 93.1371 120 60C120 26.8629 93.1371 0 60 0C26.8629 0 0 26.8629 0 60C0 93.1371 26.8629 120 60 120Z" fill="white"/>
</mask>
<g mask="url(#mask85_312_202)">
<path d="M2.26253 108.401C1.27821 108.401 0.480103 109.199 0.480103 110.183C0.480103 111.168 1.27821 111.966 2.26253 111.966C3.24686 111.966 4.04495 111.168 4.04495 110.183C4.04495 109.199 3.24686 108.401 2.26253 108.401Z" fill="white"/>
</g>
<mask id="mask86_312_202" style="mask-type:luminance" maskUnits="userSpaceOnUse" x="0" y="0" width="120" height="120">
<path d="M60 120C93.1371 120 120 93.1371 120 60C120 26.8629 93.1371 0 60 0C26.8629 0 0 26.8629 0 60C0 93.1371 26.8629 120 60 120Z" fill="white"/>
</mask>
<g mask="url(#mask86_312_202)">
<path d="M16.5194 111.966C17.5038 111.966 18.3018 111.168 18.3018 110.183C18.3018 109.199 17.5038 108.401 16.5194 108.401C15.535 108.401 14.7369 109.199 14.7369 110.183C14.7369 111.168 15.535 111.966 16.5194 111.966Z" fill="white"/>
</g>
<mask id="mask87_312_202" style="mask-type:luminance" maskUnits="userSpaceOnUse" x="0" y="0" width="120" height="120">
<path d="M60 120C93.1371 120 120 93.1371 120 60C120 26.8629 93.1371 0 60 0C26.8629 0 0 26.8629 0 60C0 93.1371 26.8629 120 60 120Z" fill="white"/>
</mask>
<g mask="url(#mask87_312_202)">
<path d="M30.7749 111.966C31.7593 111.966 32.5573 111.168 32.5573 110.183C32.5573 109.199 31.7593 108.401 30.7749 108.401C29.7905 108.401 28.9924 109.199 28.9924 110.183C28.9924 111.168 29.7905 111.966 30.7749 111.966Z" fill="white"/>
</g>
<mask id="mask88_312_202" style="mask-type:luminance" maskUnits="userSpaceOnUse" x="0" y="0" width="120" height="120">
<path d="M60 120C93.1371 120 120 93.1371 120 60C120 26.8629 93.1371 0 60 0C26.8629 0 0 26.8629 0 60C0 93.1371 26.8629 120 60 120Z" fill="white"/>
</mask>
<g mask="url(#mask88_312_202)">
<path d="M45.0302 108.401C44.0459 108.401 43.2478 109.199 43.2478 110.183C43.2478 111.168 44.0459 111.966 45.0302 111.966C46.0146 111.966 46.8127 111.168 46.8127 110.183C46.8127 109.199 46.0146 108.401 45.0302 108.401Z" fill="white"/>
</g>
<mask id="mask89_312_202" style="mask-type:luminance" maskUnits="userSpaceOnUse" x="0" y="0" width="120" height="120">
<path d="M60 120C93.1371 120 120 93.1371 120 60C120 26.8629 93.1371 0 60 0C26.8629 0 0 26.8629 0 60C0 93.1371 26.8629 120 60 120Z" fill="white"/>
</mask>
<g mask="url(#mask89_312_202)">
<path d="M59.2869 111.966C60.2714 111.966 61.0694 111.168 61.0694 110.183C61.0694 109.199 60.2714 108.401 59.2869 108.401C58.3025 108.401 57.5045 109.199 57.5045 110.183C57.5045 111.168 58.3025 111.966 59.2869 111.966Z" fill="white"/>
</g>
<mask id="mask90_312_202" style="mask-type:luminance" maskUnits="userSpaceOnUse" x="0" y="0" width="120" height="120">
<path d="M60 120C93.1371 120 120 93.1371 120 60C120 26.8629 93.1371 0 60 0C26.8629 0 0 26.8629 0 60C0 93.1371 26.8629 120 60 120Z" fill="white"/>
</mask>
<g mask="url(#mask90_312_202)">
<path d="M73.5424 108.401C72.5581 108.401 71.76 109.199 71.76 110.183C71.76 111.168 72.5581 111.966 73.5424 111.966C74.5268 111.966 75.3249 111.168 75.3249 110.183C75.3249 109.199 74.5268 108.401 73.5424 108.401Z" fill="white"/>
</g>
<mask id="mask91_312_202" style="mask-type:luminance" maskUnits="userSpaceOnUse" x="0" y="0" width="120" height="120">
<path d="M60 120C93.1371 120 120 93.1371 120 60C120 26.8629 93.1371 0 60 0C26.8629 0 0 26.8629 0 60C0 93.1371 26.8629 120 60 120Z" fill="white"/>
</mask>
<g mask="url(#mask91_312_202)">
<path d="M87.7993 111.966C88.7837 111.966 89.5817 111.168 89.5817 110.183C89.5817 109.199 88.7837 108.401 87.7993 108.401C86.8149 108.401 86.0168 109.199 86.0168 110.183C86.0168 111.168 86.8149 111.966 87.7993 111.966Z" fill="white"/>
</g>
<mask id="mask92_312_202" style="mask-type:luminance" maskUnits="userSpaceOnUse" x="0" y="0" width="120" height="120">
<path d="M60 120C93.1371 120 120 93.1371 120 60C120 26.8629 93.1371 0 60 0C26.8629 0 0 26.8629 0 60C0 93.1371 26.8629 120 60 120Z" fill="white"/>
</mask>
<g mask="url(#mask92_312_202)">
<path d="M102.055 108.401C101.07 108.401 100.272 109.199 100.272 110.183C100.272 111.168 101.07 111.966 102.055 111.966C103.039 111.966 103.837 111.168 103.837 110.183C103.837 109.199 103.039 108.401 102.055 108.401Z" fill="white"/>
</g>
<mask id="mask93_312_202" style="mask-type:luminance" maskUnits="userSpaceOnUse" x="0" y="0" width="120" height="120">
<path d="M60 120C93.1371 120 120 93.1371 120 60C120 26.8629 93.1371 0 60 0C26.8629 0 0 26.8629 0 60C0 93.1371 26.8629 120 60 120Z" fill="white"/>
</mask>
<g mask="url(#mask93_312_202)">
<path d="M116.311 108.401C115.327 108.401 114.529 109.199 114.529 110.183C114.529 111.168 115.327 111.966 116.311 111.966C117.296 111.966 118.094 111.168 118.094 110.183C118.092 109.199 117.296 108.401 116.311 108.401Z" fill="white"/>
</g>
<mask id="mask94_312_202" style="mask-type:luminance" maskUnits="userSpaceOnUse" x="0" y="0" width="120" height="120">
<path d="M60 120C93.1371 120 120 93.1371 120 60C120 26.8629 93.1371 0 60 0C26.8629 0 0 26.8629 0 60C0 93.1371 26.8629 120 60 120Z" fill="white"/>
</mask>
<g mask="url(#mask94_312_202)">
<path d="M9.59456 118.901C8.61024 118.901 7.81213 119.699 7.81213 120.684C7.81213 121.668 8.61024 122.466 9.59456 122.466C10.5789 122.466 11.377 121.668 11.377 120.684C11.377 119.699 10.5789 118.901 9.59456 118.901Z" fill="white"/>
</g>
<mask id="mask95_312_202" style="mask-type:luminance" maskUnits="userSpaceOnUse" x="0" y="0" width="120" height="120">
<path d="M60 120C93.1371 120 120 93.1371 120 60C120 26.8629 93.1371 0 60 0C26.8629 0 0 26.8629 0 60C0 93.1371 26.8629 120 60 120Z" fill="white"/>
</mask>
<g mask="url(#mask95_312_202)">
<path d="M23.8512 118.901C22.8668 118.901 22.0687 119.699 22.0687 120.684C22.0687 121.668 22.8668 122.466 23.8512 122.466C24.8355 122.466 25.6336 121.668 25.6336 120.684C25.6323 119.699 24.8342 118.901 23.8512 118.901Z" fill="white"/>
</g>
<mask id="mask96_312_202" style="mask-type:luminance" maskUnits="userSpaceOnUse" x="0" y="0" width="120" height="120">
<path d="M60 120C93.1371 120 120 93.1371 120 60C120 26.8629 93.1371 0 60 0C26.8629 0 0 26.8629 0 60C0 93.1371 26.8629 120 60 120Z" fill="white"/>
</mask>
<g mask="url(#mask96_312_202)">
<path d="M38.1066 118.901C37.1223 118.901 36.3242 119.699 36.3242 120.684C36.3242 121.668 37.1223 122.466 38.1066 122.466C39.091 122.466 39.8891 121.668 39.8891 120.684C39.8891 119.699 39.091 118.901 38.1066 118.901Z" fill="white"/>
</g>
<mask id="mask97_312_202" style="mask-type:luminance" maskUnits="userSpaceOnUse" x="0" y="0" width="120" height="120">
<path d="M60 120C93.1371 120 120 93.1371 120 60C120 26.8629 93.1371 0 60 0C26.8629 0 0 26.8629 0 60C0 93.1371 26.8629 120 60 120Z" fill="white"/>
</mask>
<g mask="url(#mask97_312_202)">
<path d="M52.3621 118.901C51.3778 118.901 50.5797 119.699 50.5797 120.684C50.5797 121.668 51.3778 122.466 52.3621 122.466C53.3465 122.466 54.1446 121.668 54.1446 120.684C54.1446 119.699 53.3465 118.901 52.3621 118.901Z" fill="white"/>
</g>
<mask id="mask98_312_202" style="mask-type:luminance" maskUnits="userSpaceOnUse" x="0" y="0" width="120" height="120">
<path d="M60 120C93.1371 120 120 93.1371 120 60C120 26.8629 93.1371 0 60 0C26.8629 0 0 26.8629 0 60C0 93.1371 26.8629 120 60 120Z" fill="white"/>
</mask>
<g mask="url(#mask98_312_202)">
<path d="M66.619 118.901C65.6347 118.901 64.8365 119.699 64.8365 120.684C64.8365 121.668 65.6347 122.466 66.619 122.466C67.6033 122.466 68.4014 121.668 68.4014 120.684C68.4014 119.699 67.6033 118.901 66.619 118.901Z" fill="white"/>
</g>
<mask id="mask99_312_202" style="mask-type:luminance" maskUnits="userSpaceOnUse" x="0" y="0" width="120" height="120">
<path d="M60 120C93.1371 120 120 93.1371 120 60C120 26.8629 93.1371 0 60 0C26.8629 0 0 26.8629 0 60C0 93.1371 26.8629 120 60 120Z" fill="white"/>
</mask>
<g mask="url(#mask99_312_202)">
<path d="M80.8743 118.901C79.89 118.901 79.0919 119.699 79.0919 120.684C79.0919 121.668 79.89 122.466 80.8743 122.466C81.8587 122.466 82.6568 121.668 82.6568 120.684C82.6568 119.699 81.8587 118.901 80.8743 118.901Z" fill="white"/>
</g>
<mask id="mask100_312_202" style="mask-type:luminance" maskUnits="userSpaceOnUse" x="0" y="0" width="120" height="120">
<path d="M60 120C93.1371 120 120 93.1371 120 60C120 26.8629 93.1371 0 60 0C26.8629 0 0 26.8629 0 60C0 93.1371 26.8629 120 60 120Z" fill="white"/>
</mask>
<g mask="url(#mask100_312_202)">
<path d="M95.1311 118.901C94.1467 118.901 93.3486 119.699 93.3486 120.684C93.3486 121.668 94.1467 122.466 95.1311 122.466C96.1154 122.466 96.9135 121.668 96.9135 120.684C96.9122 119.699 96.1154 118.901 95.1311 118.901Z" fill="white"/>
</g>
<mask id="mask101_312_202" style="mask-type:luminance" maskUnits="userSpaceOnUse" x="0" y="0" width="120" height="120">
<path d="M60 120C93.1371 120 120 93.1371 120 60C120 26.8629 93.1371 0 60 0C26.8629 0 0 26.8629 0 60C0 93.1371 26.8629 120 60 120Z" fill="white"/>
</mask>
<g mask="url(#mask101_312_202)">
<path d="M109.387 118.901C108.402 118.901 107.604 119.699 107.604 120.684C107.604 121.668 108.402 122.466 109.387 122.466C110.371 122.466 111.169 121.668 111.169 120.684C111.169 119.699 110.371 118.901 109.387 118.901Z" fill="white"/>
</g>
</svg>
