<svg width="470" height="259" viewBox="0 0 470 259" fill="none" xmlns="http://www.w3.org/2000/svg">
<g opacity="0.2">
<path d="M25.5421 24.3655C22.7847 24.3655 20.5497 27.2035 20.5497 30.7088C20.5497 34.214 22.7847 37.0521 25.5421 37.0521C28.2995 37.0521 30.5376 34.214 30.5376 30.7088C30.5376 27.2035 28.2995 24.3655 25.5421 24.3655Z" fill="#3A4351"/>
<path d="M65.4935 24.3655C62.7362 24.3655 60.498 27.2035 60.498 30.7088C60.498 34.214 62.7331 37.0521 65.4935 37.0521C68.2509 37.0521 70.4859 34.214 70.4859 30.7088C70.4859 27.2035 68.2509 24.3655 65.4935 24.3655Z" fill="#3A4351"/>
<path d="M105.445 37.0485C108.204 37.0485 110.44 34.2085 110.44 30.7052C110.44 27.2018 108.204 24.3618 105.445 24.3618C102.686 24.3618 100.449 27.2018 100.449 30.7052C100.449 34.2085 102.686 37.0485 105.445 37.0485Z" fill="#3A4351"/>
<path d="M145.396 37.0485C148.155 37.0485 150.392 34.2085 150.392 30.7052C150.392 27.2018 148.155 24.3618 145.396 24.3618C142.637 24.3618 140.401 27.2018 140.401 30.7052C140.401 34.2085 142.637 37.0485 145.396 37.0485Z" fill="#3A4351"/>
<path d="M185.348 24.3655C182.59 24.3655 180.352 27.2035 180.352 30.7088C180.352 34.214 182.587 37.0521 185.348 37.0521C188.105 37.0521 190.34 34.214 190.34 30.7088C190.34 27.2035 188.105 24.3655 185.348 24.3655Z" fill="#3A4351"/>
<path d="M225.299 37.0485C228.058 37.0485 230.295 34.2085 230.295 30.7052C230.295 27.2018 228.058 24.3618 225.299 24.3618C222.54 24.3618 220.304 27.2018 220.304 30.7052C220.304 34.2085 222.54 37.0485 225.299 37.0485Z" fill="#3A4351"/>
<path d="M265.251 24.3655C262.493 24.3655 260.255 27.2035 260.255 30.7088C260.255 34.214 262.49 37.0521 265.251 37.0521C268.008 37.0521 270.243 34.214 270.243 30.7088C270.243 27.2035 268.008 24.3655 265.251 24.3655Z" fill="#3A4351"/>
<path d="M305.202 37.0485C307.961 37.0485 310.197 34.2085 310.197 30.7052C310.197 27.2018 307.961 24.3618 305.202 24.3618C302.443 24.3618 300.207 27.2018 300.207 30.7052C300.207 34.2085 302.443 37.0485 305.202 37.0485Z" fill="#3A4351"/>
<path d="M345.15 24.3655C342.393 24.3655 340.158 27.2035 340.158 30.7088C340.158 34.214 342.393 37.0521 345.15 37.0521C347.908 37.0521 350.146 34.214 350.146 30.7088C350.146 27.2035 347.911 24.3655 345.15 24.3655Z" fill="#3A4351"/>
<path d="M385.105 24.3655C382.347 24.3655 380.109 27.2035 380.109 30.7088C380.109 34.214 382.344 37.0521 385.105 37.0521C387.862 37.0521 390.097 34.214 390.097 30.7088C390.097 27.2035 387.862 24.3655 385.105 24.3655Z" fill="#3A4351"/>
<path d="M425.053 24.3655C422.296 24.3655 420.061 27.2035 420.061 30.7088C420.061 34.214 422.296 37.0521 425.053 37.0521C427.811 37.0521 430.049 34.214 430.049 30.7088C430.049 27.2035 427.814 24.3655 425.053 24.3655Z" fill="#3A4351"/>
<path d="M465.008 24.3655C462.25 24.3655 460.012 27.2035 460.012 30.7088C460.012 34.214 462.247 37.0521 465.008 37.0521C467.765 37.0521 470 34.214 470 30.7088C470 27.2035 467.765 24.3655 465.008 24.3655Z" fill="#3A4351"/>
<path d="M4.9955 59.5725C2.23814 59.5725 0 62.4106 0 65.9159C0 69.4211 2.2351 72.2553 4.9955 72.2553C7.75287 72.2553 9.98786 69.4172 9.98786 65.9159C9.98786 62.4145 7.75287 59.5725 4.9955 59.5725Z" fill="#3A4351"/>
<path d="M44.9477 59.5725C42.1903 59.5725 39.9522 62.4106 39.9522 65.9159C39.9522 69.4211 42.1873 72.2553 44.9477 72.2553C47.705 72.2553 49.94 69.4172 49.94 65.9159C49.94 62.4145 47.705 59.5725 44.9477 59.5725Z" fill="#3A4351"/>
<path d="M84.8952 59.5725C82.1379 59.5725 79.9029 62.4106 79.9029 65.9159C79.9029 69.4211 82.1379 72.2553 84.8952 72.2553C87.6526 72.2553 89.8907 69.4172 89.8907 65.9159C89.8907 62.4145 87.6556 59.5725 84.8952 59.5725Z" fill="#3A4351"/>
<path d="M124.846 59.5725C122.089 59.5725 119.854 62.4106 119.854 65.9159C119.854 69.4211 122.089 72.2553 124.846 72.2553C127.603 72.2553 129.841 69.4172 129.841 65.9159C129.841 62.4145 127.606 59.5725 124.846 59.5725Z" fill="#3A4351"/>
<path d="M164.798 59.5725C162.041 59.5725 159.803 62.4106 159.803 65.9159C159.803 69.4211 162.038 72.2553 164.798 72.2553C167.555 72.2553 169.794 69.4172 169.794 65.9159C169.794 62.4145 167.559 59.5725 164.798 59.5725Z" fill="#3A4351"/>
<path d="M204.75 59.5725C201.993 59.5725 199.758 62.4106 199.758 65.9159C199.758 69.4211 201.993 72.2553 204.75 72.2553C207.508 72.2553 209.746 69.4172 209.746 65.9159C209.746 62.4145 207.511 59.5725 204.75 59.5725Z" fill="#3A4351"/>
<path d="M244.701 59.5725C241.944 59.5725 239.709 62.4106 239.709 65.9159C239.709 69.4211 241.944 72.2553 244.701 72.2553C247.458 72.2553 249.696 69.4172 249.696 65.9159C249.696 62.4145 247.461 59.5725 244.701 59.5725Z" fill="#3A4351"/>
<path d="M284.652 59.5725C281.895 59.5725 279.657 62.4106 279.657 65.9159C279.657 69.4211 281.892 72.2553 284.652 72.2553C287.41 72.2553 289.648 69.4172 289.648 65.9159C289.648 62.4145 287.413 59.5725 284.652 59.5725Z" fill="#3A4351"/>
<path d="M324.604 59.5725C321.846 59.5725 319.611 62.4106 319.611 65.9159C319.611 69.4211 321.846 72.2553 324.604 72.2553C327.361 72.2553 329.596 69.4172 329.596 65.9159C329.596 62.4145 327.364 59.5725 324.604 59.5725Z" fill="#3A4351"/>
<path d="M364.555 59.5725C361.798 59.5725 359.563 62.4106 359.563 65.9159C359.563 69.4211 361.798 72.2553 364.555 72.2553C367.313 72.2553 369.551 69.4172 369.551 65.9159C369.551 62.4145 367.313 59.5725 364.555 59.5725Z" fill="#3A4351"/>
<path d="M404.507 59.5725C401.749 59.5725 399.511 62.4106 399.511 65.9159C399.511 69.4211 401.746 72.2553 404.507 72.2553C407.264 72.2553 409.502 69.4172 409.502 65.9159C409.502 62.4145 407.264 59.5725 404.507 59.5725Z" fill="#3A4351"/>
<path d="M444.458 59.5725C441.701 59.5725 439.466 62.4106 439.466 65.9159C439.466 69.4211 441.701 72.2553 444.458 72.2553C447.216 72.2553 449.45 69.4172 449.45 65.9159C449.45 62.4145 447.216 59.5725 444.458 59.5725Z" fill="#3A4351"/>
<path d="M25.5421 96.9385C22.7847 96.9385 20.5497 99.7766 20.5497 103.282C20.5497 106.783 22.7847 109.625 25.5421 109.625C28.2995 109.625 30.5376 106.787 30.5376 103.282C30.5346 99.7766 28.2995 96.9385 25.5421 96.9385Z" fill="#3A4351"/>
<path d="M65.4935 96.9385C62.7362 96.9385 60.498 99.7766 60.498 103.282C60.498 106.783 62.7331 109.625 65.4935 109.625C68.2509 109.625 70.4859 106.787 70.4859 103.282C70.4859 99.7766 68.2509 96.9385 65.4935 96.9385Z" fill="#3A4351"/>
<path d="M105.445 109.621C108.204 109.621 110.44 106.781 110.44 103.278C110.44 99.7745 108.204 96.9346 105.445 96.9346C102.686 96.9346 100.449 99.7745 100.449 103.278C100.449 106.781 102.686 109.621 105.445 109.621Z" fill="#3A4351"/>
<path d="M145.396 109.621C148.155 109.621 150.392 106.781 150.392 103.278C150.392 99.7745 148.155 96.9346 145.396 96.9346C142.637 96.9346 140.401 99.7745 140.401 103.278C140.401 106.781 142.637 109.621 145.396 109.621Z" fill="#3A4351"/>
<path d="M185.348 96.9385C182.59 96.9385 180.352 99.7766 180.352 103.282C180.352 106.783 182.587 109.625 185.348 109.625C188.105 109.625 190.34 106.787 190.34 103.282C190.34 99.7766 188.105 96.9385 185.348 96.9385Z" fill="#3A4351"/>
<path d="M225.299 109.621C228.058 109.621 230.295 106.781 230.295 103.278C230.295 99.7745 228.058 96.9346 225.299 96.9346C222.54 96.9346 220.304 99.7745 220.304 103.278C220.304 106.781 222.54 109.621 225.299 109.621Z" fill="#3A4351"/>
<path d="M265.251 96.9385C262.493 96.9385 260.255 99.7766 260.255 103.282C260.255 106.783 262.49 109.625 265.251 109.625C268.008 109.625 270.243 106.787 270.243 103.282C270.243 99.7766 268.008 96.9385 265.251 96.9385Z" fill="#3A4351"/>
<path d="M305.202 109.621C307.961 109.621 310.197 106.781 310.197 103.278C310.197 99.7745 307.961 96.9346 305.202 96.9346C302.443 96.9346 300.207 99.7745 300.207 103.278C300.207 106.781 302.443 109.621 305.202 109.621Z" fill="#3A4351"/>
<path d="M345.15 96.9385C342.393 96.9385 340.158 99.7766 340.158 103.282C340.158 106.783 342.393 109.625 345.15 109.625C347.908 109.625 350.146 106.787 350.146 103.282C350.146 99.7766 347.911 96.9385 345.15 96.9385Z" fill="#3A4351"/>
<path d="M385.105 96.9385C382.347 96.9385 380.109 99.7766 380.109 103.282C380.109 106.783 382.344 109.625 385.105 109.625C387.862 109.625 390.097 106.787 390.097 103.282C390.097 99.7766 387.862 96.9385 385.105 96.9385Z" fill="#3A4351"/>
<path d="M425.053 96.9385C422.296 96.9385 420.061 99.7766 420.061 103.282C420.061 106.783 422.296 109.625 425.053 109.625C427.811 109.625 430.049 106.787 430.049 103.282C430.049 99.7766 427.814 96.9385 425.053 96.9385Z" fill="#3A4351"/>
<path d="M465.008 96.9385C462.25 96.9385 460.012 99.7766 460.012 103.282C460.012 106.783 462.247 109.625 465.008 109.625C467.765 109.625 470 106.787 470 103.282C470 99.7766 467.765 96.9385 465.008 96.9385Z" fill="#3A4351"/>
<path d="M4.9955 136.375C2.23814 136.375 0 139.213 0 142.718C0 146.22 2.2351 149.062 4.9955 149.062C7.75287 149.062 9.98786 146.224 9.98786 142.718C9.98786 139.213 7.75287 136.375 4.9955 136.375Z" fill="#3A4351"/>
<path d="M44.9477 136.375C42.1903 136.375 39.9522 139.213 39.9522 142.718C39.9522 146.22 42.1873 149.062 44.9477 149.062C47.705 149.062 49.94 146.224 49.94 142.718C49.94 139.213 47.705 136.375 44.9477 136.375Z" fill="#3A4351"/>
<path d="M84.8952 136.375C82.1379 136.375 79.9029 139.213 79.9029 142.718C79.9029 146.22 82.1379 149.062 84.8952 149.062C87.6526 149.062 89.8907 146.224 89.8907 142.718C89.8907 139.213 87.6556 136.375 84.8952 136.375Z" fill="#3A4351"/>
<path d="M124.846 136.375C122.089 136.375 119.854 139.213 119.854 142.718C119.854 146.22 122.089 149.062 124.846 149.062C127.603 149.062 129.841 146.224 129.841 142.718C129.841 139.213 127.606 136.375 124.846 136.375Z" fill="#3A4351"/>
<path d="M164.798 136.375C162.041 136.375 159.803 139.213 159.803 142.718C159.803 146.22 162.038 149.062 164.798 149.062C167.555 149.062 169.794 146.224 169.794 142.718C169.794 139.213 167.559 136.375 164.798 136.375Z" fill="#3A4351"/>
<path d="M204.75 149.058C207.508 149.058 209.745 146.218 209.745 142.715C209.745 139.212 207.508 136.372 204.75 136.372C201.991 136.372 199.754 139.212 199.754 142.715C199.754 146.218 201.991 149.058 204.75 149.058Z" fill="#3A4351"/>
<path d="M244.701 149.058C247.46 149.058 249.696 146.218 249.696 142.715C249.696 139.212 247.46 136.372 244.701 136.372C241.942 136.372 239.705 139.212 239.705 142.715C239.705 146.218 241.942 149.058 244.701 149.058Z" fill="#3A4351"/>
<path d="M284.652 136.375C281.895 136.375 279.657 139.213 279.657 142.718C279.657 146.22 281.892 149.062 284.652 149.062C287.41 149.062 289.648 146.224 289.648 142.718C289.648 139.213 287.413 136.375 284.652 136.375Z" fill="#3A4351"/>
<path d="M324.604 136.375C321.846 136.375 319.611 139.213 319.611 142.718C319.611 146.22 321.846 149.062 324.604 149.062C327.361 149.062 329.596 146.224 329.596 142.718C329.599 139.213 327.364 136.375 324.604 136.375Z" fill="#3A4351"/>
<path d="M364.555 136.375C361.798 136.375 359.563 139.213 359.563 142.718C359.563 146.22 361.798 149.062 364.555 149.062C367.313 149.062 369.551 146.224 369.551 142.718C369.551 139.213 367.313 136.375 364.555 136.375Z" fill="#3A4351"/>
<path d="M404.507 136.375C401.749 136.375 399.511 139.213 399.511 142.718C399.511 146.22 401.746 149.062 404.507 149.062C407.264 149.062 409.502 146.224 409.502 142.718C409.502 139.213 407.264 136.375 404.507 136.375Z" fill="#3A4351"/>
<path d="M444.458 136.375C441.701 136.375 439.466 139.213 439.466 142.718C439.466 146.22 441.701 149.062 444.458 149.062C447.216 149.062 449.451 146.224 449.451 142.718C449.454 139.213 447.216 136.375 444.458 136.375Z" fill="#3A4351"/>
<path d="M25.5421 173.741C22.7847 173.741 20.5497 176.579 20.5497 180.08C20.5497 183.582 22.7847 186.424 25.5421 186.424C28.2995 186.424 30.5376 183.586 30.5376 180.08C30.5346 176.579 28.2995 173.741 25.5421 173.741Z" fill="#3A4351"/>
<path d="M65.4935 173.741C62.7362 173.741 60.498 176.579 60.498 180.08C60.498 183.582 62.7331 186.424 65.4935 186.424C68.2509 186.424 70.4859 183.586 70.4859 180.08C70.4859 176.579 68.2509 173.741 65.4935 173.741Z" fill="#3A4351"/>
<path d="M105.445 173.741C102.688 173.741 100.449 176.579 100.449 180.08C100.449 183.582 102.685 186.424 105.445 186.424C108.202 186.424 110.437 183.586 110.437 180.08C110.437 176.579 108.202 173.741 105.445 173.741Z" fill="#3A4351"/>
<path d="M145.396 173.741C142.639 173.741 140.401 176.579 140.401 180.08C140.401 183.582 142.636 186.424 145.396 186.424C148.154 186.424 150.389 183.586 150.389 180.08C150.389 176.579 148.154 173.741 145.396 173.741Z" fill="#3A4351"/>
<path d="M185.348 173.741C182.59 173.741 180.352 176.579 180.352 180.08C180.352 183.582 182.587 186.424 185.348 186.424C188.105 186.424 190.34 183.586 190.34 180.08C190.34 176.579 188.105 173.741 185.348 173.741Z" fill="#3A4351"/>
<path d="M225.299 173.741C222.542 173.741 220.304 176.579 220.304 180.08C220.304 183.582 222.539 186.424 225.299 186.424C228.057 186.424 230.292 183.586 230.292 180.08C230.292 176.579 228.057 173.741 225.299 173.741Z" fill="#3A4351"/>
<path d="M265.251 173.741C262.493 173.741 260.255 176.579 260.255 180.08C260.255 183.582 262.49 186.424 265.251 186.424C268.008 186.424 270.243 183.586 270.243 180.08C270.243 176.579 268.008 173.741 265.251 173.741Z" fill="#3A4351"/>
<path d="M305.202 173.741C302.445 173.741 300.207 176.579 300.207 180.08C300.207 183.582 302.442 186.424 305.202 186.424C307.959 186.424 310.194 183.586 310.194 180.08C310.194 176.579 307.959 173.741 305.202 173.741Z" fill="#3A4351"/>
<path d="M345.15 173.741C342.393 173.741 340.158 176.579 340.158 180.08C340.158 183.582 342.393 186.424 345.15 186.424C347.908 186.424 350.146 183.586 350.146 180.08C350.146 176.579 347.911 173.741 345.15 173.741Z" fill="#3A4351"/>
<path d="M385.105 173.741C382.347 173.741 380.109 176.579 380.109 180.08C380.109 183.582 382.344 186.424 385.105 186.424C387.862 186.424 390.097 183.586 390.097 180.08C390.097 176.579 387.862 173.741 385.105 173.741Z" fill="#3A4351"/>
<path d="M425.053 173.741C422.296 173.741 420.061 176.579 420.061 180.08C420.061 183.582 422.296 186.424 425.053 186.424C427.811 186.424 430.049 183.586 430.049 180.08C430.049 176.579 427.814 173.741 425.053 173.741Z" fill="#3A4351"/>
<path d="M465.008 173.741C462.25 173.741 460.012 176.579 460.012 180.08C460.012 183.582 462.247 186.424 465.008 186.424C467.765 186.424 470 183.586 470 180.08C470 176.579 467.765 173.741 465.008 173.741Z" fill="#3A4351"/>
<path d="M4.9955 208.947C2.23814 208.947 0 211.785 0 215.29C0 218.791 2.2351 221.63 4.9955 221.63C7.75287 221.63 9.98786 218.791 9.98786 215.29C9.98786 211.789 7.75287 208.947 4.9955 208.947Z" fill="#3A4351"/>
<path d="M44.9477 208.948C42.1903 208.948 39.9522 211.786 39.9522 215.291C39.9522 218.792 42.1873 221.63 44.9477 221.63C47.705 221.63 49.94 218.792 49.94 215.291C49.94 211.789 47.705 208.948 44.9477 208.948Z" fill="#3A4351"/>
<path d="M84.8952 208.947C82.1379 208.947 79.9029 211.785 79.9029 215.29C79.9029 218.791 82.1379 221.63 84.8952 221.63C87.6526 221.63 89.8907 218.791 89.8907 215.29C89.8907 211.789 87.6556 208.947 84.8952 208.947Z" fill="#3A4351"/>
<path d="M124.846 208.948C122.089 208.948 119.854 211.786 119.854 215.291C119.854 218.792 122.089 221.63 124.846 221.63C127.603 221.63 129.841 218.792 129.841 215.291C129.841 211.789 127.606 208.948 124.846 208.948Z" fill="#3A4351"/>
<path d="M164.798 208.947C162.041 208.947 159.803 211.785 159.803 215.29C159.803 218.791 162.038 221.63 164.798 221.63C167.555 221.63 169.794 218.791 169.794 215.29C169.794 211.789 167.559 208.947 164.798 208.947Z" fill="#3A4351"/>
<path d="M204.75 208.948C201.993 208.948 199.758 211.786 199.758 215.291C199.758 218.792 201.993 221.63 204.75 221.63C207.508 221.63 209.746 218.792 209.746 215.291C209.746 211.789 207.511 208.948 204.75 208.948Z" fill="#3A4351"/>
<path d="M244.701 208.947C241.944 208.947 239.709 211.785 239.709 215.29C239.709 218.791 241.944 221.63 244.701 221.63C247.458 221.63 249.696 218.791 249.696 215.29C249.696 211.789 247.461 208.947 244.701 208.947Z" fill="#3A4351"/>
<path d="M284.652 208.947C281.895 208.947 279.657 211.785 279.657 215.29C279.657 218.791 281.892 221.63 284.652 221.63C287.41 221.63 289.648 218.791 289.648 215.29C289.648 211.789 287.413 208.947 284.652 208.947Z" fill="#3A4351"/>
<path d="M324.604 208.947C321.846 208.947 319.611 211.785 319.611 215.29C319.611 218.791 321.846 221.63 324.604 221.63C327.361 221.63 329.596 218.791 329.596 215.29C329.599 211.789 327.364 208.947 324.604 208.947Z" fill="#3A4351"/>
<path d="M364.555 208.947C361.798 208.947 359.563 211.785 359.563 215.29C359.563 218.791 361.798 221.63 364.555 221.63C367.313 221.63 369.551 218.791 369.551 215.29C369.551 211.789 367.313 208.947 364.555 208.947Z" fill="#3A4351"/>
<path d="M404.507 208.947C401.749 208.947 399.511 211.785 399.511 215.29C399.511 218.791 401.746 221.63 404.507 221.63C407.264 221.63 409.502 218.791 409.502 215.29C409.502 211.789 407.264 208.947 404.507 208.947Z" fill="#3A4351"/>
<path d="M444.458 208.947C441.701 208.947 439.466 211.785 439.466 215.29C439.466 218.791 441.701 221.63 444.458 221.63C447.216 221.63 449.451 218.791 449.451 215.29C449.454 211.789 447.216 208.947 444.458 208.947Z" fill="#3A4351"/>
<path d="M25.5421 246.313C22.7847 246.313 20.5497 249.152 20.5497 252.657C20.5497 256.162 22.7847 259 25.5421 259C28.2995 259 30.5376 256.162 30.5376 252.657C30.5376 249.152 28.2995 246.313 25.5421 246.313Z" fill="#3A4351"/>
<path d="M65.4935 246.313C62.7362 246.313 60.498 249.152 60.498 252.657C60.498 256.162 62.7331 259 65.4935 259C68.2509 259 70.4859 256.162 70.4859 252.657C70.4859 249.152 68.2509 246.313 65.4935 246.313Z" fill="#3A4351"/>
<path d="M105.445 258.996C108.204 258.996 110.44 256.156 110.44 252.653C110.44 249.15 108.204 246.31 105.445 246.31C102.686 246.31 100.449 249.15 100.449 252.653C100.449 256.156 102.686 258.996 105.445 258.996Z" fill="#3A4351"/>
<path d="M145.396 258.996C148.155 258.996 150.392 256.156 150.392 252.653C150.392 249.15 148.155 246.31 145.396 246.31C142.637 246.31 140.401 249.15 140.401 252.653C140.401 256.156 142.637 258.996 145.396 258.996Z" fill="#3A4351"/>
<path d="M185.348 246.313C182.59 246.313 180.352 249.152 180.352 252.657C180.352 256.162 182.587 259 185.348 259C188.105 259 190.34 256.162 190.34 252.657C190.34 249.152 188.105 246.313 185.348 246.313Z" fill="#3A4351"/>
<path d="M225.299 258.996C228.058 258.996 230.295 256.156 230.295 252.653C230.295 249.15 228.058 246.31 225.299 246.31C222.54 246.31 220.304 249.15 220.304 252.653C220.304 256.156 222.54 258.996 225.299 258.996Z" fill="#3A4351"/>
<path d="M265.251 246.313C262.493 246.313 260.255 249.152 260.255 252.657C260.255 256.162 262.49 259 265.251 259C268.008 259 270.243 256.162 270.243 252.657C270.243 249.152 268.008 246.313 265.251 246.313Z" fill="#3A4351"/>
<path d="M305.202 258.996C307.961 258.996 310.197 256.156 310.197 252.653C310.197 249.15 307.961 246.31 305.202 246.31C302.443 246.31 300.207 249.15 300.207 252.653C300.207 256.156 302.443 258.996 305.202 258.996Z" fill="#3A4351"/>
<path d="M345.15 246.313C342.393 246.313 340.158 249.152 340.158 252.657C340.158 256.162 342.393 259 345.15 259C347.908 259 350.146 256.162 350.146 252.657C350.146 249.152 347.911 246.313 345.15 246.313Z" fill="#3A4351"/>
<path d="M385.105 246.313C382.347 246.313 380.109 249.152 380.109 252.657C380.109 256.162 382.344 259 385.105 259C387.862 259 390.097 256.162 390.097 252.657C390.097 249.152 387.862 246.313 385.105 246.313Z" fill="#3A4351"/>
<path d="M425.053 246.313C422.296 246.313 420.061 249.152 420.061 252.657C420.061 256.162 422.296 259 425.053 259C427.811 259 430.049 256.162 430.049 252.657C430.049 249.152 427.814 246.313 425.053 246.313Z" fill="#3A4351"/>
<path d="M465.008 246.313C462.25 246.313 460.012 249.152 460.012 252.657C460.012 256.162 462.247 259 465.008 259C467.765 259 470 256.162 470 252.657C470 249.152 467.765 246.313 465.008 246.313Z" fill="#3A4351"/>
</g>
</svg>
