<svg width="228" height="51" viewBox="0 0 228 51" fill="none" xmlns="http://www.w3.org/2000/svg">
<path d="M67.2642 22V7.45455H70.3395V13.456H76.5824V7.45455H79.6506V22H76.5824V15.9915H70.3395V22H67.2642ZM84.8139 7.45455L88.3295 18.5057H88.4645L91.9872 7.45455H95.3963L90.3821 22H86.419L81.3977 7.45455H84.8139ZM97.147 22V7.45455H106.948V9.99006H100.222V13.456H106.444V15.9915H100.222V19.4645H106.977V22H97.147ZM113.356 22.1776C112.528 22.1776 111.777 21.9645 111.105 21.5384C110.437 21.1075 109.907 20.4754 109.514 19.642C109.126 18.804 108.931 17.7765 108.931 16.5597C108.931 15.3097 109.133 14.2704 109.535 13.4418C109.938 12.6084 110.473 11.9858 111.14 11.5739C111.813 11.1572 112.549 10.9489 113.349 10.9489C113.96 10.9489 114.469 11.053 114.876 11.2614C115.288 11.465 115.619 11.7206 115.87 12.0284C116.126 12.3314 116.32 12.6297 116.453 12.9233H116.545V7.45455H119.564V22H116.581V20.2528H116.453C116.311 20.5559 116.109 20.8565 115.849 21.1548C115.593 21.4484 115.26 21.6922 114.848 21.8864C114.44 22.0805 113.943 22.1776 113.356 22.1776ZM114.315 19.7699C114.803 19.7699 115.215 19.6373 115.551 19.3722C115.892 19.1023 116.152 18.7259 116.332 18.2429C116.517 17.7599 116.609 17.1941 116.609 16.5455C116.609 15.8968 116.519 15.3333 116.339 14.8551C116.159 14.3769 115.899 14.0076 115.558 13.7472C115.217 13.4867 114.803 13.3565 114.315 13.3565C113.818 13.3565 113.399 13.4915 113.058 13.7614C112.717 14.0312 112.459 14.4053 112.284 14.8835C112.109 15.3617 112.021 15.9157 112.021 16.5455C112.021 17.1799 112.109 17.741 112.284 18.2287C112.464 18.7116 112.722 19.0904 113.058 19.3651C113.399 19.6349 113.818 19.7699 114.315 19.7699ZM129.047 17.3551V11.0909H132.072V22H129.168V20.0185H129.054C128.808 20.6577 128.398 21.1714 127.825 21.5597C127.257 21.9479 126.563 22.142 125.744 22.142C125.015 22.142 124.374 21.9763 123.82 21.6449C123.266 21.3134 122.832 20.8423 122.52 20.2315C122.212 19.6207 122.056 18.8892 122.051 18.0369V11.0909H125.077V17.4972C125.081 18.1411 125.254 18.6501 125.595 19.0241C125.936 19.3982 126.393 19.5852 126.966 19.5852C127.33 19.5852 127.671 19.5024 127.989 19.3366C128.306 19.1662 128.562 18.9152 128.756 18.5838C128.955 18.2524 129.052 17.8428 129.047 17.3551ZM139.422 22.2131C138.304 22.2131 137.343 21.9763 136.538 21.5028C135.738 21.0246 135.122 20.3617 134.691 19.5142C134.265 18.6667 134.052 17.6913 134.052 16.5881C134.052 15.4706 134.268 14.4905 134.699 13.6477C135.134 12.8002 135.752 12.1397 136.552 11.6662C137.352 11.188 138.304 10.9489 139.407 10.9489C140.359 10.9489 141.192 11.1217 141.907 11.4673C142.622 11.813 143.188 12.2983 143.605 12.9233C144.021 13.5483 144.251 14.2822 144.294 15.125H141.439C141.358 14.5805 141.145 14.1425 140.799 13.8111C140.458 13.4749 140.011 13.3068 139.457 13.3068C138.988 13.3068 138.579 13.4347 138.228 13.6903C137.883 13.9413 137.613 14.3082 137.419 14.7912C137.225 15.2741 137.127 15.8589 137.127 16.5455C137.127 17.2415 137.222 17.8333 137.412 18.321C137.606 18.8087 137.878 19.1804 138.228 19.4361C138.579 19.6918 138.988 19.8196 139.457 19.8196C139.803 19.8196 140.113 19.7486 140.387 19.6065C140.667 19.4645 140.896 19.2585 141.076 18.9886C141.261 18.714 141.382 18.3849 141.439 18.0014H144.294C144.246 18.8348 144.019 19.5687 143.612 20.2031C143.209 20.8329 142.653 21.3253 141.943 21.6804C141.233 22.0355 140.392 22.2131 139.422 22.2131ZM149.342 22.206C148.646 22.206 148.025 22.0852 147.481 21.8438C146.936 21.5975 146.505 21.2353 146.188 20.7571C145.876 20.2741 145.719 19.6728 145.719 18.9531C145.719 18.3471 145.831 17.8381 146.053 17.4261C146.276 17.0142 146.579 16.6828 146.962 16.4318C147.346 16.1809 147.781 15.9915 148.269 15.8636C148.762 15.7358 149.278 15.6458 149.817 15.5938C150.452 15.5275 150.963 15.4659 151.352 15.4091C151.74 15.3475 152.022 15.2576 152.197 15.1392C152.372 15.0208 152.46 14.8456 152.46 14.6136V14.571C152.46 14.1212 152.317 13.7732 152.033 13.527C151.754 13.2808 151.356 13.1577 150.84 13.1577C150.296 13.1577 149.862 13.2784 149.54 13.5199C149.219 13.7566 149.005 14.0549 148.901 14.4148L146.103 14.1875C146.245 13.5246 146.524 12.9517 146.941 12.4688C147.358 11.9811 147.895 11.607 148.553 11.3466C149.216 11.0814 149.983 10.9489 150.854 10.9489C151.46 10.9489 152.04 11.0199 152.594 11.1619C153.153 11.304 153.648 11.5241 154.079 11.8224C154.514 12.1207 154.858 12.5043 155.109 12.973C155.36 13.437 155.485 13.9934 155.485 14.642V22H152.616V20.4872H152.531C152.355 20.8281 152.121 21.1288 151.827 21.3892C151.534 21.6449 151.181 21.8461 150.769 21.9929C150.357 22.1349 149.881 22.206 149.342 22.206ZM150.208 20.1179C150.653 20.1179 151.046 20.0303 151.387 19.8551C151.728 19.6752 151.996 19.4337 152.19 19.1307C152.384 18.8277 152.481 18.4844 152.481 18.1009V16.9432C152.386 17.0047 152.256 17.0616 152.09 17.1136C151.929 17.161 151.747 17.206 151.543 17.2486C151.34 17.2865 151.136 17.322 150.933 17.3551C150.729 17.3835 150.544 17.4096 150.379 17.4332C150.023 17.4853 149.713 17.5682 149.448 17.6818C149.183 17.7955 148.977 17.9493 148.83 18.1435C148.683 18.3329 148.61 18.5696 148.61 18.8537C148.61 19.2656 148.759 19.5805 149.058 19.7983C149.361 20.0114 149.744 20.1179 150.208 20.1179ZM163.635 11.0909V13.3636H157.065V11.0909H163.635ZM158.557 8.47727H161.582V18.6477C161.582 18.9271 161.625 19.1449 161.71 19.3011C161.795 19.4527 161.914 19.5592 162.065 19.6207C162.222 19.6823 162.402 19.7131 162.605 19.7131C162.747 19.7131 162.889 19.7012 163.031 19.6776C163.173 19.6491 163.282 19.6278 163.358 19.6136L163.834 21.8651C163.682 21.9124 163.469 21.9669 163.195 22.0284C162.92 22.0947 162.586 22.1349 162.193 22.1491C161.464 22.1776 160.825 22.0805 160.276 21.858C159.731 21.6354 159.307 21.2898 159.004 20.821C158.701 20.3523 158.552 19.7604 158.557 19.0455V8.47727ZM165.606 22V11.0909H168.631V22H165.606ZM167.126 9.68466C166.676 9.68466 166.29 9.53551 165.968 9.23722C165.651 8.93419 165.492 8.57197 165.492 8.15057C165.492 7.7339 165.651 7.37642 165.968 7.07812C166.29 6.77509 166.676 6.62358 167.126 6.62358C167.576 6.62358 167.959 6.77509 168.276 7.07812C168.598 7.37642 168.759 7.7339 168.759 8.15057C168.759 8.57197 168.598 8.93419 168.276 9.23722C167.959 9.53551 167.576 9.68466 167.126 9.68466ZM175.984 22.2131C174.881 22.2131 173.927 21.9787 173.122 21.5099C172.322 21.0365 171.704 20.3783 171.268 19.5355C170.833 18.688 170.615 17.7055 170.615 16.5881C170.615 15.4612 170.833 14.4763 171.268 13.6335C171.704 12.786 172.322 12.1278 173.122 11.6591C173.927 11.1856 174.881 10.9489 175.984 10.9489C177.087 10.9489 178.039 11.1856 178.839 11.6591C179.644 12.1278 180.264 12.786 180.7 13.6335C181.136 14.4763 181.353 15.4612 181.353 16.5881C181.353 17.7055 181.136 18.688 180.7 19.5355C180.264 20.3783 179.644 21.0365 178.839 21.5099C178.039 21.9787 177.087 22.2131 175.984 22.2131ZM175.998 19.8693C176.5 19.8693 176.919 19.7273 177.255 19.4432C177.592 19.1544 177.845 18.7614 178.015 18.2642C178.19 17.767 178.278 17.2012 178.278 16.5668C178.278 15.9323 178.19 15.3665 178.015 14.8693C177.845 14.3722 177.592 13.9792 177.255 13.6903C176.919 13.4015 176.5 13.2571 175.998 13.2571C175.492 13.2571 175.065 13.4015 174.72 13.6903C174.379 13.9792 174.121 14.3722 173.946 14.8693C173.775 15.3665 173.69 15.9323 173.69 16.5668C173.69 17.2012 173.775 17.767 173.946 18.2642C174.121 18.7614 174.379 19.1544 174.72 19.4432C175.065 19.7273 175.492 19.8693 175.998 19.8693ZM186.346 15.6932V22H183.321V11.0909H186.204V13.0156H186.332C186.574 12.3812 186.978 11.8793 187.547 11.5099C188.115 11.1359 188.804 10.9489 189.613 10.9489C190.371 10.9489 191.031 11.1146 191.595 11.446C192.158 11.7775 192.596 12.2509 192.909 12.8665C193.221 13.4773 193.377 14.2064 193.377 15.054V22H190.352V15.5938C190.357 14.9261 190.186 14.4053 189.841 14.0312C189.495 13.6525 189.019 13.4631 188.413 13.4631C188.006 13.4631 187.646 13.5507 187.333 13.7259C187.026 13.901 186.784 14.1567 186.609 14.4929C186.439 14.8243 186.351 15.2244 186.346 15.6932Z" fill="white"/>
<path d="M73.7188 36C73.7188 36.8437 73.5664 37.5729 73.2617 38.1875C72.957 38.8021 72.5391 39.276 72.0078 39.6094C71.4766 39.9427 70.8698 40.1094 70.1875 40.1094C69.5052 40.1094 68.8984 39.9427 68.3672 39.6094C67.8359 39.276 67.418 38.8021 67.1133 38.1875C66.8086 37.5729 66.6563 36.8437 66.6563 36C66.6563 35.1562 66.8086 34.4271 67.1133 33.8125C67.418 33.1979 67.8359 32.724 68.3672 32.3906C68.8984 32.0573 69.5052 31.8906 70.1875 31.8906C70.8698 31.8906 71.4766 32.0573 72.0078 32.3906C72.5391 32.724 72.957 33.1979 73.2617 33.8125C73.5664 34.4271 73.7188 35.1562 73.7188 36ZM72.7813 36C72.7813 35.3073 72.6654 34.7227 72.4336 34.2461C72.2044 33.7695 71.8932 33.4089 71.5 33.1641C71.1094 32.9193 70.6719 32.7969 70.1875 32.7969C69.7031 32.7969 69.2643 32.9193 68.8711 33.1641C68.4805 33.4089 68.1693 33.7695 67.9375 34.2461C67.7083 34.7227 67.5938 35.3073 67.5938 36C67.5938 36.6927 67.7083 37.2773 67.9375 37.7539C68.1693 38.2305 68.4805 38.5911 68.8711 38.8359C69.2643 39.0807 69.7031 39.2031 70.1875 39.2031C70.6719 39.2031 71.1094 39.0807 71.5 38.8359C71.8932 38.5911 72.2044 38.2305 72.4336 37.7539C72.6654 37.2773 72.7813 36.6927 72.7813 36ZM76.1445 36.3906V40H75.2227V34H76.1133V34.9375H76.1914C76.332 34.6328 76.5456 34.388 76.832 34.2031C77.1185 34.0156 77.4883 33.9219 77.9414 33.9219C78.3477 33.9219 78.7031 34.0052 79.0078 34.1719C79.3125 34.3359 79.5495 34.5859 79.7188 34.9219C79.888 35.2552 79.9727 35.6771 79.9727 36.1875V40H79.0508V36.25C79.0508 35.7786 78.9284 35.4115 78.6836 35.1484C78.4388 34.8828 78.1029 34.75 77.6758 34.75C77.3815 34.75 77.1185 34.8138 76.8867 34.9414C76.6576 35.069 76.4766 35.2552 76.3438 35.5C76.2109 35.7448 76.1445 36.0417 76.1445 36.3906ZM82.5791 32V40H81.6572V32H82.5791ZM84.2676 40V34H85.1895V40H84.2676ZM84.7363 33C84.5566 33 84.4017 32.9388 84.2715 32.8164C84.1439 32.694 84.0801 32.5469 84.0801 32.375C84.0801 32.2031 84.1439 32.056 84.2715 31.9336C84.4017 31.8112 84.5566 31.75 84.7363 31.75C84.916 31.75 85.0697 31.8112 85.1973 31.9336C85.3275 32.056 85.3926 32.2031 85.3926 32.375C85.3926 32.5469 85.3275 32.694 85.1973 32.8164C85.0697 32.9388 84.916 33 84.7363 33ZM87.7998 36.3906V40H86.8779V34H87.7686V34.9375H87.8467C87.9873 34.6328 88.2008 34.388 88.4873 34.2031C88.7738 34.0156 89.1436 33.9219 89.5967 33.9219C90.0029 33.9219 90.3584 34.0052 90.6631 34.1719C90.9678 34.3359 91.2048 34.5859 91.374 34.9219C91.5433 35.2552 91.6279 35.6771 91.6279 36.1875V40H90.7061V36.25C90.7061 35.7786 90.5837 35.4115 90.3389 35.1484C90.0941 34.8828 89.7581 34.75 89.3311 34.75C89.0368 34.75 88.7738 34.8138 88.542 34.9414C88.3128 35.069 88.1318 35.2552 87.999 35.5C87.8662 35.7448 87.7998 36.0417 87.7998 36.3906ZM95.8281 40.125C95.25 40.125 94.7513 39.9974 94.332 39.7422C93.9154 39.4844 93.5938 39.125 93.3672 38.6641C93.1432 38.2005 93.0313 37.6615 93.0313 37.0469C93.0313 36.4323 93.1432 35.8906 93.3672 35.4219C93.5938 34.9505 93.9089 34.5833 94.3125 34.3203C94.7188 34.0547 95.1927 33.9219 95.7344 33.9219C96.0469 33.9219 96.3555 33.974 96.6602 34.0781C96.9648 34.1823 97.2422 34.3516 97.4922 34.5859C97.7422 34.8177 97.9414 35.125 98.0898 35.5078C98.2383 35.8906 98.3125 36.362 98.3125 36.9219V37.3125H93.6875V36.5156H97.375C97.375 36.1771 97.3073 35.875 97.1719 35.6094C97.0391 35.3437 96.849 35.1341 96.6016 34.9805C96.3568 34.8268 96.0677 34.75 95.7344 34.75C95.3672 34.75 95.0495 34.8411 94.7813 35.0234C94.5156 35.2031 94.3112 35.4375 94.168 35.7266C94.0247 36.0156 93.9531 36.3255 93.9531 36.6562V37.1875C93.9531 37.6406 94.0313 38.0247 94.1875 38.3398C94.3464 38.6523 94.5664 38.8906 94.8477 39.0547C95.1289 39.2161 95.4557 39.2969 95.8281 39.2969C96.0703 39.2969 96.2891 39.263 96.4844 39.1953C96.6823 39.125 96.8529 39.0208 96.9961 38.8828C97.1393 38.7422 97.25 38.5677 97.3281 38.3594L98.2188 38.6094C98.125 38.9115 97.9674 39.1771 97.7461 39.4062C97.5247 39.6328 97.2513 39.8099 96.9258 39.9375C96.6003 40.0625 96.2344 40.125 95.8281 40.125ZM103.73 32V40H102.809V32H103.73ZM107.935 40.125C107.356 40.125 106.858 39.9974 106.438 39.7422C106.022 39.4844 105.7 39.125 105.474 38.6641C105.25 38.2005 105.138 37.6615 105.138 37.0469C105.138 36.4323 105.25 35.8906 105.474 35.4219C105.7 34.9505 106.015 34.5833 106.419 34.3203C106.825 34.0547 107.299 33.9219 107.841 33.9219C108.153 33.9219 108.462 33.974 108.767 34.0781C109.071 34.1823 109.349 34.3516 109.599 34.5859C109.849 34.8177 110.048 35.125 110.196 35.5078C110.345 35.8906 110.419 36.362 110.419 36.9219V37.3125H105.794V36.5156H109.481C109.481 36.1771 109.414 35.875 109.278 35.6094C109.146 35.3437 108.955 35.1341 108.708 34.9805C108.463 34.8268 108.174 34.75 107.841 34.75C107.474 34.75 107.156 34.8411 106.888 35.0234C106.622 35.2031 106.418 35.4375 106.274 35.7266C106.131 36.0156 106.06 36.3255 106.06 36.6562V37.1875C106.06 37.6406 106.138 38.0247 106.294 38.3398C106.453 38.6523 106.673 38.8906 106.954 39.0547C107.235 39.2161 107.562 39.2969 107.935 39.2969C108.177 39.2969 108.396 39.263 108.591 39.1953C108.789 39.125 108.959 39.0208 109.103 38.8828C109.246 38.7422 109.356 38.5677 109.435 38.3594L110.325 38.6094C110.231 38.9115 110.074 39.1771 109.853 39.4062C109.631 39.6328 109.358 39.8099 109.032 39.9375C108.707 40.0625 108.341 40.125 107.935 40.125ZM113.587 40.1406C113.207 40.1406 112.862 40.069 112.552 39.9258C112.242 39.7799 111.996 39.5703 111.813 39.2969C111.631 39.0208 111.54 38.6875 111.54 38.2969C111.54 37.9531 111.608 37.6745 111.743 37.4609C111.879 37.2448 112.06 37.0755 112.286 36.9531C112.513 36.8307 112.763 36.7396 113.036 36.6797C113.312 36.6172 113.59 36.5677 113.868 36.5313C114.233 36.4844 114.528 36.4492 114.755 36.4258C114.984 36.3997 115.151 36.3568 115.255 36.2969C115.362 36.237 115.415 36.1328 115.415 35.9844V35.9531C115.415 35.5677 115.31 35.2682 115.099 35.0547C114.89 34.8411 114.574 34.7344 114.149 34.7344C113.709 34.7344 113.364 34.8307 113.114 35.0234C112.864 35.2161 112.688 35.4219 112.587 35.6406L111.712 35.3281C111.868 34.9635 112.076 34.6797 112.337 34.4766C112.6 34.2708 112.886 34.1276 113.196 34.0469C113.509 33.9635 113.816 33.9219 114.118 33.9219C114.311 33.9219 114.532 33.9453 114.782 33.9922C115.035 34.0365 115.278 34.1289 115.513 34.2695C115.75 34.4102 115.946 34.6224 116.103 34.9062C116.259 35.1901 116.337 35.5703 116.337 36.0469V40H115.415V39.1875H115.368C115.306 39.3177 115.201 39.457 115.056 39.6055C114.91 39.7539 114.716 39.8802 114.474 39.9844C114.231 40.0885 113.936 40.1406 113.587 40.1406ZM113.728 39.3125C114.092 39.3125 114.399 39.2409 114.649 39.0977C114.902 38.9544 115.092 38.7695 115.22 38.543C115.35 38.3164 115.415 38.0781 115.415 37.8281V36.9844C115.376 37.0312 115.29 37.0742 115.157 37.1133C115.027 37.1497 114.876 37.1823 114.704 37.2109C114.535 37.237 114.369 37.2604 114.208 37.2812C114.049 37.2995 113.92 37.3151 113.821 37.3281C113.582 37.3594 113.358 37.4102 113.149 37.4805C112.944 37.5482 112.777 37.651 112.649 37.7891C112.524 37.9245 112.462 38.1094 112.462 38.3437C112.462 38.6641 112.58 38.9062 112.817 39.0703C113.057 39.2318 113.36 39.3125 113.728 39.3125ZM118.02 40V34H118.91V34.9062H118.973C119.082 34.6094 119.28 34.3685 119.566 34.1836C119.853 33.9987 120.176 33.9062 120.535 33.9062C120.603 33.9062 120.688 33.9076 120.789 33.9102C120.891 33.9128 120.967 33.9167 121.02 33.9219V34.8594C120.988 34.8516 120.917 34.8398 120.805 34.8242C120.695 34.806 120.579 34.7969 120.457 34.7969C120.165 34.7969 119.905 34.8581 119.676 34.9805C119.449 35.1003 119.27 35.2669 119.137 35.4805C119.007 35.6914 118.941 35.9323 118.941 36.2031V40H118.02ZM123.034 36.3906V40H122.112V34H123.003V34.9375H123.081C123.222 34.6328 123.435 34.388 123.722 34.2031C124.008 34.0156 124.378 33.9219 124.831 33.9219C125.237 33.9219 125.593 34.0052 125.897 34.1719C126.202 34.3359 126.439 34.5859 126.608 34.9219C126.778 35.2552 126.862 35.6771 126.862 36.1875V40H125.94V36.25C125.94 35.7786 125.818 35.4115 125.573 35.1484C125.328 34.8828 124.993 34.75 124.565 34.75C124.271 34.75 124.008 34.8138 123.776 34.9414C123.547 35.069 123.366 35.2552 123.233 35.5C123.101 35.7448 123.034 36.0417 123.034 36.3906ZM128.547 40V34H129.469V40H128.547ZM129.016 33C128.836 33 128.681 32.9388 128.551 32.8164C128.423 32.694 128.359 32.5469 128.359 32.375C128.359 32.2031 128.423 32.056 128.551 31.9336C128.681 31.8112 128.836 31.75 129.016 31.75C129.195 31.75 129.349 31.8112 129.477 31.9336C129.607 32.056 129.672 32.2031 129.672 32.375C129.672 32.5469 129.607 32.694 129.477 32.8164C129.349 32.9388 129.195 33 129.016 33ZM132.079 36.3906V40H131.157V34H132.048V34.9375H132.126C132.267 34.6328 132.48 34.388 132.767 34.2031C133.053 34.0156 133.423 33.9219 133.876 33.9219C134.282 33.9219 134.638 34.0052 134.942 34.1719C135.247 34.3359 135.484 34.5859 135.653 34.9219C135.823 35.2552 135.907 35.6771 135.907 36.1875V40H134.985V36.25C134.985 35.7786 134.863 35.4115 134.618 35.1484C134.373 34.8828 134.037 34.75 133.61 34.75C133.316 34.75 133.053 34.8138 132.821 34.9414C132.592 35.069 132.411 35.2552 132.278 35.5C132.146 35.7448 132.079 36.0417 132.079 36.3906ZM140.014 42.375C139.568 42.375 139.186 42.3177 138.865 42.2031C138.545 42.0911 138.278 41.9427 138.064 41.7578C137.854 41.5755 137.686 41.3802 137.561 41.1719L138.295 40.6563C138.378 40.7656 138.484 40.8906 138.611 41.0312C138.739 41.1745 138.913 41.2982 139.135 41.4023C139.359 41.5091 139.652 41.5625 140.014 41.5625C140.498 41.5625 140.898 41.4453 141.213 41.2109C141.528 40.9766 141.686 40.6094 141.686 40.1094V38.8906H141.607C141.54 39 141.443 39.1354 141.318 39.2969C141.196 39.4557 141.019 39.5977 140.787 39.7227C140.558 39.8451 140.248 39.9062 139.857 39.9062C139.373 39.9062 138.938 39.7917 138.553 39.5625C138.17 39.3333 137.867 39 137.643 38.5625C137.421 38.125 137.311 37.5937 137.311 36.9687C137.311 36.3542 137.419 35.819 137.635 35.3633C137.851 34.9049 138.152 34.5508 138.537 34.3008C138.923 34.0482 139.368 33.9219 139.873 33.9219C140.264 33.9219 140.574 33.987 140.803 34.1172C141.035 34.2448 141.212 34.3906 141.334 34.5547C141.459 34.7161 141.555 34.849 141.623 34.9531H141.717V34H142.607V40.1719C142.607 40.6875 142.49 41.1068 142.256 41.4297C142.024 41.7552 141.712 41.9935 141.318 42.1445C140.928 42.2982 140.493 42.375 140.014 42.375ZM139.982 39.0781C140.352 39.0781 140.665 38.9935 140.92 38.8242C141.175 38.6549 141.369 38.4115 141.502 38.0938C141.635 37.776 141.701 37.3958 141.701 36.9531C141.701 36.5208 141.636 36.1393 141.506 35.8086C141.376 35.4779 141.183 35.2187 140.928 35.0312C140.673 34.8437 140.357 34.75 139.982 34.75C139.592 34.75 139.266 34.849 139.006 35.0469C138.748 35.2448 138.554 35.5104 138.424 35.8438C138.296 36.1771 138.232 36.5469 138.232 36.9531C138.232 37.3698 138.298 37.7383 138.428 38.0586C138.561 38.3763 138.756 38.6263 139.014 38.8086C139.274 38.9883 139.597 39.0781 139.982 39.0781ZM151.639 35.3437L150.811 35.5781C150.758 35.4401 150.682 35.306 150.58 35.1758C150.481 35.043 150.346 34.9336 150.174 34.8477C150.002 34.7617 149.782 34.7187 149.514 34.7187C149.146 34.7187 148.84 34.8034 148.596 34.9727C148.354 35.1393 148.232 35.3516 148.232 35.6094C148.232 35.8385 148.316 36.0195 148.482 36.1523C148.649 36.2852 148.91 36.3958 149.264 36.4844L150.154 36.7031C150.691 36.8333 151.09 37.0326 151.354 37.3008C151.617 37.5664 151.748 37.9089 151.748 38.3281C151.748 38.6719 151.649 38.9792 151.451 39.25C151.256 39.5208 150.982 39.7344 150.631 39.8906C150.279 40.0469 149.87 40.125 149.404 40.125C148.792 40.125 148.286 39.9922 147.885 39.7266C147.484 39.4609 147.23 39.0729 147.123 38.5625L147.998 38.3437C148.081 38.6667 148.239 38.9089 148.471 39.0703C148.705 39.2318 149.011 39.3125 149.389 39.3125C149.818 39.3125 150.16 39.2214 150.412 39.0391C150.667 38.8542 150.795 38.6328 150.795 38.375C150.795 38.1667 150.722 37.9922 150.576 37.8516C150.43 37.7083 150.206 37.6016 149.904 37.5312L148.904 37.2969C148.355 37.1667 147.951 36.9648 147.693 36.6914C147.438 36.4154 147.311 36.0703 147.311 35.6562C147.311 35.3177 147.406 35.0182 147.596 34.7578C147.788 34.4974 148.05 34.293 148.381 34.1445C148.714 33.9961 149.092 33.9219 149.514 33.9219C150.107 33.9219 150.574 34.0521 150.912 34.3125C151.253 34.5729 151.495 34.9167 151.639 35.3437ZM155.573 40.125C155.032 40.125 154.556 39.9961 154.147 39.7383C153.741 39.4805 153.424 39.1198 153.194 38.6562C152.968 38.1927 152.854 37.651 152.854 37.0312C152.854 36.4062 152.968 35.8607 153.194 35.3945C153.424 34.9284 153.741 34.5664 154.147 34.3086C154.556 34.0508 155.032 33.9219 155.573 33.9219C156.115 33.9219 156.589 34.0508 156.995 34.3086C157.404 34.5664 157.722 34.9284 157.948 35.3945C158.177 35.8607 158.292 36.4062 158.292 37.0312C158.292 37.651 158.177 38.1927 157.948 38.6562C157.722 39.1198 157.404 39.4805 156.995 39.7383C156.589 39.9961 156.115 40.125 155.573 40.125ZM155.573 39.2969C155.985 39.2969 156.323 39.1914 156.589 38.9805C156.854 38.7695 157.051 38.4922 157.179 38.1484C157.306 37.8047 157.37 37.4323 157.37 37.0312C157.37 36.6302 157.306 36.2565 157.179 35.9102C157.051 35.5638 156.854 35.2839 156.589 35.0703C156.323 34.8568 155.985 34.75 155.573 34.75C155.162 34.75 154.823 34.8568 154.558 35.0703C154.292 35.2839 154.095 35.5638 153.968 35.9102C153.84 36.2565 153.776 36.6302 153.776 37.0312C153.776 37.4323 153.84 37.8047 153.968 38.1484C154.095 38.4922 154.292 38.7695 154.558 38.9805C154.823 39.1914 155.162 39.2969 155.573 39.2969ZM160.621 32V40H159.699V32H160.621ZM166.091 37.5469V34H167.013V40H166.091V38.9844H166.028C165.888 39.2891 165.669 39.5482 165.372 39.7617C165.075 39.9727 164.7 40.0781 164.247 40.0781C163.872 40.0781 163.539 39.9961 163.247 39.832C162.955 39.6654 162.726 39.4154 162.56 39.082C162.393 38.7461 162.31 38.3229 162.31 37.8125V34H163.231V37.75C163.231 38.1875 163.354 38.5365 163.599 38.7969C163.846 39.0573 164.161 39.1875 164.544 39.1875C164.773 39.1875 165.006 39.1289 165.243 39.0117C165.483 38.8945 165.683 38.7148 165.845 38.4727C166.009 38.2305 166.091 37.9219 166.091 37.5469ZM171.311 34V34.7812H168.201V34H171.311ZM169.107 32.5625H170.029V38.2812C170.029 38.5417 170.067 38.737 170.143 38.8672C170.221 38.9948 170.32 39.0807 170.439 39.125C170.562 39.1667 170.691 39.1875 170.826 39.1875C170.928 39.1875 171.011 39.1823 171.076 39.1719C171.141 39.1589 171.193 39.1484 171.232 39.1406L171.42 39.9687C171.357 39.9922 171.27 40.0156 171.158 40.0391C171.046 40.0651 170.904 40.0781 170.732 40.0781C170.472 40.0781 170.217 40.0221 169.967 39.9102C169.719 39.7982 169.514 39.6276 169.35 39.3984C169.188 39.1693 169.107 38.8802 169.107 38.5312V32.5625ZM172.697 40V34H173.619V40H172.697ZM173.166 33C172.986 33 172.831 32.9388 172.701 32.8164C172.574 32.694 172.51 32.5469 172.51 32.375C172.51 32.2031 172.574 32.056 172.701 31.9336C172.831 31.8112 172.986 31.75 173.166 31.75C173.346 31.75 173.499 31.8112 173.627 31.9336C173.757 32.056 173.822 32.2031 173.822 32.375C173.822 32.5469 173.757 32.694 173.627 32.8164C173.499 32.9388 173.346 33 173.166 33ZM177.745 40.125C177.203 40.125 176.728 39.9961 176.319 39.7383C175.913 39.4805 175.595 39.1198 175.366 38.6562C175.14 38.1927 175.026 37.651 175.026 37.0312C175.026 36.4062 175.14 35.8607 175.366 35.3945C175.595 34.9284 175.913 34.5664 176.319 34.3086C176.728 34.0508 177.203 33.9219 177.745 33.9219C178.287 33.9219 178.761 34.0508 179.167 34.3086C179.576 34.5664 179.894 34.9284 180.12 35.3945C180.349 35.8607 180.464 36.4062 180.464 37.0312C180.464 37.651 180.349 38.1927 180.12 38.6562C179.894 39.1198 179.576 39.4805 179.167 39.7383C178.761 39.9961 178.287 40.125 177.745 40.125ZM177.745 39.2969C178.157 39.2969 178.495 39.1914 178.761 38.9805C179.026 38.7695 179.223 38.4922 179.351 38.1484C179.478 37.8047 179.542 37.4323 179.542 37.0312C179.542 36.6302 179.478 36.2565 179.351 35.9102C179.223 35.5638 179.026 35.2839 178.761 35.0703C178.495 34.8568 178.157 34.75 177.745 34.75C177.334 34.75 176.995 34.8568 176.729 35.0703C176.464 35.2839 176.267 35.5638 176.14 35.9102C176.012 36.2565 175.948 36.6302 175.948 37.0312C175.948 37.4323 176.012 37.8047 176.14 38.1484C176.267 38.4922 176.464 38.7695 176.729 38.9805C176.995 39.1914 177.334 39.2969 177.745 39.2969ZM182.793 36.3906V40H181.871V34H182.762V34.9375H182.84C182.98 34.6328 183.194 34.388 183.48 34.2031C183.767 34.0156 184.137 33.9219 184.59 33.9219C184.996 33.9219 185.352 34.0052 185.656 34.1719C185.961 34.3359 186.198 34.5859 186.367 34.9219C186.536 35.2552 186.621 35.6771 186.621 36.1875V40H185.699V36.25C185.699 35.7786 185.577 35.4115 185.332 35.1484C185.087 34.8828 184.751 34.75 184.324 34.75C184.03 34.75 183.767 34.8138 183.535 34.9414C183.306 35.069 183.125 35.2552 182.992 35.5C182.859 35.7448 182.793 36.0417 182.793 36.3906Z" fill="white"/>
<path d="M53.2842 12.5111L30.1186 0.36841C29.6581 0.126431 29.1456 0 28.6254 0C28.1051 0 27.5927 0.126431 27.1321 0.36841L3.96665 12.5111C3.44356 12.7827 3.00544 13.1933 2.70041 13.6976C2.39538 14.2019 2.23525 14.7806 2.23759 15.37V28.6523C1.78323 28.8403 1.38934 29.1496 1.09903 29.5465C0.80871 29.9433 0.633155 30.4124 0.591577 30.9023C0.549999 31.3922 0.644 31.8842 0.863292 32.3242C1.08258 32.7643 1.41871 33.1356 1.8349 33.3975L0.164563 38.398C0.00377362 38.8813 -0.0400065 39.3958 0.036823 39.8993C0.113652 40.4028 0.308897 40.8809 0.606503 41.2943C0.90411 41.7076 1.29558 42.0445 1.74872 42.277C2.20186 42.5096 2.70374 42.6313 3.21308 42.6321C3.72243 42.633 4.22469 42.5129 4.67858 42.2817C5.13247 42.0506 5.52502 41.7151 5.82395 41.3027C6.12289 40.8903 6.31967 40.4128 6.39811 39.9096C6.47656 39.4063 6.43444 38.8916 6.2752 38.4078L4.61496 33.3975C5.02956 33.1339 5.36387 32.7616 5.58149 32.3212C5.7991 31.8808 5.89167 31.389 5.84911 30.8996C5.80655 30.4102 5.63048 29.9419 5.34011 29.5456C5.04973 29.1493 4.65617 28.8404 4.20231 28.6523L4.20242 18.3467C8.71256 20.7054 22.4057 27.8932 27.1321 30.3716C27.5934 30.6111 28.1056 30.7362 28.6254 30.7362C29.1452 30.7362 29.6573 30.6111 30.1186 30.3716C35.0231 27.7934 48.5412 20.7149 53.2842 18.219C53.7998 17.9418 54.2307 17.53 54.5311 17.0275C54.8314 16.525 54.99 15.9505 54.99 15.3651C54.99 14.7796 54.8314 14.2052 54.5311 13.7026C54.2307 13.2001 53.7998 12.7884 53.2842 12.5111Z" fill="white"/>
<path d="M45.7888 23.6433L28.726 32.5247C28.5419 32.6052 28.419 32.6052 28.2349 32.5247L11.1721 23.6433C10.7422 23.4011 10.3128 23.8049 10.3128 24.4509V34.6237C10.3128 34.9464 10.4357 35.2697 10.681 35.4313L28.2349 45.1197C28.419 45.2002 28.6031 45.2002 28.7259 45.1197L46.2798 35.4313C46.5251 35.2697 46.648 35.0275 46.648 34.6237V24.4509C46.7092 23.8854 46.2182 23.4822 45.7888 23.6433Z" fill="white"/>
</svg>
