<svg width="22" height="22" viewBox="0 0 22 22" fill="none" xmlns="http://www.w3.org/2000/svg">
<path d="M1.83333 8.25016C1.83333 6.52133 1.83333 5.65783 2.37049 5.12066C2.90766 4.5835 3.77116 4.5835 5.49999 4.5835H16.5C18.2288 4.5835 19.0923 4.5835 19.6295 5.12066C20.1667 5.65783 20.1667 6.52133 20.1667 8.25016C20.1667 8.68191 20.1667 8.89825 20.0328 9.033C19.8981 9.16683 19.6808 9.16683 19.25 9.16683H2.74999C2.31824 9.16683 2.10191 9.16683 1.96716 9.033C1.83333 8.89825 1.83333 8.681 1.83333 8.25016ZM1.83333 16.5002C1.83333 18.229 1.83333 19.0925 2.37049 19.6297C2.90766 20.1668 3.77116 20.1668 5.49999 20.1668H16.5C18.2288 20.1668 19.0923 20.1668 19.6295 19.6297C20.1667 19.0925 20.1667 18.229 20.1667 16.5002V11.9168C20.1667 11.4851 20.1667 11.2687 20.0328 11.134C19.8981 11.0002 19.6808 11.0002 19.25 11.0002H2.74999C2.31824 11.0002 2.10191 11.0002 1.96716 11.134C1.83333 11.2687 1.83333 11.486 1.83333 11.9168V16.5002Z" fill="#52DBC0"/>
<path d="M6.41666 2.75V5.5M15.5833 2.75V5.5" stroke="#52DBC0" stroke-width="2" stroke-linecap="round"/>
</svg>
