<svg width="20" height="25" viewBox="0 0 20 25" fill="none" xmlns="http://www.w3.org/2000/svg">
<path d="M10 24.5143C8.24 24.5143 0 16.5143 0 10C0 7.34784 1.05357 4.8043 2.92893 2.92893C4.8043 1.05357 7.34784 0 10 0C12.6522 0 15.1957 1.05357 17.0711 2.92893C18.9464 4.8043 20 7.34784 20 10C20 16.5371 11.76 24.5143 10 24.5143ZM10 1.70286C7.80144 1.70589 5.69397 2.58138 4.14042 4.13707C2.58688 5.69276 1.71428 7.80144 1.71429 10C1.71429 15.4171 8.46857 22.0457 10 22.7657C11.5314 22.0457 18.2857 15.4171 18.2857 10C18.2857 7.80144 17.4131 5.69276 15.8596 4.13707C14.306 2.58138 12.1986 1.70589 10 1.70286Z" fill="white"/>
<path d="M10 14.7997C9.03938 14.7997 8.1003 14.5149 7.30154 13.9812C6.50279 13.4475 5.88024 12.6889 5.51261 11.8013C5.14499 10.9138 5.0488 9.93721 5.23621 8.99501C5.42363 8.05282 5.88623 7.18736 6.56551 6.50808C7.24479 5.82879 8.11025 5.36619 9.05245 5.17878C9.99464 4.99137 10.9713 5.08755 11.8588 5.45518C12.7463 5.82281 13.5049 6.44536 14.0386 7.24411C14.5723 8.04286 14.8572 8.98194 14.8572 9.9426C14.8542 11.2299 14.3415 12.4635 13.4312 13.3738C12.521 14.284 11.2873 14.7967 10 14.7997ZM10 6.79974C9.37843 6.79974 8.77079 6.98406 8.25395 7.3294C7.73711 7.67475 7.33428 8.16559 7.09641 8.73988C6.85853 9.31416 6.79629 9.94608 6.91756 10.5557C7.03883 11.1654 7.33816 11.7254 7.77769 12.1649C8.21723 12.6045 8.77723 12.9038 9.38689 13.0251C9.99654 13.1463 10.6285 13.0841 11.2027 12.8462C11.777 12.6083 12.2679 12.2055 12.6132 11.6887C12.9586 11.1718 13.1429 10.5642 13.1429 9.9426C13.1429 9.10906 12.8118 8.30966 12.2224 7.72026C11.633 7.13086 10.8336 6.79974 10 6.79974Z" fill="white"/>
</svg>
