<svg width="26" height="26" viewBox="0 0 26 26" fill="none" xmlns="http://www.w3.org/2000/svg">
<rect width="26" height="26" rx="3" fill="#35AFA5"/>
<g clip-path="url(#clip0_2036_3)">
<path d="M20.2762 13.4809H5.72477C5.48357 13.4809 5.25224 13.3794 5.08168 13.1988C4.91113 13.0182 4.81531 12.7733 4.81531 12.5179C4.81531 12.2625 4.91113 12.0176 5.08168 11.837C5.25224 11.6564 5.48357 11.5549 5.72477 11.5549H20.2762C20.5174 11.5549 20.7487 11.6564 20.9193 11.837C21.0899 12.0176 21.1857 12.2625 21.1857 12.5179C21.1857 12.7733 21.0899 13.0182 20.9193 13.1988C20.7487 13.3794 20.5174 13.4809 20.2762 13.4809Z" fill="white"/>
</g>
<defs>
<clipPath id="clip0_2036_3">
<rect width="16.3704" height="23.1111" fill="white" transform="translate(4.81531 0.962402)"/>
</clipPath>
</defs>
</svg>
