<svg width="27" height="27" viewBox="0 0 27 27" fill="none" xmlns="http://www.w3.org/2000/svg">
<path d="M24.75 0H2.25C1.65326 0 1.08097 0.237053 0.65901 0.65901C0.237053 1.08097 0 1.65326 0 2.25V24.75C0 25.3467 0.237053 25.919 0.65901 26.341C1.08097 26.7629 1.65326 27 2.25 27H24.75C25.3467 27 25.919 26.7629 26.341 26.341C26.7629 25.919 27 25.3467 27 24.75V2.25C27 1.65326 26.7629 1.08097 26.341 0.65901C25.919 0.237053 25.3467 0 24.75 0ZM21.375 14.625H14.625V21.375C14.625 21.6734 14.5065 21.9595 14.2955 22.1705C14.0845 22.3815 13.7984 22.5 13.5 22.5C13.2016 22.5 12.9155 22.3815 12.7045 22.1705C12.4935 21.9595 12.375 21.6734 12.375 21.375V14.625H5.625C5.32663 14.625 5.04048 14.5065 4.8295 14.2955C4.61853 14.0845 4.5 13.7984 4.5 13.5C4.5 13.2016 4.61853 12.9155 4.8295 12.7045C5.04048 12.4935 5.32663 12.375 5.625 12.375H12.375V5.625C12.375 5.32663 12.4935 5.04048 12.7045 4.8295C12.9155 4.61853 13.2016 4.5 13.5 4.5C13.7984 4.5 14.0845 4.61853 14.2955 4.8295C14.5065 5.04048 14.625 5.32663 14.625 5.625V12.375H21.375C21.6734 12.375 21.9595 12.4935 22.1705 12.7045C22.3815 12.9155 22.5 13.2016 22.5 13.5C22.5 13.7984 22.3815 14.0845 22.1705 14.2955C21.9595 14.5065 21.6734 14.625 21.375 14.625Z" fill="#35AFA5"/>
</svg>
