<svg width="40" height="40" viewBox="0 0 40 40" fill="none" xmlns="http://www.w3.org/2000/svg">
<g clip-path="url(#clip0_40_12)">
<path d="M23.6555 8.76753C25.468 9.90396 26.739 11.827 26.9704 14.0593C27.7096 14.4046 28.5299 14.6033 29.3998 14.6033C32.5752 14.6033 35.1489 12.0296 35.1489 8.85461C35.1489 5.67918 32.5752 3.10547 29.3998 3.10547C26.2547 3.10645 23.7035 5.63417 23.6555 8.76753ZM19.8891 20.5388C23.0645 20.5388 25.6383 17.9646 25.6383 14.7896C25.6383 11.6147 23.0641 9.041 19.8891 9.041C16.7142 9.041 14.139 11.6152 14.139 14.7901C14.139 17.9651 16.7142 20.5388 19.8891 20.5388ZM22.3278 20.9306H17.4495C13.3905 20.9306 10.0884 24.2333 10.0884 28.2922V34.2581L10.1036 34.3515L10.5145 34.4802C14.388 35.6904 17.7533 36.094 20.5231 36.094C25.9332 36.094 29.0691 34.5516 29.2623 34.4532L29.6463 34.259H29.6874V28.2922C29.6889 24.2333 26.3867 20.9306 22.3278 20.9306ZM31.8394 14.9956H26.9987C26.9464 16.9324 26.1196 18.6764 24.812 19.9307C28.4199 21.0035 31.0596 24.3492 31.0596 28.301V30.1394C35.8392 29.9643 38.5934 28.6097 38.7749 28.5187L39.1589 28.324H39.2V22.3562C39.2 18.2977 35.8979 14.9956 31.8394 14.9956ZM9.80122 14.6042C10.9259 14.6042 11.9723 14.276 12.8588 13.7168C13.1405 11.8789 14.1258 10.2728 15.5332 9.17895C15.5391 9.07133 15.5494 8.96468 15.5494 8.85608C15.5494 5.68065 12.9752 3.10694 9.80122 3.10694C6.6253 3.10694 4.05209 5.68065 4.05209 8.85608C4.05209 12.03 6.6253 14.6042 9.80122 14.6042ZM14.9643 19.9307C13.663 18.6827 12.8392 16.948 12.779 15.023C12.5995 15.0098 12.4219 14.9956 12.2389 14.9956H7.36107C3.30213 14.9956 0 18.2977 0 22.3562V28.323L0.0151654 28.415L0.426098 28.5446C3.53353 29.5147 6.30683 29.9619 8.71568 30.1027V28.301C8.71666 24.3492 11.3554 21.0045 14.9643 19.9307Z" fill="white"/>
</g>
<defs>
<clipPath id="clip0_40_12">
<rect width="39.2" height="39.2" fill="white"/>
</clipPath>
</defs>
</svg>
