<svg width="46" height="46" viewBox="0 0 46 46" fill="none" xmlns="http://www.w3.org/2000/svg">
<g clip-path="url(#clip0_48_3433)">
<path fill-rule="evenodd" clip-rule="evenodd" d="M20.212 36.4373V30.7952C20.212 30.3948 19.8861 30.069 19.4857 30.069C19.0847 30.069 18.7593 30.3948 18.7593 30.7952V36.4373C18.7593 36.8383 19.0847 37.1636 19.4857 37.1636C19.886 37.1637 20.212 36.8383 20.212 36.4373ZM14.9002 30.7953V36.4374C14.9002 36.8383 15.2256 37.1637 15.6264 37.1637C16.0273 37.1637 16.3527 36.8383 16.3527 36.4374V30.7953C16.3527 30.3949 16.0273 30.069 15.6264 30.069C15.2256 30.069 14.9002 30.3948 14.9002 30.7953Z" fill="#52DBC0"/>
<path fill-rule="evenodd" clip-rule="evenodd" d="M12.8055 37.1637H22.3062C22.7072 37.1637 23.0325 36.8383 23.0325 36.4374C23.0325 36.0364 22.7071 35.7111 22.3062 35.7111H12.8055C12.4046 35.7111 12.0792 36.0365 12.0792 36.4374C12.0791 36.8383 12.4045 37.1637 12.8055 37.1637Z" fill="#52DBC0"/>
<path fill-rule="evenodd" clip-rule="evenodd" d="M29.9247 30.069H2.26762C1.85746 30.069 1.52486 29.7368 1.52486 29.3267V7.0864C1.52486 6.67625 1.85754 6.3441 2.26762 6.3441H9.41601C9.8169 6.3441 10.1423 6.01871 10.1423 5.61782C10.1423 5.21693 9.8169 4.89154 9.41601 4.89154C9.41601 4.89154 4.72786 4.89154 2.26762 4.89154C1.05516 4.89146 0.0721512 5.87394 0.0721512 7.0864V29.3267C0.0721512 30.5391 1.05508 31.5216 2.26754 31.5216H29.9247C30.3256 31.5216 30.6509 31.1962 30.6509 30.7953C30.651 30.3948 30.3256 30.069 29.9247 30.069ZM33.5868 15.7887V22.4471C33.5868 22.8475 33.9122 23.1734 34.3131 23.1734C34.7141 23.1734 35.0394 22.8475 35.0394 22.4471V15.7887C35.0394 15.3877 34.714 15.0624 34.3131 15.0624C33.9122 15.0623 33.5868 15.3877 33.5868 15.7887Z" fill="#52DBC0"/>
<path fill-rule="evenodd" clip-rule="evenodd" d="M29.7902 24.2328H0.798513C0.397549 24.2328 0.0722351 24.5577 0.0722351 24.9591V29.3267C0.0722351 29.9087 0.303669 30.467 0.715267 30.879C1.12686 31.2906 1.68513 31.5216 2.26763 31.5216H29.9247C30.3257 31.5216 30.651 31.1962 30.651 30.7953C30.651 30.3949 30.3256 30.0691 29.9247 30.0691H2.26763C2.07052 30.0691 1.8817 29.9911 1.74225 29.8517C1.60325 29.7127 1.52487 29.5239 1.52487 29.3268V25.6856H29.7902C30.1911 25.6856 30.5164 25.3602 30.5164 24.9593C30.5164 24.5584 30.191 24.2328 29.7902 24.2328Z" fill="#52DBC0"/>
<path fill-rule="evenodd" clip-rule="evenodd" d="M34.3132 21.7207C30.9716 21.7207 28.2591 24.4333 28.2591 27.7748C28.2591 31.1164 30.9716 33.829 34.3132 33.829C37.6547 33.829 40.3677 31.1164 40.3677 27.7748C40.3677 24.4333 37.6546 21.7207 34.3132 21.7207ZM34.3132 23.1734C36.8529 23.1734 38.9151 25.2352 38.9151 27.7748C38.9151 30.3145 36.8529 32.3763 34.3132 32.3763C31.7735 32.3763 29.7117 30.3145 29.7117 27.7748C29.7117 25.2352 31.7735 23.1734 34.3132 23.1734Z" fill="#52DBC0"/>
<path fill-rule="evenodd" clip-rule="evenodd" d="M24.8792 46C29.2633 46 39.3654 46 43.7498 45.9855C44.497 45.9855 45.1937 45.6 45.5933 44.9657C45.9923 44.3309 46.0373 43.5359 45.7124 42.8603C45.7119 42.8594 45.7119 42.8589 45.7114 42.8579C43.6603 38.6288 39.3247 35.711 34.3131 35.711C29.3024 35.711 24.9678 38.6279 22.9027 42.8492C22.9017 42.8506 22.9012 42.8521 22.9002 42.8535C22.5734 43.5338 22.6189 44.3347 23.0208 44.9734C23.4227 45.6126 24.1244 46 24.8792 46ZM24.8792 44.5474C24.8792 44.5474 24.8792 44.5474 24.8788 44.5474C24.6236 44.5474 24.3864 44.4161 24.2503 44.2002C24.1147 43.9847 24.0992 43.7145 24.2091 43.4845C26.0384 39.7474 29.8763 37.1637 34.3131 37.1637C38.7495 37.1637 42.5873 39.747 44.4036 43.4904C44.5116 43.7155 44.4966 43.9809 44.3634 44.1925C44.2303 44.4041 43.9974 44.5329 43.7475 44.5329C43.7465 44.5329 43.7456 44.5329 43.7451 44.5329C39.362 44.5474 29.2623 44.5474 24.8792 44.5474Z" fill="#52DBC0"/>
<path fill-rule="evenodd" clip-rule="evenodd" d="M19.1346 8.14203V2.19494C19.1346 1.78478 19.4672 1.45263 19.8773 1.45263H36.0218C36.2184 1.45263 36.4072 1.53109 36.5468 1.67001C36.6862 1.80947 36.7641 1.99829 36.7641 2.19494V11.6651C36.7641 11.8617 36.6862 12.0505 36.5468 12.19C36.4073 12.329 36.2185 12.4074 36.0218 12.4074H25.3131C24.9126 12.4074 24.5868 12.7328 24.5868 13.1337C24.5868 13.5346 24.9126 13.86 25.3131 13.86H36.0218C36.6039 13.86 37.1622 13.6285 37.5737 13.2169C37.9853 12.8053 38.2168 12.2471 38.2168 11.665C38.2168 9.2774 38.2168 4.58249 38.2168 2.19486C38.2168 1.61282 37.9853 1.05455 37.5737 0.642956C37.1622 0.231434 36.604 0 36.0219 0C32.4669 0 23.432 0 19.8774 0C18.6649 0 17.682 0.982928 17.682 2.19494V8.14203C17.682 8.54292 18.0078 8.86831 18.4083 8.86831C18.8092 8.86831 19.1346 8.54292 19.1346 8.14203Z" fill="#52DBC0"/>
<path fill-rule="evenodd" clip-rule="evenodd" d="M32.6397 3.37976H26.3978C25.9968 3.37976 25.6715 3.70515 25.6715 4.10604C25.6715 4.50693 25.9969 4.83232 26.3978 4.83232H32.6397C33.0402 4.83232 33.366 4.50693 33.366 4.10604C33.366 3.70515 33.0402 3.37976 32.6397 3.37976Z" fill="#52DBC0"/>
<path fill-rule="evenodd" clip-rule="evenodd" d="M32.6397 6.20367H27.5981C27.1971 6.20367 26.8718 6.52906 26.8718 6.92995C26.8718 7.33084 27.1972 7.65623 27.5981 7.65623H32.6397C33.0401 7.65623 33.3659 7.33084 33.3659 6.92995C33.366 6.52906 33.0402 6.20367 32.6397 6.20367Z" fill="#52DBC0"/>
<path fill-rule="evenodd" clip-rule="evenodd" d="M32.6397 9.02759H28.9936C28.5926 9.02759 28.2673 9.35298 28.2673 9.75387C28.2673 10.1548 28.5927 10.4801 28.9936 10.4801H32.6397C33.0402 10.4801 33.366 10.1548 33.366 9.75387C33.366 9.35298 33.0402 9.02759 32.6397 9.02759Z" fill="#52DBC0"/>
<path fill-rule="evenodd" clip-rule="evenodd" d="M12.4946 2.285C10.3714 2.285 8.64758 4.00879 8.64758 6.13203C8.64758 8.25526 10.3714 9.97958 12.4946 9.97958C14.6184 9.97958 16.3422 8.25534 16.3422 6.13203C16.3422 4.00872 14.6184 2.285 12.4946 2.285ZM12.4946 3.73764C13.8165 3.73764 14.8895 4.81065 14.8895 6.13203C14.8895 7.45394 13.8165 8.52695 12.4946 8.52695C11.1732 8.52695 10.1002 7.45394 10.1002 6.13203C10.1002 4.81065 11.1732 3.73764 12.4946 3.73764Z" fill="#52DBC0"/>
<path fill-rule="evenodd" clip-rule="evenodd" d="M17.9705 11.2419H10.276C8.18616 11.2419 6.40183 12.7497 6.0532 14.8105C5.76898 16.4932 5.42908 18.5031 5.22036 19.735C5.13711 20.2298 5.27558 20.7368 5.59952 21.1199C5.92347 21.5034 6.40039 21.7246 6.90207 21.7246H14.8678C15.8096 21.7246 16.5732 20.961 16.5732 20.0192V16.0768H18.3962C19.3705 16.0768 20.3074 15.7 21.0105 15.0256C21.5949 14.4643 22.3697 13.7216 23.0127 13.1047C23.4751 12.6606 23.7424 12.0515 23.756 11.4104C23.7691 10.7761 23.5323 10.1621 23.097 9.70115C23.0927 9.69629 23.0742 9.67692 23.0695 9.67259C22.6269 9.21838 22.0236 8.95641 21.3893 8.94335C20.7481 8.92983 20.1284 9.17189 19.6655 9.61547L17.9705 11.2419ZM18.2625 12.6945C18.4499 12.6945 18.6301 12.6219 18.7651 12.4921C18.7651 12.4921 19.7941 11.5053 20.671 10.6637C20.8555 10.487 21.1028 10.3901 21.359 10.3954C21.6118 10.4008 21.853 10.5054 22.0292 10.6864C22.0312 10.6883 22.0389 10.6962 22.0408 10.6981C22.2141 10.8821 22.3085 11.127 22.3032 11.3803C22.2979 11.6359 22.1913 11.879 22.0069 12.0563C21.3639 12.6732 20.5896 13.4159 20.0047 13.9772C19.5718 14.3921 18.9956 14.6241 18.3961 14.6241H15.8468C15.4459 14.6241 15.1205 14.949 15.1205 15.3503V20.0191C15.1205 20.1586 15.0072 20.2719 14.8677 20.2719H6.90199C6.82794 20.2719 6.75722 20.2389 6.70876 20.1823C6.66084 20.1257 6.64048 20.0502 6.65256 19.977C6.86128 18.7452 7.20118 16.7352 7.4854 15.0526C7.71592 13.691 8.89496 12.6945 10.2759 12.6945H18.2625Z" fill="#52DBC0"/>
<path fill-rule="evenodd" clip-rule="evenodd" d="M9.70457 21.1193L10.4754 16.5615C10.5423 16.1659 10.2754 15.7911 9.88032 15.7243C9.48521 15.657 9.10992 15.9237 9.04315 16.3189L8.27229 20.8773C8.20545 21.2724 8.47228 21.6477 8.86739 21.7144C9.26251 21.7813 9.6378 21.5149 9.70457 21.1193Z" fill="#52DBC0"/>
<path fill-rule="evenodd" clip-rule="evenodd" d="M23.3215 10.5297L24.8425 6.38239C24.9805 6.00565 24.7868 5.58828 24.4106 5.45027C24.0338 5.31227 23.6165 5.50595 23.4785 5.88223L21.9576 10.0295C21.8195 10.4062 22.0132 10.8236 22.3894 10.9616C22.7662 11.0995 23.1835 10.9059 23.3215 10.5297Z" fill="#52DBC0"/>
<path fill-rule="evenodd" clip-rule="evenodd" d="M16.5494 28.6037H18.5622C18.9631 28.6037 19.2885 28.2784 19.2885 27.8775C19.2885 27.4765 18.9631 27.1512 18.5622 27.1512H16.5494C16.1485 27.1512 15.8231 27.4766 15.8231 27.8775C15.8231 28.2784 16.1485 28.6037 16.5494 28.6037Z" fill="#52DBC0"/>
</g>
<defs>
<clipPath id="clip0_48_3433">
<rect width="46" height="46" fill="white"/>
</clipPath>
</defs>
</svg>
