<svg width="16" height="16" viewBox="0 0 16 16" fill="none" xmlns="http://www.w3.org/2000/svg">
<path d="M3 4C2.46957 4 1.96086 4.21071 1.58579 4.58579C1.21071 4.96086 1 5.46957 1 6V10C1 10.5304 1.21071 11.0391 1.58579 11.4142C1.96086 11.7893 2.46957 12 3 12H8C8.53043 12 9.03914 11.7893 9.41421 11.4142C9.78929 11.0391 10 10.5304 10 10V6C10 5.46957 9.78929 4.96086 9.41421 4.58579C9.03914 4.21071 8.53043 4 8 4H3ZM15 4.75C14.9999 4.60176 14.9558 4.45688 14.8734 4.33367C14.791 4.21045 14.6739 4.11442 14.5369 4.05771C14.4 4.001 14.2493 3.98615 14.1039 4.01503C13.9585 4.04392 13.8249 4.11524 13.72 4.22L11.72 6.22C11.5793 6.36052 11.5002 6.55115 11.5 6.75V9.25C11.5 9.449 11.579 9.64 11.72 9.78L13.72 11.78C13.8249 11.8848 13.9585 11.9561 14.1039 11.985C14.2493 12.0138 14.4 11.999 14.5369 11.9423C14.6739 11.8856 14.791 11.7895 14.8734 11.6663C14.9558 11.5431 14.9999 11.3982 15 11.25V4.75Z" fill="#FF9500"/>
</svg>
