<svg width="442" height="457" viewBox="0 0 442 457" fill="none" xmlns="http://www.w3.org/2000/svg">
<path d="M221.562 235.864C225.645 231.78 225.645 225.161 221.562 221.078C225.645 225.161 232.265 225.161 236.348 221.078C232.265 225.161 232.265 231.781 236.348 235.864C232.265 231.78 225.645 231.78 221.562 235.864ZM219.807 252.048C215.772 248.013 215.772 241.471 219.807 237.435C215.772 241.471 209.229 241.471 205.194 237.435C209.229 241.471 209.229 248.013 205.194 252.048C209.23 248.013 215.772 248.013 219.807 252.048ZM220.118 219.395C216.057 215.333 216.057 208.748 220.118 204.687C216.057 208.748 209.472 208.748 205.411 204.687C209.472 208.748 209.472 215.333 205.411 219.395C209.472 215.333 216.057 215.333 220.118 219.395ZM252.037 251.725C248.204 247.892 248.204 241.677 252.037 237.844C248.204 241.677 241.989 241.677 238.155 237.844C241.989 241.677 241.989 247.892 238.155 251.725C241.989 247.892 248.204 247.892 252.037 251.725ZM235.53 202.786C231.724 198.981 231.724 192.811 235.53 189.005C231.724 192.811 225.554 192.811 221.748 189.005C225.554 192.811 225.554 198.981 221.748 202.786C225.554 198.981 231.724 198.981 235.53 202.786ZM235.727 267.743C231.929 263.944 231.929 257.786 235.727 253.987C231.929 257.786 225.77 257.786 221.971 253.987C225.77 257.786 225.77 263.944 221.971 267.743C225.77 263.944 231.929 263.944 235.727 267.743ZM203.082 267.628C199.357 263.903 199.357 257.864 203.082 254.139C199.357 257.864 193.318 257.864 189.593 254.139C193.318 257.864 193.318 263.903 189.593 267.628C193.318 263.903 199.357 263.903 203.082 267.628ZM203.25 202.644C199.505 198.9 199.505 192.829 203.25 189.085C199.505 192.83 193.435 192.83 189.691 189.085C193.435 192.83 193.435 198.9 189.691 202.644C193.435 198.9 199.505 198.9 203.25 202.644ZM186.938 251.471C183.167 247.701 183.167 241.588 186.938 237.816C183.167 241.587 177.054 241.587 173.283 237.816C177.053 241.587 177.053 247.7 173.283 251.471C177.054 247.701 183.167 247.701 186.938 251.471ZM186.643 218.785C182.912 215.053 182.912 209.003 186.643 205.271C182.911 209.003 176.861 209.003 173.13 205.271C176.862 209.003 176.862 215.053 173.13 218.785C176.862 215.053 182.912 215.053 186.643 218.785ZM267.87 235.156C264.165 231.451 264.165 225.444 267.87 221.739C264.165 225.444 258.158 225.444 254.453 221.739C258.158 225.444 258.158 231.451 254.453 235.156C258.158 231.451 264.165 231.451 267.87 235.156ZM219.392 283.884C215.707 280.199 215.707 274.227 219.392 270.543C215.707 274.227 209.735 274.227 206.051 270.543C209.735 274.227 209.735 280.2 206.051 283.884C209.735 280.199 215.707 280.199 219.392 283.884ZM219.379 186.368C215.689 182.678 215.689 176.695 219.379 173.006C215.689 176.695 209.707 176.695 206.017 173.006C209.707 176.695 209.707 182.678 206.017 186.368C209.707 182.678 215.689 182.678 219.379 186.368ZM267.635 267.343C264.113 263.822 264.113 258.112 267.635 254.59C264.113 258.112 258.404 258.112 254.882 254.59C258.404 258.112 258.404 263.822 254.882 267.343C258.404 263.821 264.113 263.821 267.635 267.343ZM267.634 202.335C264.117 198.818 264.117 193.115 267.634 189.598C264.117 193.115 258.414 193.115 254.897 189.598C258.415 193.115 258.415 198.818 254.897 202.335C258.415 198.818 264.117 198.818 267.634 202.335ZM170.129 234.69C166.562 231.123 166.562 225.34 170.129 221.774C166.562 225.34 160.78 225.34 157.213 221.774C160.78 225.34 160.78 231.123 157.213 234.69C160.78 231.123 166.562 231.123 170.129 234.69ZM251.407 283.685C247.842 280.12 247.842 274.341 251.407 270.776C247.842 274.341 242.063 274.341 238.498 270.776C242.063 274.341 242.063 280.12 238.498 283.685C242.063 280.12 247.842 280.12 251.407 283.685ZM251.498 186.229C247.93 182.662 247.93 176.877 251.498 173.309C247.93 176.877 242.145 176.877 238.578 173.309C242.145 176.877 242.145 182.662 238.578 186.229C242.145 182.662 247.93 182.662 251.498 186.229ZM283.905 250.863C280.438 247.396 280.438 241.774 283.905 238.306C280.438 241.774 274.816 241.774 271.349 238.306C274.816 241.774 274.816 247.396 271.349 250.863C274.816 247.395 280.438 247.395 283.905 250.863ZM283.908 218.615C280.456 215.163 280.456 209.567 283.908 206.116C280.456 209.567 274.86 209.567 271.408 206.116C274.86 209.567 274.86 215.163 271.408 218.615C274.86 215.163 280.456 215.163 283.908 218.615ZM186.31 185.637C182.872 182.199 182.872 176.625 186.31 173.187C182.872 176.625 177.298 176.625 173.86 173.187C177.298 176.625 177.298 182.198 173.86 185.637C177.298 182.199 182.872 182.199 186.31 185.637ZM186.075 283.433C182.668 280.026 182.668 274.501 186.075 271.094C182.668 274.501 177.143 274.501 173.736 271.094C177.143 274.501 177.143 280.026 173.736 283.433C177.144 280.026 182.668 280.026 186.075 283.433ZM235.003 169.409C231.597 166.003 231.597 160.481 235.003 157.075C231.597 160.481 226.075 160.481 222.669 157.075C226.075 160.481 226.075 166.003 222.669 169.409C226.075 166.003 231.597 166.003 235.003 169.409ZM235.09 299.813C231.696 296.419 231.696 290.917 235.09 287.523C231.696 290.917 226.194 290.917 222.8 287.523C226.194 290.917 226.194 296.419 222.8 299.813C226.194 296.419 231.696 296.419 235.09 299.813ZM202.314 299.644C198.97 296.3 198.97 290.878 202.314 287.534C198.97 290.878 193.548 290.878 190.204 287.534C193.548 290.878 193.548 296.3 190.204 299.644C193.548 296.3 198.97 296.3 202.314 299.644ZM202.323 169.321C198.979 165.977 198.979 160.557 202.323 157.213C198.979 160.557 193.559 160.557 190.215 157.213C193.559 160.557 193.559 165.977 190.215 169.321C193.559 165.977 198.979 165.977 202.323 169.321ZM153.565 250.659C150.254 247.347 150.254 241.98 153.565 238.668C150.254 241.98 144.886 241.98 141.575 238.668C144.886 241.98 144.886 247.347 141.575 250.659C144.886 247.347 150.254 247.347 153.565 250.659ZM153.474 218.276C150.172 214.974 150.172 209.622 153.474 206.32C150.172 209.622 144.819 209.622 141.518 206.32C144.82 209.622 144.82 214.974 141.518 218.276C144.819 214.975 150.172 214.975 153.474 218.276ZM299.746 234.445C296.486 231.185 296.486 225.9 299.746 222.64C296.486 225.9 291.201 225.9 287.941 222.64C291.201 225.9 291.201 231.185 287.941 234.445C291.201 231.185 296.486 231.185 299.746 234.445ZM283.596 185.366C280.367 182.136 280.367 176.9 283.596 173.67C280.367 176.9 275.13 176.9 271.9 173.67C275.13 176.9 275.13 182.136 271.9 185.366C275.13 182.136 280.367 182.136 283.596 185.366ZM283.346 282.995C280.121 279.77 280.121 274.541 283.346 271.315C280.121 274.541 274.892 274.541 271.666 271.315C274.892 274.541 274.892 279.77 271.666 282.995C274.892 279.77 280.121 279.77 283.346 282.995ZM266.959 169.145C263.754 165.941 263.754 160.744 266.959 157.539C263.754 160.744 258.558 160.744 255.353 157.539C258.558 160.744 258.558 165.94 255.353 169.145C258.558 165.941 263.754 165.941 266.959 169.145ZM269.096 165.921C269.085 165.909 269.085 165.891 269.096 165.879C269.085 165.891 269.066 165.891 269.055 165.879C269.066 165.891 269.066 165.909 269.055 165.921C269.066 165.909 269.085 165.909 269.096 165.921ZM267.157 299.194C263.973 296.009 263.973 290.846 267.157 287.662C263.973 290.846 258.81 290.846 255.625 287.662C258.81 290.846 258.81 296.009 255.625 299.194C258.81 296.009 263.973 296.009 267.157 299.194ZM218.16 315.511C215.016 312.367 215.016 307.27 218.16 304.126C215.016 307.27 209.919 307.27 206.775 304.126C209.919 307.27 209.919 312.367 206.775 315.511C209.919 312.368 215.016 312.368 218.16 315.511ZM218.121 152.825C214.989 149.693 214.989 144.615 218.121 141.482C214.989 144.615 209.91 144.615 206.778 141.482C209.91 144.615 209.91 149.693 206.778 152.825C209.91 149.693 214.989 149.693 218.121 152.825ZM299.533 266.514C296.374 263.356 296.374 258.234 299.533 255.076C296.374 258.234 291.253 258.234 288.094 255.076C291.253 258.234 291.253 263.356 288.094 266.514C291.253 263.356 296.374 263.356 299.533 266.514ZM299.689 201.67C296.528 198.509 296.528 193.385 299.689 190.224C296.528 193.385 291.404 193.385 288.243 190.224C291.404 193.385 291.404 198.509 288.243 201.67C291.404 198.509 296.528 198.509 299.689 201.67ZM169.27 168.885C166.183 165.799 166.183 160.794 169.27 157.707C166.183 160.794 161.178 160.794 158.091 157.707C161.178 160.794 161.178 165.799 158.091 168.885C161.178 165.799 166.183 165.799 169.27 168.885ZM169.279 299.215C166.189 296.124 166.189 291.113 169.279 288.022C166.189 291.113 161.177 291.113 158.086 288.022C161.177 291.113 161.177 296.124 158.086 299.215C161.177 296.124 166.189 296.124 169.279 299.215ZM250.618 152.769C247.521 149.671 247.521 144.649 250.618 141.551C247.521 144.649 242.499 144.649 239.401 141.551C242.499 144.649 242.499 149.671 239.401 152.769C242.499 149.671 247.521 149.671 250.618 152.769ZM152.917 282.862C149.819 279.765 149.819 274.742 152.917 271.645C149.819 274.743 144.797 274.743 141.7 271.645C144.797 274.743 144.797 279.765 141.7 282.862C144.797 279.765 149.819 279.765 152.917 282.862ZM250.662 315.464C247.558 312.361 247.558 307.328 250.662 304.225C247.558 307.328 242.526 307.328 239.422 304.225C242.526 307.328 242.526 312.361 239.422 315.464C242.526 312.361 247.558 312.361 250.662 315.464ZM153.117 185.077C150.024 181.984 150.024 176.969 153.117 173.876C150.024 176.969 145.009 176.969 141.916 173.876C145.009 176.969 145.009 181.984 141.916 185.077C145.009 181.984 150.024 181.984 153.117 185.077ZM136.947 234.1C133.82 230.973 133.82 225.904 136.947 222.777C133.82 225.904 128.751 225.904 125.624 222.777C128.751 225.904 128.751 230.973 125.624 234.1C128.751 230.973 133.82 230.973 136.947 234.1ZM185.705 315.352C182.637 312.284 182.637 307.309 185.705 304.241C182.637 307.309 177.662 307.309 174.594 304.241C177.662 307.309 177.662 312.284 174.594 315.352C177.662 312.284 182.637 312.284 185.705 315.352ZM185.665 152.643C182.613 149.591 182.613 144.643 185.665 141.591C182.613 144.643 177.665 144.643 174.613 141.591C177.665 144.643 177.665 149.591 174.613 152.643C177.665 149.591 182.613 149.591 185.665 152.643ZM136.513 201.34C133.508 198.335 133.508 193.462 136.513 190.456C133.508 193.462 128.635 193.462 125.63 190.456C128.635 193.462 128.635 198.335 125.63 201.34C128.635 198.335 133.508 198.335 136.513 201.34ZM136.743 266.248C133.757 263.262 133.757 258.421 136.743 255.436C133.757 258.422 128.916 258.422 125.931 255.436C128.917 258.422 128.917 263.262 125.931 266.248C128.916 263.262 133.757 263.262 136.743 266.248ZM315.717 250.055C312.704 247.042 312.704 242.157 315.717 239.144C312.704 242.157 307.819 242.157 304.806 239.144C307.819 242.157 307.819 247.042 304.806 250.055C307.819 247.042 312.704 247.042 315.717 250.055ZM315.655 217.754C312.662 214.761 312.662 209.909 315.655 206.916C312.662 209.909 307.81 209.909 304.817 206.916C307.81 209.909 307.81 214.761 304.817 217.754C307.81 214.761 312.663 214.761 315.655 217.754ZM234.077 136.14C231.189 133.252 231.189 128.57 234.077 125.682C231.189 128.57 226.506 128.57 223.618 125.682C226.506 128.57 226.506 133.252 223.618 136.14C226.506 133.252 231.189 133.252 234.077 136.14ZM234.066 331.2C231.188 328.323 231.188 323.658 234.066 320.78C231.188 323.658 226.523 323.658 223.646 320.78C226.523 323.658 226.523 328.323 223.646 331.2C226.523 328.323 231.188 328.323 234.066 331.2ZM282.883 314.768C279.984 311.869 279.984 307.169 282.883 304.27C279.984 307.169 275.284 307.169 272.385 304.27C275.284 307.169 275.284 311.869 272.385 314.768C275.284 311.869 279.984 311.869 282.883 314.768ZM201.54 135.879C198.634 132.973 198.634 128.262 201.54 125.355C198.634 128.261 193.922 128.261 191.016 125.355C193.922 128.261 193.922 132.973 191.016 135.879C193.922 132.973 198.634 132.973 201.54 135.879ZM299.101 298.599C296.198 295.697 296.198 290.991 299.101 288.089C296.198 290.991 291.493 290.991 288.59 288.089C291.493 290.991 291.493 295.697 288.59 298.599C291.493 295.697 296.198 295.697 299.101 298.599ZM299.315 168.622C296.392 165.699 296.392 160.959 299.315 158.036C296.392 160.959 291.652 160.959 288.729 158.036C291.652 160.959 291.652 165.699 288.729 168.622C291.652 165.699 296.392 165.699 299.315 168.622ZM201.281 331.235C198.392 328.345 198.392 323.66 201.281 320.771C198.392 323.66 193.707 323.66 190.817 320.771C193.707 323.66 193.707 328.345 190.817 331.235C193.707 328.345 198.391 328.345 201.281 331.235ZM282.728 152.332C279.883 149.486 279.883 144.872 282.728 142.026C279.882 144.872 275.268 144.872 272.422 142.026C275.268 144.872 275.268 149.487 272.422 152.332C275.268 149.486 279.882 149.486 282.728 152.332ZM315.439 282.376C312.581 279.517 312.581 274.882 315.439 272.024C312.581 274.882 307.946 274.882 305.088 272.024C307.946 274.882 307.946 279.517 305.088 282.376C307.946 279.517 312.581 279.517 315.439 282.376ZM315.219 184.539C312.45 181.77 312.45 177.28 315.219 174.51C312.45 177.279 307.96 177.279 305.19 174.51C307.959 177.279 307.959 181.769 305.19 184.539C307.96 181.77 312.45 181.77 315.219 184.539ZM119.93 217.04C117.16 214.27 117.16 209.78 119.93 207.01C117.16 209.78 112.67 209.78 109.9 207.01C112.67 209.78 112.67 214.27 109.9 217.04C112.67 214.27 117.16 214.27 119.93 217.04ZM266.42 330.958C263.678 328.215 263.678 323.769 266.42 321.027C263.678 323.769 259.232 323.769 256.489 321.027C259.232 323.769 259.232 328.215 256.489 330.958C259.231 328.215 263.678 328.215 266.42 330.958ZM266.369 135.957C263.621 133.209 263.621 128.755 266.369 126.008C263.621 128.755 259.167 128.755 256.42 126.008C259.168 128.755 259.168 133.21 256.42 135.957C259.167 133.209 263.621 133.209 266.369 135.957ZM152.417 151.873C149.686 149.142 149.686 144.714 152.417 141.983C149.686 144.714 145.258 144.714 142.527 141.983C145.258 144.714 145.258 149.142 142.527 151.873C145.258 149.142 149.686 149.142 152.417 151.873ZM152.493 314.53C149.767 311.805 149.767 307.386 152.493 304.66C149.767 307.386 145.348 307.386 142.623 304.66C145.348 307.386 145.348 311.805 142.623 314.53C145.348 311.804 149.767 311.804 152.493 314.53ZM136.034 168.292C133.298 165.555 133.298 161.118 136.034 158.382C133.298 161.118 128.861 161.118 126.124 158.382C128.861 161.118 128.861 165.555 126.124 168.292C128.861 165.555 133.298 165.555 136.034 168.292ZM331.522 233.44C328.785 230.703 328.785 226.265 331.522 223.529C328.785 226.266 324.348 226.266 321.612 223.529C324.349 226.266 324.349 230.703 321.612 233.44C324.349 230.703 328.785 230.703 331.522 233.44ZM136.287 298.391C133.539 295.642 133.539 291.187 136.287 288.439C133.539 291.187 129.083 291.187 126.335 288.439C129.083 291.187 129.083 295.643 126.335 298.391C129.083 295.643 133.539 295.643 136.287 298.391ZM168.499 330.845C165.804 328.15 165.804 323.781 168.499 321.086C165.804 323.781 161.435 323.781 158.74 321.086C161.435 323.781 161.435 328.15 158.74 330.845C161.435 328.149 165.804 328.149 168.499 330.845ZM168.745 135.564C166.057 132.875 166.057 128.516 168.745 125.827C166.057 128.516 161.698 128.516 159.009 125.827C161.698 128.516 161.698 132.875 159.009 135.564C161.698 132.875 166.057 132.875 168.745 135.564ZM331.506 200.78C328.803 198.078 328.803 193.695 331.506 190.992C328.803 193.695 324.421 193.695 321.718 190.992C324.421 193.695 324.421 198.078 321.718 200.78C324.421 198.078 328.802 198.078 331.506 200.78ZM331.26 265.639C328.566 262.945 328.566 258.577 331.26 255.882C328.566 258.577 324.198 258.577 321.503 255.882C324.198 258.577 324.198 262.945 321.503 265.639C324.198 262.945 328.566 262.945 331.26 265.639ZM119.652 281.848C117.023 279.219 117.023 274.957 119.652 272.328C117.023 274.957 112.761 274.957 110.132 272.328C112.761 274.957 112.761 279.219 110.132 281.848C112.761 279.219 117.023 279.219 119.652 281.848ZM119.62 184.287C116.993 181.66 116.993 177.4 119.62 174.773C116.993 177.4 112.733 177.4 110.106 174.773C112.733 177.4 112.733 181.66 110.106 184.287C112.733 181.66 116.993 181.66 119.62 184.287ZM217.172 347.045C214.52 344.393 214.52 340.094 217.172 337.442C214.52 340.094 210.221 340.094 207.569 337.442C210.221 340.094 210.221 344.393 207.569 347.045C210.221 344.393 214.52 344.393 217.172 347.045ZM217.367 119.398C214.725 116.757 214.725 112.475 217.367 109.833C214.725 112.475 210.443 112.475 207.802 109.833C210.443 112.475 210.443 116.757 207.802 119.398C210.443 116.757 214.725 116.757 217.367 119.398ZM249.724 346.869C247.142 344.287 247.142 340.101 249.724 337.518C247.142 340.101 242.956 340.101 240.374 337.518C242.956 340.101 242.956 344.287 240.374 346.869C242.956 344.287 247.143 344.287 249.724 346.869ZM249.851 119.23C247.273 116.651 247.273 112.47 249.851 109.891C247.273 112.47 243.092 112.47 240.513 109.891C243.092 112.47 243.092 116.651 240.513 119.23C243.092 116.651 247.273 116.651 249.851 119.23ZM103.437 232.916C100.835 230.315 100.835 226.096 103.437 223.494C100.835 226.096 96.6169 226.096 94.0151 223.494C96.6169 226.096 96.6169 230.315 94.0151 232.916C96.6169 230.315 100.835 230.315 103.437 232.916ZM184.509 346.771C181.946 344.207 181.946 340.051 184.509 337.488C181.946 340.051 177.79 340.051 175.227 337.488C177.79 340.051 177.79 344.207 175.227 346.771C177.79 344.207 181.946 344.207 184.509 346.771ZM184.413 119.119C181.877 116.582 181.877 112.47 184.413 109.932C181.877 112.469 177.764 112.469 175.227 109.932C177.763 112.469 177.763 116.582 175.227 119.119C177.764 116.582 181.877 116.582 184.413 119.119ZM103.241 265.583C100.747 263.089 100.747 259.046 103.241 256.552C100.747 259.046 96.7038 259.046 94.2098 256.552C96.7038 259.046 96.7038 263.089 94.2098 265.583C96.7043 263.089 100.747 263.089 103.241 265.583ZM103.314 200.399C100.818 197.903 100.818 193.856 103.314 191.36C100.818 193.856 96.7705 193.856 94.2746 191.36C96.7705 193.856 96.7705 197.903 94.2746 200.399C96.7705 197.903 100.818 197.903 103.314 200.399ZM347.296 216.568C344.792 214.064 344.792 210.005 347.296 207.502C344.792 210.006 340.733 210.006 338.229 207.502C340.733 210.005 340.733 214.065 338.229 216.568C340.733 214.064 344.792 214.064 347.296 216.568ZM347.158 249.28C344.659 246.781 344.659 242.73 347.158 240.231C344.659 242.73 340.608 242.73 338.11 240.231C340.609 242.73 340.609 246.781 338.11 249.28C340.608 246.781 344.659 246.781 347.158 249.28ZM314.566 151.628C312.11 149.172 312.11 145.191 314.566 142.736C312.11 145.191 308.129 145.191 305.673 142.736C308.129 145.191 308.129 149.172 305.673 151.628C308.129 149.173 312.11 149.173 314.566 151.628ZM314.51 314.245C312.059 311.794 312.059 307.82 314.51 305.37C312.059 307.82 308.085 307.82 305.634 305.37C308.085 307.82 308.085 311.794 305.634 314.245C308.085 311.794 312.059 311.794 314.51 314.245ZM298.147 135.214C295.715 132.783 295.715 128.84 298.147 126.409C295.715 128.84 291.773 128.84 289.341 126.409C291.773 128.84 291.773 132.783 289.341 135.214C291.773 132.783 295.716 132.783 298.147 135.214ZM330.809 297.81C328.382 295.383 328.382 291.448 330.809 289.022C328.382 291.448 324.448 291.448 322.021 289.022C324.448 291.448 324.448 295.383 322.021 297.81C324.448 295.383 328.382 295.383 330.809 297.81ZM330.744 167.927C328.315 165.497 328.315 161.559 330.744 159.13C328.315 161.559 324.376 161.559 321.947 159.13C324.376 161.559 324.376 165.497 321.947 167.927C324.376 165.497 328.315 165.497 330.744 167.927ZM232.958 362.897C230.57 360.509 230.57 356.636 232.958 354.248C230.57 356.636 226.697 356.636 224.309 354.248C226.697 356.636 226.697 360.509 224.309 362.897C226.697 360.509 230.57 360.509 232.958 362.897ZM222.62 358.578V358.577H222.619V358.578H222.62ZM200.554 362.778C198.192 360.416 198.192 356.587 200.554 354.225C198.192 356.587 194.362 356.587 192 354.225C194.362 356.587 194.362 360.416 192 362.778C194.362 360.416 198.192 360.416 200.554 362.778ZM200.548 102.489C198.222 100.164 198.222 96.393 200.548 94.0673C198.222 96.393 194.452 96.393 192.126 94.0673C194.452 96.393 194.452 100.164 192.126 102.489C194.452 100.164 198.222 100.164 200.548 102.489ZM119.142 151.161C116.773 148.793 116.773 144.953 119.142 142.585C116.773 144.953 112.933 144.953 110.565 142.585C112.933 144.953 112.933 148.793 110.565 151.161C112.933 148.793 116.773 148.793 119.142 151.161ZM151.776 346.712C149.428 344.363 149.428 340.556 151.776 338.207C149.428 340.556 145.62 340.556 143.272 338.207C145.62 340.556 145.62 344.363 143.272 346.712C145.62 344.363 149.428 344.363 151.776 346.712ZM346.758 281.497C344.42 279.159 344.42 275.369 346.758 273.031C344.42 275.369 340.63 275.369 338.292 273.031C340.63 275.369 340.63 279.159 338.292 281.497C340.63 279.159 344.42 279.159 346.758 281.497ZM102.658 167.43C100.387 165.16 100.387 161.478 102.658 159.208C100.387 161.478 96.7063 161.478 94.4362 159.208C96.7068 161.478 96.7068 165.16 94.4362 167.43C96.7063 165.16 100.387 165.16 102.658 167.43ZM102.775 297.319C100.54 295.083 100.54 291.458 102.775 289.223C100.54 291.459 96.9146 291.459 94.6792 289.223C96.9151 291.459 96.9151 295.084 94.6792 297.319C96.9146 295.083 100.54 295.083 102.775 297.319ZM86.4941 248.818C84.2095 246.533 84.2095 242.829 86.4941 240.544C84.2095 242.829 80.5052 242.829 78.2206 240.544C80.5052 242.829 80.5052 246.533 78.2206 248.818C80.5057 246.533 84.2095 246.533 86.4941 248.818ZM265.49 362.555C263.236 360.301 263.236 356.647 265.49 354.393C263.236 356.647 259.582 356.647 257.328 354.393C259.582 356.647 259.582 360.301 257.328 362.555C259.582 360.301 263.236 360.301 265.49 362.555ZM265.552 102.539C263.277 100.263 263.277 96.5738 265.552 94.2977C263.277 96.5733 259.587 96.5733 257.311 94.2977C259.587 96.5733 259.587 100.263 257.311 102.539C259.587 100.263 263.276 100.263 265.552 102.539ZM167.644 102.116C165.468 99.9402 165.468 96.4116 167.644 94.2355C165.468 96.4116 161.939 96.4116 159.763 94.2355C161.939 96.4116 161.939 99.9402 159.763 102.116C161.939 99.9397 165.467 99.9397 167.644 102.116ZM167.675 362.316C165.485 360.126 165.485 356.576 167.675 354.387C165.485 356.576 161.935 356.576 159.746 354.387C161.935 356.576 161.935 360.126 159.746 362.316C161.935 360.126 165.485 360.126 167.675 362.316ZM362.704 232.312C360.538 230.146 360.538 226.634 362.704 224.468C360.538 226.634 357.026 226.634 354.86 224.468C357.026 226.634 357.026 230.145 354.86 232.312C357.026 230.145 360.538 230.145 362.704 232.312ZM86.1728 183.52C84.0499 181.397 84.0499 177.955 86.1728 175.832C84.0499 177.955 80.6077 177.955 78.4847 175.832C80.6077 177.955 80.6077 181.397 78.4847 183.52C80.6077 181.397 84.0499 181.397 86.1728 183.52ZM86.1753 281.055C84.0469 278.926 84.0469 275.476 86.1753 273.348C84.0469 275.476 80.5966 275.476 78.4681 273.348C80.5966 275.476 80.5966 278.926 78.4681 281.055C80.5966 278.927 84.0469 278.927 86.1753 281.055ZM330.169 134.643C328.035 132.509 328.035 129.049 330.169 126.915C328.035 129.049 324.575 129.049 322.441 126.915C324.575 129.049 324.575 132.509 322.441 134.643C324.575 132.508 328.035 132.508 330.169 134.643ZM330.248 330.11C328.113 327.974 328.113 324.511 330.248 322.375C328.112 324.511 324.65 324.511 322.514 322.375C324.649 324.511 324.649 327.974 322.514 330.11C324.65 327.974 328.112 327.974 330.248 330.11ZM216.249 378.49C214.161 376.402 214.161 373.017 216.249 370.928C214.161 373.016 210.776 373.016 208.687 370.928C210.775 373.016 210.775 376.402 208.687 378.49C210.776 376.402 214.161 376.402 216.249 378.49ZM216.436 85.7667C214.358 83.6879 214.358 80.318 216.436 78.2397C214.358 80.3185 210.988 80.3185 208.909 78.2397C210.988 80.3185 210.988 83.6884 208.909 85.7667C210.988 83.6884 214.358 83.6884 216.436 85.7667ZM313.889 118.53C311.815 116.456 311.815 113.094 313.889 111.02C311.815 113.094 308.452 113.094 306.378 111.02C308.452 113.094 308.452 116.456 306.378 118.53C308.452 116.456 311.815 116.456 313.889 118.53ZM313.718 346.197C311.622 344.1 311.622 340.701 313.718 338.605C311.622 340.701 308.223 340.701 306.127 338.605C308.223 340.701 308.223 344.1 306.127 346.197C308.223 344.1 311.622 344.1 313.718 346.197ZM362.753 264.648C360.64 262.535 360.64 259.109 362.753 256.995C360.64 259.109 357.214 259.109 355.1 256.995C357.214 259.109 357.214 262.535 355.1 264.648C357.214 262.535 360.64 262.535 362.753 264.648ZM346.39 313.431C344.378 311.42 344.378 308.159 346.39 306.147C344.378 308.159 341.117 308.159 339.106 306.147C341.117 308.159 341.117 311.42 339.106 313.431C341.117 311.42 344.378 311.42 346.39 313.431ZM346.372 150.73C344.361 148.72 344.361 145.46 346.372 143.449C344.361 145.46 341.101 145.46 339.091 143.449C341.101 145.46 341.101 148.72 339.091 150.73C341.101 148.72 344.361 148.72 346.372 150.73ZM297.696 102.041C295.688 100.033 295.688 96.7761 297.696 94.7676C295.688 96.7761 292.431 96.7761 290.423 94.7676C292.431 96.7761 292.431 100.033 290.423 102.041C292.431 100.032 295.688 100.032 297.696 102.041ZM183.498 378.4C181.465 376.367 181.465 373.071 183.498 371.038C181.465 373.071 178.169 373.071 176.136 371.038C178.169 373.071 178.169 376.367 176.136 378.4C178.169 376.367 181.464 376.367 183.498 378.4ZM297.715 362.274C295.685 360.244 295.685 356.953 297.715 354.923C295.685 356.953 292.393 356.953 290.363 354.923C292.393 356.953 292.393 360.244 290.363 362.274C292.393 360.244 295.685 360.244 297.715 362.274ZM183.702 85.5162C181.687 83.5012 181.687 80.2347 183.702 78.2196C181.687 80.2347 178.42 80.2347 176.405 78.2196C178.42 80.2347 178.42 83.5012 176.405 85.5162C178.42 83.5012 181.687 83.5012 183.702 85.5162ZM248.752 85.6528C246.757 83.6573 246.757 80.4219 248.752 78.4265C246.757 80.4219 243.521 80.4219 241.526 78.4265C243.521 80.4219 243.521 83.6573 241.526 85.6528C243.521 83.6573 246.757 83.6573 248.752 85.6528ZM69.7213 231.969C67.7635 230.011 67.7635 226.837 69.7213 224.88C67.7635 226.838 64.5893 226.838 62.632 224.88C64.5898 226.838 64.5898 230.011 62.632 231.969C64.5893 230.012 67.7635 230.012 69.7213 231.969ZM118.411 118.078C116.44 116.108 116.44 112.914 118.411 110.944C116.44 112.914 113.246 112.914 111.276 110.944C113.246 112.914 113.246 116.108 111.276 118.078C113.246 116.109 116.44 116.109 118.411 118.078ZM102.355 134.398C100.343 132.386 100.343 129.123 102.355 127.111C100.343 129.124 97.0803 129.124 95.0683 127.111C97.0808 129.124 97.0808 132.386 95.0683 134.398C97.0808 132.386 100.343 132.386 102.355 134.398ZM118.487 345.98C116.496 343.989 116.496 340.761 118.487 338.77C116.496 340.761 113.268 340.761 111.277 338.77C113.268 340.761 113.268 343.989 111.277 345.98C113.268 343.989 116.496 343.989 118.487 345.98ZM102.119 329.394C100.218 327.493 100.218 324.412 102.119 322.51C100.218 324.412 97.136 324.412 95.2349 322.51C97.136 324.412 97.136 327.493 95.2349 329.394C97.136 327.493 100.218 327.493 102.119 329.394ZM362.478 166.789C360.537 164.848 360.537 161.702 362.478 159.761C360.537 161.702 357.39 161.702 355.45 159.761C357.39 161.702 357.39 164.848 355.45 166.789C357.39 164.848 360.537 164.848 362.478 166.789ZM362.448 297.091C360.53 295.174 360.53 292.065 362.448 290.147C360.53 292.065 357.422 292.065 355.504 290.147C357.422 292.065 357.422 295.174 355.504 297.091C357.421 295.174 360.53 295.174 362.448 297.091ZM69.5762 199.328C67.6641 197.416 67.6641 194.316 69.5762 192.404C67.6641 194.316 64.5642 194.316 62.6526 192.404C64.5647 194.316 64.5647 197.416 62.6526 199.328C64.5642 197.416 67.6641 197.416 69.5762 199.328ZM69.5782 264.277C67.7012 262.4 67.7012 259.357 69.5782 257.48C67.7012 259.357 64.6581 259.357 62.7811 257.48C64.6581 259.357 64.6581 262.4 62.7811 264.277C64.6576 262.4 67.7012 262.4 69.5782 264.277ZM134.771 101.87C132.852 99.9507 132.852 96.8388 134.771 94.9197C132.852 96.8388 129.74 96.8388 127.821 94.9197C129.74 96.8388 129.74 99.9507 127.821 101.87C129.74 99.9507 132.852 99.9507 134.771 101.87ZM134.809 362.132C132.847 360.171 132.847 356.991 134.809 355.03C132.847 356.991 129.668 356.991 127.707 355.03C129.668 356.991 129.668 360.171 127.707 362.132C129.668 360.171 132.848 360.171 134.809 362.132ZM85.6839 312.951C83.8606 311.128 83.8606 308.171 85.6839 306.348C83.8606 308.171 80.9043 308.171 79.0811 306.348C80.9043 308.171 80.9043 311.128 79.0811 312.951C80.9048 311.128 83.8606 311.128 85.6839 312.951ZM85.6874 150.391C83.835 148.538 83.835 145.536 85.6874 143.683C83.835 145.536 80.8325 145.536 78.9802 143.683C80.8325 145.536 80.8325 148.538 78.9802 150.391C80.832 148.538 83.835 148.538 85.6874 150.391ZM280.983 85.5293C279.112 83.6578 279.112 80.6237 280.983 78.7523C279.112 80.6237 276.078 80.6237 274.206 78.7523C276.078 80.6237 276.078 83.6578 274.206 85.5293C276.078 83.6578 279.113 83.6578 280.983 85.5293ZM281.044 378.136C279.163 376.255 279.163 373.205 281.044 371.324C279.163 373.205 276.114 373.205 274.233 371.324C276.114 373.205 276.114 376.255 274.233 378.136C276.114 376.255 279.163 376.255 281.044 378.136ZM378.39 248.143C376.56 246.313 376.56 243.347 378.39 241.516C376.56 243.346 373.593 243.346 371.763 241.516C373.592 243.346 373.592 246.313 371.763 248.143C373.593 246.313 376.56 246.313 378.39 248.143ZM378.393 215.479C376.547 213.633 376.547 210.64 378.393 208.794C376.547 210.64 373.554 210.64 371.708 208.794C373.554 210.64 373.554 213.633 371.708 215.479C373.554 213.633 376.547 213.633 378.393 215.479ZM150.839 378.124C148.996 376.28 148.996 373.29 150.839 371.446C148.996 373.29 146.006 373.29 144.162 371.446C146.006 373.29 146.006 376.28 144.162 378.124C146.006 376.28 148.996 376.28 150.839 378.124ZM150.82 85.5102C148.994 83.6839 148.994 80.7221 150.82 78.8958C148.994 80.7221 146.032 80.7221 144.206 78.8958C146.032 80.7221 146.032 83.6839 144.206 85.5102C146.032 83.6839 148.994 83.6839 150.82 85.5102ZM232 68.8794C230.21 67.0893 230.21 64.1872 232 62.3971C230.21 64.1872 227.308 64.1872 225.518 62.3971C227.308 64.1872 227.308 67.0893 225.518 68.8794C227.308 67.0893 230.21 67.0893 232 68.8794ZM231.88 394.386C230.065 392.571 230.065 389.628 231.88 387.813C230.065 389.628 227.122 389.628 225.307 387.813C227.122 389.628 227.122 392.571 225.307 394.386C227.122 392.571 230.065 392.571 231.88 394.386ZM378.327 182.932C376.547 181.152 376.547 178.267 378.327 176.487C376.547 178.267 373.662 178.267 371.882 176.487C373.662 178.267 373.662 181.152 371.882 182.932C373.662 181.152 376.547 181.152 378.327 182.932ZM378.319 280.488C376.541 278.71 376.541 275.828 378.319 274.05C376.541 275.828 373.659 275.828 371.881 274.05C373.659 275.828 373.659 278.71 371.881 280.488C373.659 278.71 376.542 278.71 378.319 280.488ZM199.519 394.049C197.751 392.281 197.751 389.414 199.519 387.646C197.751 389.414 194.884 389.414 193.115 387.646C194.883 389.414 194.883 392.281 193.115 394.049C194.884 392.281 197.751 392.281 199.519 394.049ZM199.726 68.9899C197.954 67.2178 197.954 64.3444 199.726 62.5723C197.954 64.3444 195.081 64.3444 193.309 62.5723C195.081 64.3444 195.081 67.2178 193.309 68.9899C195.081 67.2178 197.954 67.2178 199.726 68.9899ZM69.1108 296.411C67.4342 294.735 67.4342 292.016 69.1108 290.339C67.4342 292.015 64.7153 292.015 63.0382 290.339C64.7148 292.015 64.7148 294.734 63.0382 296.411C64.7153 294.735 67.4342 294.735 69.1108 296.411ZM264.214 68.8262C262.542 67.154 262.542 64.4437 264.214 62.7716C262.542 64.4437 259.832 64.4437 258.16 62.7716C259.832 64.4437 259.832 67.154 258.16 68.8262C259.832 67.1545 262.543 67.1545 264.214 68.8262ZM329.213 361.628C327.536 359.952 327.536 357.234 329.213 355.558C327.536 357.234 324.819 357.234 323.142 355.558C324.819 357.234 324.819 359.952 323.142 361.628C324.819 359.952 327.536 359.952 329.213 361.628ZM264.254 394.194C262.578 392.517 262.578 389.8 264.254 388.123C262.578 389.8 259.86 389.8 258.184 388.123C259.86 389.8 259.86 392.517 258.184 394.194C259.86 392.517 262.578 392.517 264.254 394.194ZM52.7818 215.048C51.1212 213.387 51.1212 210.694 52.7818 209.033C51.1212 210.694 48.4284 210.694 46.7673 209.033C48.4279 210.694 48.4279 213.387 46.7673 215.048C48.4279 213.387 51.1207 213.387 52.7818 215.048ZM329.508 101.344C327.855 99.6907 327.855 97.011 329.508 95.3579C327.855 97.011 325.176 97.011 323.522 95.3579C325.176 97.011 325.176 99.6907 323.522 101.344C325.175 99.6907 327.855 99.6907 329.508 101.344ZM345.775 117.569C344.115 115.908 344.115 113.216 345.775 111.555C344.115 113.216 341.422 113.216 339.762 111.555C341.422 113.216 341.422 115.908 339.762 117.569C341.422 115.908 344.115 115.908 345.775 117.569ZM345.595 345.217C343.924 343.546 343.924 340.836 345.595 339.165C343.924 340.836 341.214 340.836 339.543 339.165C341.214 340.836 341.214 343.546 339.543 345.217C341.214 343.546 343.924 343.546 345.595 345.217ZM52.8009 247.52C51.1894 245.909 51.1894 243.296 52.8009 241.684C51.1894 243.296 48.5765 243.296 46.9651 241.684C48.5765 243.296 48.5765 245.909 46.9651 247.52C48.5765 245.909 51.1894 245.909 52.8009 247.52ZM361.798 133.873C360.192 132.266 360.192 129.662 361.798 128.055C360.192 129.662 357.587 129.662 355.98 128.055C357.587 129.662 357.587 132.266 355.98 133.873C357.587 132.266 360.192 132.266 361.798 133.873ZM361.846 328.937C360.225 327.316 360.225 324.689 361.846 323.068C360.225 324.689 357.597 324.689 355.976 323.068C357.597 324.689 357.597 327.316 355.976 328.937C357.597 327.316 360.225 327.316 361.846 328.937ZM166.81 68.6746C165.204 67.0687 165.204 64.4648 166.81 62.8589C165.204 64.4648 162.6 64.4648 160.994 62.8589C162.6 64.4648 162.6 67.0687 160.994 68.6746C162.6 67.0687 165.204 67.0687 166.81 68.6746ZM313.191 377.815C311.549 376.173 311.549 373.51 313.191 371.868C311.549 373.51 308.887 373.51 307.245 371.868C308.887 373.51 308.887 376.173 307.245 377.815C308.887 376.173 311.549 376.173 313.191 377.815ZM166.61 393.895C164.983 392.267 164.983 389.629 166.61 388.001C164.983 389.629 162.344 389.629 160.717 388.001C162.344 389.629 162.344 392.267 160.717 393.895C162.344 392.267 164.983 392.267 166.61 393.895ZM312.995 84.8275C311.44 83.2728 311.44 80.7522 312.995 79.197C311.44 80.7517 308.92 80.7517 307.365 79.197C308.919 80.7517 308.919 83.2723 307.365 84.8275C308.92 83.2728 311.44 83.2728 312.995 84.8275ZM52.58 279.865C51.0956 278.38 51.0956 275.973 52.58 274.489C51.0956 275.973 48.6885 275.973 47.2041 274.489C48.6885 275.973 48.6885 278.38 47.2041 279.865C48.6885 278.38 51.0956 278.38 52.58 279.865ZM394.197 231.213C392.668 229.684 392.668 227.204 394.197 225.675C392.668 227.204 390.189 227.204 388.659 225.675C390.189 227.204 390.189 229.684 388.659 231.213C390.189 229.683 392.668 229.683 394.197 231.213ZM101.307 361.322C99.772 359.787 99.772 357.299 101.307 355.764C99.772 357.299 97.2841 357.299 95.75 355.764C97.2846 357.299 97.2846 359.787 95.75 361.322C97.2841 359.787 99.772 359.787 101.307 361.322ZM377.872 312.588C376.345 311.062 376.345 308.586 377.872 307.059C376.345 308.586 373.87 308.586 372.343 307.059C373.87 308.586 373.87 311.062 372.343 312.588C373.87 311.062 376.345 311.062 377.872 312.588ZM85.0398 117.306C83.5338 115.8 83.5338 113.359 85.0398 111.853C83.5338 113.359 81.0926 113.359 79.5871 111.853C81.0931 113.359 81.0931 115.8 79.5871 117.306C81.0931 115.8 83.5343 115.8 85.0398 117.306ZM85.0237 344.863C83.571 343.411 83.571 341.055 85.0237 339.603C83.571 341.055 81.2156 341.055 79.7628 339.603C81.2156 341.055 81.2156 343.411 79.7628 344.863C81.2156 343.411 83.571 343.411 85.0237 344.863ZM377.839 149.915C376.315 148.39 376.315 145.918 377.839 144.394C376.315 145.918 373.843 145.918 372.318 144.394C373.843 145.918 373.843 148.39 372.318 149.915C373.843 148.39 376.315 148.39 377.839 149.915ZM394.346 263.808C392.833 262.295 392.833 259.842 394.346 258.33C392.833 259.843 390.38 259.843 388.868 258.33C390.381 259.843 390.381 262.296 388.868 263.808C390.38 262.295 392.833 262.295 394.346 263.808ZM101.5 100.896C99.9663 99.3619 99.9663 96.875 101.5 95.3409C99.9663 96.875 97.4794 96.875 95.9453 95.3409C97.4794 96.875 97.4794 99.3619 95.9453 100.896C97.4794 99.3619 99.9663 99.3619 101.5 100.896ZM394.364 198.664C392.844 197.143 392.844 194.679 394.364 193.158C392.844 194.679 390.379 194.679 388.858 193.158C390.379 194.679 390.379 197.143 388.858 198.664C390.379 197.144 392.844 197.144 394.364 198.664ZM296.445 393.611C294.983 392.149 294.983 389.779 296.445 388.317C294.983 389.779 292.613 389.779 291.151 388.317C292.613 389.779 292.613 392.149 291.151 393.611C292.613 392.149 294.983 392.149 296.445 393.611ZM296.575 68.4196C295.121 66.9658 295.121 64.6084 296.575 63.1541C295.121 64.6079 292.764 64.6079 291.31 63.1541C292.763 64.6079 292.763 66.9653 291.31 68.4196C292.763 66.9653 295.121 66.9653 296.575 68.4196ZM117.572 377.416C116.12 375.964 116.12 373.61 117.572 372.158C116.12 373.61 113.766 373.61 112.313 372.158C113.766 373.61 113.766 375.964 112.313 377.416C113.765 375.964 116.12 375.964 117.572 377.416ZM117.67 84.6136C116.223 83.1668 116.223 80.8215 117.67 79.3747C116.223 80.8215 113.878 80.8215 112.431 79.3747C113.878 80.8215 113.878 83.1668 112.431 84.6136C113.878 83.1668 116.223 83.1668 117.67 84.6136ZM215.255 52.2421C213.791 50.7788 213.791 48.4059 215.255 46.942C213.791 48.4053 211.418 48.4053 209.954 46.942C211.418 48.4053 211.418 50.7783 209.954 52.2421C211.418 50.7783 213.791 50.7783 215.255 52.2421ZM68.7981 133.586C67.3282 132.116 67.3282 129.733 68.7981 128.263C67.3282 129.732 64.9447 129.732 63.4744 128.263C64.9442 129.732 64.9442 132.116 63.4744 133.586C64.9442 132.116 67.3277 132.116 68.7981 133.586ZM68.6149 328.452C67.2379 327.075 67.2379 324.842 68.6149 323.465C67.2379 324.842 65.005 324.842 63.628 323.465C65.005 324.842 65.005 327.075 63.628 328.452C65.005 327.075 67.2379 327.075 68.6149 328.452ZM247.704 52.3074C246.242 50.8451 246.242 48.4746 247.704 47.0123C246.242 48.4746 243.872 48.4746 242.409 47.0123C243.872 48.4746 243.872 50.8451 242.409 52.3074C243.872 50.8456 246.242 50.8456 247.704 52.3074ZM247.744 409.969C246.275 408.501 246.275 406.12 247.744 404.651C246.275 406.12 243.894 406.12 242.426 404.651C243.895 406.12 243.895 408.501 242.426 409.969C243.894 408.501 246.275 408.501 247.744 409.969ZM182.654 52.2396C181.234 50.819 181.234 48.5153 182.654 47.0941C181.234 48.5148 178.93 48.5148 177.509 47.0941C178.929 48.5148 178.929 50.8185 177.509 52.2396C178.929 50.8185 181.233 50.8185 182.654 52.2396ZM133.571 393.305C132.227 391.961 132.227 389.783 133.571 388.439C132.227 389.782 130.049 389.782 128.705 388.439C130.049 389.782 130.049 391.961 128.705 393.305C130.049 391.961 132.227 391.961 133.571 393.305ZM133.746 68.2243C132.396 66.8739 132.396 64.6842 133.746 63.3333C132.396 64.6837 130.206 64.6837 128.855 63.3333C130.206 64.6837 130.206 66.8734 128.855 68.2243C130.206 66.8734 132.395 66.8734 133.746 68.2243ZM35.9758 230.727C34.631 229.382 34.631 227.201 35.9758 225.856C34.631 227.201 32.4503 227.201 31.1054 225.856C32.4503 227.201 32.4503 229.382 31.1054 230.727C32.4503 229.382 34.631 229.382 35.9758 230.727ZM52.1051 311.941C50.837 310.673 50.837 308.617 52.1051 307.348C50.837 308.616 48.7808 308.616 47.5123 307.348C48.7803 308.616 48.7803 310.672 47.5123 311.941C48.7803 310.673 50.8365 310.673 52.1051 311.941ZM393.839 165.878C392.534 164.574 392.534 162.46 393.839 161.156C392.534 162.46 390.421 162.46 389.116 161.156C390.421 162.46 390.421 164.574 389.116 165.878C390.42 164.574 392.534 164.574 393.839 165.878ZM393.88 295.822C392.574 294.516 392.574 292.398 393.88 291.092C392.574 292.398 390.456 292.398 389.15 291.092C390.456 292.398 390.456 294.516 389.15 295.822C390.456 294.516 392.574 294.516 393.88 295.822ZM52.2989 149.292C50.9942 147.987 50.9942 145.872 52.2989 144.567C50.9942 145.872 48.8787 145.872 47.5745 144.567C48.8792 145.872 48.8792 147.988 47.5745 149.292C48.8792 147.987 50.9942 147.987 52.2989 149.292ZM280.069 409.752C278.73 408.413 278.73 406.242 280.069 404.903C278.73 406.242 276.559 406.242 275.22 404.903C276.559 406.242 276.559 408.413 275.22 409.752C276.559 408.413 278.729 408.413 280.069 409.752ZM279.966 51.9721C278.661 50.6669 278.661 48.5509 279.966 47.2457C278.661 48.5509 276.545 48.5509 275.24 47.2457C276.545 48.5509 276.545 50.6669 275.24 51.9721C276.545 50.6669 278.661 50.6669 279.966 51.9721ZM35.9708 198.017C34.6616 196.708 34.6616 194.585 35.9708 193.275C34.6616 194.584 32.5386 194.584 31.2289 193.275C32.5381 194.584 32.5381 196.707 31.2289 198.017C32.5386 196.708 34.6616 196.708 35.9708 198.017ZM35.8242 263.092C34.6009 261.869 34.6009 259.885 35.8242 258.662C34.6009 259.885 32.6175 259.885 31.3941 258.662C32.6175 259.885 32.6175 261.869 31.3941 263.092C32.617 261.869 34.6009 261.869 35.8242 263.092ZM409.86 246.878C408.644 245.661 408.644 243.689 409.86 242.473C408.644 243.689 406.672 243.689 405.455 242.473C406.672 243.689 406.672 245.661 405.455 246.878C406.672 245.662 408.644 245.662 409.86 246.878ZM409.855 214.487C408.609 213.242 408.609 211.223 409.855 209.978C408.609 211.223 406.59 211.223 405.345 209.978C406.591 211.223 406.591 213.242 405.345 214.487C406.59 213.242 408.609 213.242 409.855 214.487ZM344.764 376.938C343.543 375.717 343.543 373.738 344.764 372.518C343.543 373.739 341.564 373.739 340.344 372.518C341.565 373.739 341.565 375.717 340.344 376.938C341.564 375.717 343.543 375.717 344.764 376.938ZM344.848 84.1272C343.646 82.9254 343.646 80.9776 344.848 79.7758C343.646 80.9776 341.698 80.9776 340.497 79.7758C341.698 80.9776 341.698 82.9254 340.497 84.1272C341.698 82.9259 343.646 82.9259 344.848 84.1272ZM361.098 100.285C359.885 99.0717 359.885 97.1054 361.098 95.8925C359.885 97.1054 357.918 97.1054 356.706 95.8925C357.919 97.1054 357.919 99.0717 356.706 100.285C357.918 99.0717 359.885 99.0717 361.098 100.285ZM149.476 409.52C148.256 408.3 148.256 406.323 149.476 405.103C148.256 406.323 146.279 406.323 145.059 405.103C146.279 406.323 146.279 408.3 145.059 409.52C146.279 408.3 148.256 408.3 149.476 409.52ZM360.913 360.773C359.694 359.553 359.694 357.576 360.913 356.357C359.694 357.577 357.716 357.577 356.497 356.357C357.717 357.577 357.717 359.554 356.497 360.773C357.716 359.553 359.694 359.553 360.913 360.773ZM149.615 51.5067C148.416 50.3079 148.416 48.3642 149.615 47.1654C148.416 48.3642 146.473 48.3642 145.274 47.1654C146.473 48.3642 146.473 50.3079 145.274 51.5067C146.473 50.3079 148.416 50.3079 149.615 51.5067ZM377.293 344.578C376.117 343.403 376.117 341.497 377.293 340.321C376.117 341.497 374.211 341.497 373.036 340.321C374.211 341.497 374.211 343.403 373.036 344.578C374.211 343.403 376.117 343.403 377.293 344.578ZM377.201 116.691C376.025 115.515 376.025 113.608 377.201 112.431C376.025 113.608 374.118 113.608 372.941 112.431C374.117 113.608 374.117 115.515 372.941 116.691C374.117 115.515 376.025 115.515 377.201 116.691ZM230.662 425.564C229.539 424.44 229.539 422.617 230.662 421.493C229.539 422.617 227.716 422.617 226.591 421.493C227.715 422.617 227.715 424.44 226.591 425.564C227.715 424.44 229.538 424.44 230.662 425.564ZM409.737 181.793C408.617 180.674 408.617 178.859 409.737 177.74C408.617 178.859 406.803 178.859 405.683 177.74C406.803 178.859 406.803 180.674 405.683 181.793C406.803 180.674 408.618 180.674 409.737 181.793ZM328.594 67.8634C327.471 66.7399 327.471 64.9191 328.594 63.7957C327.471 64.9191 325.65 64.9191 324.526 63.7957C325.65 64.9191 325.65 66.7399 324.526 67.8634C325.649 66.7399 327.471 66.7399 328.594 67.8634ZM35.52 295.358C34.4688 294.307 34.4688 292.602 35.52 291.551C34.4688 292.602 32.764 292.602 31.7128 291.551C32.764 292.602 32.764 294.307 31.7128 295.358C32.764 294.307 34.4688 294.307 35.52 295.358ZM35.5547 165.321C34.4673 164.234 34.4673 162.471 35.5547 161.384C34.4673 162.471 32.7048 162.471 31.6175 161.384C32.7048 162.471 32.7048 164.234 31.6175 165.321C32.7048 164.234 34.4673 164.234 35.5547 165.321ZM409.738 279.257C408.617 278.137 408.617 276.32 409.738 275.199C408.617 276.32 406.801 276.32 405.68 275.199C406.801 276.32 406.801 278.137 405.68 279.257C406.8 278.137 408.617 278.137 409.738 279.257ZM328.418 392.924C327.302 391.808 327.302 389.998 328.418 388.882C327.302 389.998 325.492 389.998 324.376 388.882C325.492 389.998 325.492 391.808 324.376 392.924C325.492 391.808 327.302 391.808 328.418 392.924ZM230.767 35.1827C229.662 34.0778 229.662 32.2866 230.767 31.1817C229.662 32.2866 227.87 32.2866 226.766 31.1817C227.871 32.2866 227.871 34.0778 226.766 35.1827C227.87 34.0778 229.662 34.0778 230.767 35.1827ZM198.416 35.266C197.315 34.1646 197.315 32.379 198.416 31.2776C197.315 32.379 195.529 32.379 194.428 31.2776C195.529 32.379 195.529 34.1646 194.428 35.266C195.529 34.1646 197.315 34.1646 198.416 35.266ZM393.462 132.951C392.387 131.876 392.387 130.133 393.462 129.058C392.387 130.133 390.644 130.133 389.569 129.058C390.644 130.133 390.644 131.876 389.569 132.951C390.644 131.875 392.387 131.875 393.462 132.951ZM393.402 327.83C392.367 326.794 392.367 325.115 393.402 324.08C392.367 325.115 390.688 325.115 389.652 324.08C390.688 325.115 390.688 326.794 389.652 327.83C390.688 326.794 392.367 326.794 393.402 327.83ZM262.997 35.0612C262.006 34.0697 262.006 32.4618 262.997 31.4699C262.006 32.4613 260.398 32.4613 259.406 31.4699C260.397 32.4613 260.397 34.0692 259.406 35.0612C260.398 34.0697 262.006 34.0697 262.997 35.0612ZM19.0102 213.922C18.0017 212.913 18.0017 211.278 19.0102 210.269C18.0017 211.277 16.3662 211.277 15.3572 210.269C16.3657 211.277 16.3657 212.913 15.3572 213.922C16.3657 212.913 18.0012 212.913 19.0102 213.922ZM19.195 246.424C18.2055 245.435 18.2055 243.83 19.195 242.841C18.2055 243.83 16.6011 243.83 15.6112 242.841C16.6006 243.83 16.6006 245.434 15.6112 246.424C16.6011 245.435 18.2055 245.435 19.195 246.424ZM67.9226 100.167C66.9166 99.1606 66.9166 97.5291 67.9226 96.5226C66.9166 97.5286 65.2851 97.5286 64.2786 96.5226C65.2846 97.5286 65.2846 99.1601 64.2786 100.167C65.2851 99.1606 66.9161 99.1606 67.9226 100.167ZM263.016 425.548C262.014 424.546 262.014 422.922 263.016 421.92C262.014 422.922 260.389 422.922 259.387 421.92C260.389 422.922 260.389 424.546 259.387 425.548C260.389 424.546 262.014 424.546 263.016 425.548ZM311.811 409.195C310.824 408.207 310.824 406.606 311.811 405.619C310.824 406.606 309.222 406.606 308.235 405.619C309.222 406.606 309.222 408.207 308.235 409.195C309.223 408.207 310.824 408.207 311.811 409.195ZM67.9201 360.143C66.9693 359.192 66.9693 357.65 67.9201 356.699C66.9693 357.649 65.4272 357.649 64.4759 356.699C65.4267 357.649 65.4267 359.192 64.4759 360.143C65.4272 359.192 66.9688 359.192 67.9201 360.143ZM84.1588 376.588C83.1593 375.589 83.1593 373.968 84.1588 372.969C83.1593 373.968 81.5389 373.968 80.5394 372.969C81.5389 373.968 81.5389 375.589 80.5394 376.588C81.5384 375.589 83.1593 375.589 84.1588 376.588ZM84.3506 83.8204C83.3405 82.8104 83.3405 81.1724 84.3506 80.1624C83.3405 81.1724 81.7025 81.1724 80.6925 80.1624C81.7025 81.1724 81.7025 82.8104 80.6925 83.8204C81.7025 82.8099 83.34 82.8099 84.3506 83.8204ZM311.953 51.1995C310.967 50.2136 310.967 48.6157 311.953 47.6298C310.967 48.6157 309.37 48.6157 308.384 47.6298C309.37 48.6157 309.37 50.2136 308.384 51.1995C309.37 50.2141 310.967 50.2141 311.953 51.1995ZM165.654 34.9733C164.687 34.006 164.687 32.4377 165.654 31.4704C164.687 32.4377 163.118 32.4377 162.151 31.4704C163.118 32.4377 163.118 34.006 162.151 34.9733C163.118 34.006 164.687 34.006 165.654 34.9733ZM100.344 392.932C99.3744 391.963 99.3744 390.391 100.344 389.423C99.3744 390.392 97.8032 390.392 96.8343 389.423C97.8037 390.392 97.8037 391.963 96.8343 392.932C97.8037 391.963 99.3749 391.963 100.344 392.932ZM100.444 67.2027C99.4969 66.2555 99.4969 64.7193 100.444 63.7721C99.4969 64.7193 97.9608 64.7193 97.0135 63.7721C97.9608 64.7193 97.9608 66.2555 97.0135 67.2027C97.9608 66.2555 99.4964 66.2555 100.444 67.2027ZM165.463 425.223C164.492 424.252 164.492 422.678 165.463 421.707C164.492 422.678 162.917 422.678 161.946 421.707C162.917 422.678 162.917 424.252 161.946 425.223C162.917 424.252 164.492 424.252 165.463 425.223ZM51.4696 116.28C50.5037 115.314 50.5037 113.748 51.4696 112.782C50.5037 113.748 48.9375 113.748 47.9716 112.782C48.9375 113.748 48.9375 115.314 47.9716 116.28C48.9375 115.314 50.5037 115.314 51.4696 116.28ZM51.5147 343.747C50.6272 342.859 50.6272 341.419 51.5147 340.532C50.6272 341.419 49.1875 341.419 48.2999 340.532C49.1875 341.419 49.1875 342.859 48.2999 343.747C49.1875 342.859 50.6272 342.859 51.5147 343.747ZM425.829 230.129C424.917 229.218 424.917 227.739 425.829 226.828C424.917 227.739 423.439 227.739 422.527 226.828C423.439 227.739 423.439 229.218 422.527 230.129C423.439 229.218 424.917 229.218 425.829 230.129ZM18.9475 181.264C18.0941 180.411 18.0941 179.027 18.9475 178.173C18.0941 179.027 16.7101 179.027 15.8567 178.173C16.7101 179.027 16.7101 180.411 15.8567 181.264C16.7101 180.411 18.0941 180.411 18.9475 181.264ZM409.29 311.425C408.436 310.571 408.436 309.188 409.29 308.335C408.436 309.188 407.053 309.188 406.2 308.335C407.053 309.188 407.053 310.571 406.2 311.425C407.053 310.571 408.437 310.571 409.29 311.425ZM116.231 408.828C115.384 407.981 115.384 406.609 116.231 405.762C115.384 406.609 114.012 406.609 113.165 405.762C114.012 406.609 114.012 407.981 113.165 408.828C114.012 407.982 115.384 407.982 116.231 408.828ZM35.0265 132.211C34.1822 131.367 34.1822 129.998 35.0265 129.154C34.1822 129.998 32.8137 129.998 31.9699 129.154C32.8142 129.998 32.8142 131.367 31.9699 132.211C32.8137 131.367 34.1822 131.367 35.0265 132.211ZM409.18 148.659C408.331 147.81 408.331 146.434 409.18 145.586C408.331 146.434 406.955 146.434 406.106 145.586C406.955 146.434 406.955 147.81 406.106 148.659C406.954 147.81 408.331 147.81 409.18 148.659ZM18.8275 278.5C18.0544 277.727 18.0544 276.474 18.8275 275.701C18.0544 276.474 16.8014 276.474 16.0284 275.701C16.8014 276.474 16.8014 277.727 16.0284 278.5C16.8014 277.727 18.0549 277.727 18.8275 278.5ZM35.014 327.237C34.2439 326.467 34.2439 325.219 35.014 324.449C34.2439 325.219 32.996 325.219 32.2259 324.449C32.996 325.219 32.996 326.467 32.2259 327.237C32.996 326.467 34.2444 326.467 35.014 327.237ZM213.899 441.31C213.136 440.546 213.136 439.308 213.899 438.545C213.136 439.309 211.898 439.309 211.135 438.545C211.898 439.309 211.898 440.547 211.135 441.31C211.898 440.546 213.136 440.546 213.899 441.31ZM295.238 425.152C294.467 424.381 294.467 423.131 295.238 422.36C294.467 423.131 293.217 423.131 292.446 422.36C293.217 423.131 293.217 424.381 292.446 425.152C293.217 424.381 294.467 424.381 295.238 425.152ZM213.802 18.3421C213.046 17.5856 213.046 16.3587 213.802 15.6022C213.046 16.3587 211.819 16.3587 211.062 15.6022C211.819 16.3587 211.819 17.5856 211.062 18.3421C211.819 17.5856 213.046 17.5856 213.802 18.3421ZM295.146 34.5507C294.388 33.7931 294.388 32.5647 295.146 31.8072C294.388 32.5647 293.16 32.5647 292.402 31.8072C293.16 32.5647 293.16 33.7931 292.402 34.5507C293.16 33.7931 294.388 33.7931 295.146 34.5507ZM181.198 440.997C180.565 440.364 180.565 439.336 181.198 438.703C180.565 439.336 179.537 439.336 178.904 438.703C179.537 439.336 179.537 440.364 178.904 440.997C179.537 440.364 180.564 440.364 181.198 440.997ZM376.408 83.084C375.774 82.4505 375.774 81.4229 376.408 80.7894C375.774 81.4229 374.747 81.4229 374.113 80.7894C374.747 81.4229 374.747 82.4505 374.113 83.084C374.747 82.4505 375.774 82.4505 376.408 83.084ZM246.272 440.929C245.639 440.296 245.639 439.269 246.272 438.636C245.639 439.269 244.613 439.269 243.98 438.636C244.613 439.269 244.613 440.296 243.98 440.929C244.613 440.296 245.639 440.296 246.272 440.929ZM376.364 375.988C375.73 375.354 375.73 374.326 376.364 373.693C375.73 374.327 374.703 374.327 374.069 373.693C374.703 374.327 374.703 375.354 374.069 375.988C374.703 375.354 375.73 375.354 376.364 375.988ZM246.243 18.2778C245.539 17.5735 245.539 16.432 246.243 15.7277C245.539 16.432 244.397 16.432 243.693 15.7277C244.397 16.432 244.397 17.5735 243.693 18.2778C244.397 17.5735 245.539 17.5735 246.243 18.2778ZM181.279 18.0133C180.588 17.322 180.588 16.201 181.279 15.5098C180.588 16.201 179.467 16.201 178.776 15.5098C179.467 16.201 179.467 17.322 178.776 18.0133C179.467 17.322 180.588 17.322 181.279 18.0133ZM360.051 392.291C359.42 391.66 359.42 390.638 360.051 390.007C359.42 390.637 358.398 390.637 357.767 390.007C358.397 390.637 358.397 391.66 357.767 392.291C358.398 391.66 359.42 391.66 360.051 392.291ZM132.597 34.4643C131.902 33.769 131.902 32.641 132.597 31.9458C131.902 32.641 130.774 32.641 130.079 31.9458C130.774 32.641 130.774 33.769 130.079 34.4643C130.775 33.769 131.902 33.769 132.597 34.4643ZM343.863 50.7477C343.257 50.1413 343.257 49.1573 343.863 48.5509C343.257 49.1573 342.273 49.1573 341.666 48.5509C342.273 49.1573 342.273 50.1413 341.666 50.7477C342.273 50.1413 343.256 50.1413 343.863 50.7477ZM359.994 66.8539C359.389 66.2489 359.389 65.268 359.994 64.6631C359.389 65.268 358.408 65.268 357.804 64.6631C358.408 65.268 358.408 66.2489 357.804 66.8539C358.408 66.2484 359.389 66.2484 359.994 66.8539ZM18.4982 148.19C17.8908 147.582 17.8908 146.597 18.4982 145.99C17.8908 146.597 16.9054 146.597 16.2979 145.99C16.9054 146.597 16.9054 147.582 16.2979 148.19C16.9054 147.582 17.8903 147.582 18.4982 148.19ZM2.1074 229.337C1.52558 228.755 1.52558 227.811 2.1074 227.229C1.52558 227.811 0.581818 227.811 0 227.229C0.581818 227.811 0.581818 228.755 0 229.337C0.581818 228.755 1.52558 228.755 2.1074 229.337ZM425.018 294.538C424.436 293.956 424.436 293.013 425.018 292.431C424.436 293.012 423.493 293.012 422.91 292.431C423.492 293.012 423.492 293.956 422.91 294.538C423.493 293.956 424.436 293.956 425.018 294.538ZM18.4154 310.637C17.8667 310.088 17.8667 309.198 18.4154 308.649C17.8667 309.197 16.9766 309.197 16.4274 308.649C16.9761 309.197 16.9761 310.087 16.4274 310.637C16.9766 310.088 17.8662 310.088 18.4154 310.637ZM425.166 164.448C424.598 163.88 424.598 162.959 425.166 162.391C424.598 162.959 423.677 162.959 423.11 162.391C423.677 162.959 423.677 163.88 423.11 164.448C423.677 163.88 424.598 163.88 425.166 164.448ZM392.547 359.614C391.966 359.033 391.966 358.091 392.547 357.51C391.966 358.091 391.024 358.091 390.443 357.51C391.024 358.091 391.024 359.033 390.443 359.614C391.024 359.033 391.966 359.033 392.547 359.614ZM343.794 408.434C343.203 407.844 343.203 406.886 343.794 406.296C343.203 406.886 342.246 406.886 341.655 406.296C342.246 406.886 342.246 407.844 341.655 408.434C342.246 407.844 343.203 407.844 343.794 408.434ZM392.507 99.4156C391.924 98.8328 391.924 97.8875 392.507 97.3047C391.924 97.8875 390.979 97.8875 390.396 97.3047C390.979 97.8875 390.979 98.8328 390.396 99.4156C390.979 98.8328 391.924 98.8328 392.507 99.4156ZM1.95127 196.823C1.44425 196.316 1.44425 195.494 1.95127 194.987C1.44425 195.494 0.62248 195.494 0.11546 194.987C0.62248 195.494 0.62248 196.316 0.11546 196.823C0.621978 196.316 1.44425 196.316 1.95127 196.823ZM278.611 17.8807C278.13 17.3998 278.13 16.6197 278.611 16.1388C278.13 16.6197 277.349 16.6197 276.869 16.1388C277.349 16.6197 277.349 17.3998 276.869 17.8807C277.349 17.3998 278.129 17.3998 278.611 17.8807ZM327.224 34.1149C326.723 33.6144 326.723 32.8027 327.224 32.3022C326.723 32.8027 325.911 32.8027 325.411 32.3022C325.911 32.8027 325.911 33.6144 325.411 34.1149C325.912 33.6144 326.723 33.6144 327.224 34.1149ZM2.02959 261.66C1.55319 261.184 1.55319 260.411 2.02959 259.935C1.55319 260.411 0.780108 260.411 0.30371 259.935C0.780108 260.411 0.780108 261.184 0.30371 261.66C0.780108 261.184 1.55269 261.184 2.02959 261.66ZM278.444 440.749C277.988 440.292 277.988 439.552 278.444 439.095C277.988 439.551 277.248 439.551 276.791 439.095C277.248 439.551 277.248 440.292 276.791 440.749C277.248 440.292 277.988 440.292 278.444 440.749ZM327.236 424.402C326.777 423.944 326.777 423.2 327.236 422.741C326.777 423.2 326.034 423.2 325.575 422.741C326.034 423.2 326.034 423.944 325.575 424.402C326.033 423.944 326.777 423.944 327.236 424.402ZM148.302 17.6689C147.846 17.2121 147.846 16.4716 148.302 16.0148C147.846 16.4716 147.105 16.4716 146.648 16.0148C147.105 16.4716 147.105 17.2121 146.648 17.6689C147.105 17.2121 147.846 17.2121 148.302 17.6689ZM408.675 343.348C408.17 342.842 408.17 342.023 408.675 341.518C408.17 342.023 407.35 342.023 406.844 341.518C407.35 342.023 407.35 342.843 406.844 343.348C407.35 342.843 408.17 342.843 408.675 343.348ZM441.175 213.187C440.669 212.681 440.669 211.861 441.175 211.355C440.669 211.861 439.849 211.861 439.343 211.355C439.849 211.861 439.849 212.681 439.343 213.187C439.849 212.681 440.669 212.681 441.175 213.187ZM83.3154 50.1975C82.8606 49.7427 82.8606 49.0057 83.3154 48.5509C82.8606 49.0057 82.1237 49.0057 81.6689 48.5509C82.1237 49.0057 82.1237 49.7427 81.6689 50.1975C82.1237 49.7427 82.8606 49.7427 83.3154 50.1975ZM50.7462 82.7667C50.2914 82.3119 50.2914 81.575 50.7462 81.1202C50.2914 81.575 49.5544 81.575 49.0996 81.1202C49.5544 81.575 49.5544 82.3119 49.0996 82.7667C49.5544 82.3119 50.2919 82.3119 50.7462 82.7667ZM66.9954 66.4598C66.5532 66.0175 66.5532 65.3007 66.9954 64.8584C66.5532 65.3007 65.8363 65.3007 65.394 64.8584C65.8363 65.3007 65.8363 66.0175 65.394 66.4598C65.8358 66.0175 66.5532 66.0175 66.9954 66.4598ZM67.0376 391.839C66.5873 391.388 66.5873 390.658 67.0376 390.209C66.5873 390.659 65.8574 390.659 65.4076 390.209C65.8579 390.659 65.8579 391.389 65.4076 391.839C65.8579 391.388 66.5878 391.388 67.0376 391.839ZM50.7005 375.508C50.2607 375.068 50.2607 374.355 50.7005 373.916C50.2607 374.355 49.5479 374.355 49.1082 373.916C49.5479 374.355 49.5479 375.068 49.1082 375.508C49.5479 375.068 50.2607 375.068 50.7005 375.508ZM441.12 245.505C440.657 245.042 440.657 244.291 441.12 243.827C440.657 244.291 439.906 244.291 439.442 243.827C439.906 244.291 439.906 245.042 439.442 245.505C439.906 245.042 440.657 245.042 441.12 245.505ZM148.258 440.673C147.808 440.224 147.808 439.495 148.258 439.045C147.808 439.495 147.079 439.495 146.63 439.045C147.079 439.495 147.079 440.223 146.63 440.673C147.079 440.224 147.808 440.224 148.258 440.673ZM83.2346 408.035C82.7843 407.585 82.7843 406.855 83.2346 406.405C82.7843 406.855 82.0549 406.855 81.6046 406.405C82.0549 406.855 82.0549 407.585 81.6046 408.035C82.0544 407.585 82.7843 407.585 83.2346 408.035ZM408.562 115.456C408.12 115.014 408.12 114.297 408.562 113.855C408.12 114.297 407.403 114.297 406.961 113.855C407.403 114.297 407.403 115.014 406.961 115.456C407.403 115.014 408.12 115.014 408.562 115.456ZM196.829 456.619C196.513 456.303 196.513 455.791 196.829 455.475C196.513 455.791 196.001 455.791 195.686 455.475C196.001 455.791 196.001 456.303 195.686 456.619C196.001 456.303 196.513 456.303 196.829 456.619ZM440.83 277.773C440.515 277.457 440.515 276.945 440.83 276.63C440.515 276.945 440.003 276.945 439.687 276.63C440.003 276.945 440.003 277.457 439.687 277.773C440.003 277.457 440.515 277.457 440.83 277.773ZM196.954 1.14356C196.638 0.827798 196.638 0.315758 196.954 0C196.638 0.315758 196.126 0.315758 195.81 0C196.126 0.315758 196.126 0.827798 195.81 1.14356C196.126 0.827798 196.638 0.827798 196.954 1.14356ZM229.419 1.28512C229.1 0.966351 229.1 0.449289 229.419 0.130519C229.1 0.449289 228.583 0.449289 228.264 0.130519C228.583 0.449289 228.583 0.966351 228.264 1.28512C228.583 0.966351 229.1 0.966351 229.419 1.28512ZM34.1822 358.977C33.872 358.666 33.872 358.164 34.1822 357.854C33.872 358.164 33.3694 358.164 33.0592 357.854C33.3694 358.164 33.3694 358.666 33.0592 358.977C33.3689 358.666 33.872 358.666 34.1822 358.977ZM1.68772 293.94C1.37347 293.625 1.37347 293.116 1.68772 292.802C1.37347 293.116 0.864444 293.116 0.550192 292.802C0.864444 293.116 0.864444 293.625 0.550192 293.94C0.864444 293.625 1.37347 293.625 1.68772 293.94ZM424.543 326.656C424.226 326.339 424.226 325.825 424.543 325.508C424.226 325.825 423.712 325.825 423.395 325.508C423.712 325.825 423.712 326.339 423.395 326.656C423.712 326.339 424.226 326.339 424.543 326.656ZM272.812 172.919V172.917H272.81V172.919H272.812ZM248.67 378.429C246.657 376.416 246.657 373.153 248.67 371.14C246.657 373.153 243.393 373.153 241.38 371.14C243.393 373.153 243.393 376.416 241.38 378.429C243.393 376.416 246.657 376.416 248.67 378.429ZM135.376 135.059C132.982 132.665 132.982 128.784 135.376 126.39C132.982 128.784 129.101 128.784 126.707 126.39C129.101 128.784 129.101 132.665 126.707 135.059C129.101 132.666 132.982 132.666 135.376 135.059ZM198.31 425.496C197.191 424.376 197.191 422.561 198.31 421.441C197.191 422.561 195.375 422.561 194.255 421.441C195.375 422.561 195.375 424.376 194.255 425.496C195.375 424.376 197.19 424.376 198.31 425.496ZM252.031 219.074C248.207 215.251 248.207 209.051 252.031 205.227C248.207 209.051 242.007 209.051 238.183 205.227C242.007 209.051 242.007 215.251 238.183 219.074C242.007 215.251 248.207 215.251 252.031 219.074ZM298.314 330.441C295.863 327.99 295.863 324.016 298.314 321.565C295.863 324.016 291.889 324.016 289.438 321.565C291.889 324.016 291.889 327.989 289.438 330.441C291.889 327.99 295.863 327.99 298.314 330.441ZM203.397 235.436C199.478 231.516 199.478 225.163 203.397 221.243C199.478 225.163 193.124 225.163 189.205 221.243C193.124 225.163 193.124 231.516 189.205 235.436C193.124 231.516 199.478 231.516 203.397 235.436ZM215.183 409.887C213.756 408.459 213.756 406.145 215.183 404.717C213.756 406.145 211.441 406.145 210.014 404.717C211.442 406.145 211.442 408.459 210.014 409.887C211.441 408.459 213.756 408.459 215.183 409.887ZM119.125 313.824C116.822 311.522 116.822 307.788 119.125 305.486C116.822 307.788 113.089 307.788 110.786 305.486C113.089 307.788 113.089 311.522 110.786 313.824C113.089 311.522 116.822 311.522 119.125 313.824ZM119.992 249.562C117.249 246.82 117.249 242.373 119.992 239.631C117.249 242.373 112.802 242.373 110.06 239.631C112.802 242.373 112.802 246.82 110.06 249.562C112.802 246.82 117.249 246.82 119.992 249.562ZM233.025 102.413C230.718 100.104 230.718 96.3624 233.025 94.0547C230.717 96.3629 226.975 96.3629 224.668 94.0547C226.976 96.3629 226.976 100.105 224.668 102.413C226.976 100.104 230.718 100.104 233.025 102.413ZM346.694 183.731C344.458 181.496 344.458 177.872 346.694 175.637C344.458 177.872 340.834 177.872 338.6 175.637C340.835 177.872 340.835 181.496 338.6 183.731C340.834 181.496 344.458 181.496 346.694 183.731ZM362.731 199.676C360.674 197.619 360.674 194.285 362.731 192.228C360.674 194.285 357.34 194.285 355.283 192.228C357.34 194.285 357.34 197.619 355.283 199.676C357.34 197.619 360.674 197.619 362.731 199.676ZM182.456 409.729C181.119 408.392 181.119 406.224 182.456 404.887C181.119 406.224 178.951 406.224 177.614 404.887C178.951 406.224 178.951 408.392 177.614 409.729C178.95 408.392 181.119 408.392 182.456 409.729ZM151.573 118.495C149.337 116.259 149.337 112.634 151.573 110.398C149.337 112.634 145.713 112.634 143.477 110.398C145.713 112.634 145.713 116.259 143.477 118.495C145.713 116.259 149.337 116.259 151.573 118.495ZM52.588 182.15C51.1066 180.668 51.1066 178.267 52.588 176.785C51.1066 178.267 48.7051 178.267 47.2236 176.785C48.7051 178.267 48.7051 180.668 47.2236 182.15C48.7051 180.668 51.1066 180.668 52.588 182.15ZM135.43 330.141C133.124 327.835 133.124 324.096 135.43 321.79C133.124 324.096 129.385 324.096 127.079 321.79C129.385 324.096 129.385 327.835 127.079 330.141C129.385 327.835 133.124 327.835 135.43 330.141ZM69.1249 166.293C67.4477 164.616 67.4477 161.897 69.1249 160.22C67.4477 161.897 64.7289 161.897 63.0517 160.22C64.7289 161.897 64.7289 164.616 63.0517 166.293C64.7289 164.616 67.4477 164.616 69.1249 166.293ZM169.894 201.977C166.526 198.609 166.526 193.15 169.894 189.783C166.526 193.15 161.067 193.15 157.7 189.783C161.067 193.15 161.067 198.609 157.7 201.977C161.067 198.609 166.526 198.609 169.894 201.977ZM169.792 267.028C166.432 263.667 166.432 258.218 169.792 254.857C166.432 258.218 160.983 258.218 157.622 254.857C160.983 258.218 160.983 263.667 157.622 267.028C160.983 263.667 166.432 263.667 169.792 267.028ZM86.4419 216.007C84.2477 213.813 84.2477 210.256 86.4419 208.061C84.2477 210.256 80.6905 210.256 78.4962 208.061C80.6905 210.256 80.6905 213.813 78.4962 216.007C80.6905 213.813 84.2482 213.813 86.4419 216.007ZM281.902 346.52C279.551 344.169 279.551 340.358 281.902 338.008C279.551 340.359 275.74 340.359 273.39 338.008C275.741 340.359 275.741 344.17 273.39 346.52C275.74 344.169 279.551 344.169 281.902 346.52ZM116.319 50.834C115.55 50.0645 115.55 48.8165 116.319 48.0464C115.55 48.816 114.302 48.816 113.532 48.0464C114.301 48.816 114.301 50.064 113.532 50.834C114.302 50.064 115.55 50.064 116.319 50.834ZM132.303 424.736C131.672 424.105 131.672 423.082 132.303 422.451C131.672 423.082 130.649 423.082 130.018 422.451C130.649 423.082 130.649 424.105 130.018 424.736C130.649 424.105 131.672 424.105 132.303 424.736ZM281.927 118.873C279.569 116.514 279.569 112.691 281.927 110.333C279.569 112.691 275.746 112.691 273.388 110.333C275.746 112.691 275.746 116.515 273.388 118.873C275.746 116.515 279.569 116.515 281.927 118.873ZM425.446 262.434C424.675 261.663 424.675 260.413 425.446 259.642C424.675 260.413 423.425 260.413 422.654 259.642C423.425 260.413 423.425 261.663 422.654 262.434C423.425 261.663 424.675 261.663 425.446 262.434ZM425.438 197.287C424.667 196.516 424.667 195.266 425.438 194.496C424.667 195.266 423.417 195.266 422.647 194.496C423.417 195.266 423.417 196.516 422.647 197.287C423.417 196.516 424.667 196.516 425.438 197.287ZM99.2685 424.057C98.9623 423.751 98.9623 423.254 99.2685 422.949C98.9623 423.255 98.4658 423.255 98.1601 422.949C98.4663 423.255 98.4663 423.751 98.1601 424.057C98.4658 423.751 98.9623 423.751 99.2685 424.057ZM1.69726 163.824C1.39154 163.518 1.39154 163.023 1.69726 162.718C1.39154 163.024 0.896069 163.024 0.590853 162.718C0.896571 163.024 0.896571 163.519 0.590853 163.824C0.896069 163.519 1.39154 163.519 1.69726 163.824ZM34.145 98.756C33.8353 98.4462 33.8353 97.9437 34.145 97.6335C33.8353 97.9432 33.3328 97.9432 33.0226 97.6335C33.3323 97.9432 33.3323 98.4457 33.0226 98.756C33.3328 98.4462 33.8353 98.4462 34.145 98.756ZM229.381 456.646C229.075 456.341 229.075 455.845 229.381 455.54C229.075 455.846 228.58 455.846 228.274 455.54C228.58 455.846 228.58 456.341 228.274 456.646C228.58 456.341 229.075 456.341 229.381 456.646ZM440.855 180.136C440.549 179.83 440.549 179.334 440.855 179.029C440.549 179.335 440.054 179.335 439.749 179.029C440.054 179.335 440.054 179.83 439.749 180.136C440.054 179.83 440.55 179.83 440.855 180.136ZM424.596 131.498C424.286 131.189 424.286 130.686 424.596 130.376C424.286 130.686 423.783 130.686 423.473 130.376C423.783 130.686 423.783 131.188 423.473 131.498C423.783 131.188 424.286 131.188 424.596 131.498ZM99.2755 33.6029C98.9698 33.2972 98.9698 32.8022 99.2755 32.4965C98.9698 32.8022 98.4748 32.8022 98.1691 32.4965C98.4748 32.8022 98.4748 33.2972 98.1691 33.6029C98.4748 33.2972 98.9703 33.2972 99.2755 33.6029Z" fill="#013475"/>
</svg>
