<svg width="9" height="16" viewBox="0 0 9 16" fill="none" xmlns="http://www.w3.org/2000/svg">
<path d="M2.4 9.02C2.34 9.02 1.02 9.02 0.42 9.02C0.1 9.02 0 8.9 0 8.6C0 7.8 0 6.98 0 6.18C0 5.86 0.12 5.76 0.42 5.76H2.4C2.4 5.7 2.4 4.54 2.4 4C2.4 3.2 2.54 2.44 2.94 1.74C3.36 1.02 3.96 0.54 4.72 0.26C5.22 0.0799999 5.72 0 6.26 0H8.22C8.5 0 8.62 0.12 8.62 0.4V2.68C8.62 2.96 8.5 3.08 8.22 3.08C7.68 3.08 7.14 3.08 6.6 3.1C6.06 3.1 5.78 3.36 5.78 3.92C5.76 4.52 5.78 5.1 5.78 5.72H8.1C8.42 5.72 8.54 5.84 8.54 6.16V8.58C8.54 8.9 8.44 9 8.1 9C7.38 9 5.84 9 5.78 9V15.52C5.78 15.86 5.68 15.98 5.32 15.98C4.48 15.98 3.66 15.98 2.82 15.98C2.52 15.98 2.4 15.86 2.4 15.56C2.4 13.46 2.4 9.08 2.4 9.02Z" fill="white"/>
</svg>
