<svg width="50" height="50" viewBox="0 0 50 50" fill="none" xmlns="http://www.w3.org/2000/svg">
<g clip-path="url(#clip0_37_114)">
<path d="M25 35.702C23.4669 35.702 21.9683 35.2473 20.6936 34.3956C19.4189 33.5439 18.4254 32.3333 17.8387 30.9169C17.252 29.5005 17.0985 27.9419 17.3976 26.4383C17.6967 24.9347 18.435 23.5535 19.5191 22.4695C20.6031 21.3854 21.9843 20.6472 23.4879 20.3481C24.9916 20.0491 26.5501 20.2026 27.9665 20.7893C29.3829 21.376 30.5934 22.3696 31.4452 23.6443C32.2969 24.919 32.7514 26.4177 32.7514 27.9508C32.749 30.0058 31.9316 31.976 30.4784 33.4291C29.0253 34.8823 27.0551 35.6996 25 35.702ZM25 22.1525C23.8532 22.1525 22.7322 22.4926 21.7787 23.1297C20.8252 23.7668 20.082 24.6724 19.6432 25.7319C19.2043 26.7914 19.0895 27.9572 19.3132 29.082C19.5369 30.2067 20.0892 31.2399 20.9001 32.0508C21.7109 32.8617 22.7441 33.4139 23.8688 33.6376C24.9936 33.8613 26.1594 33.7465 27.2189 33.3077C28.2784 32.8688 29.184 32.1256 29.8211 31.1721C30.4582 30.2186 30.7983 29.0976 30.7983 27.9508C30.7965 26.4135 30.1851 24.9398 29.0981 23.8528C28.0111 22.7657 26.5373 22.1543 25 22.1525Z" fill="#2854AB"/>
<path d="M35.1621 49.9291H14.8379C14.5789 49.9291 14.3305 49.8262 14.1474 49.643C13.9642 49.4599 13.8613 49.2115 13.8613 48.9525V44.8875C13.8613 41.9333 15.0349 39.1001 17.1238 37.0112C19.2127 34.9223 22.0458 33.7488 25 33.7488C27.9542 33.7488 30.7873 34.9223 32.8762 37.0112C34.9651 39.1001 36.1387 41.9333 36.1387 44.8875V48.9525C36.1387 49.2115 36.0358 49.4599 35.8526 49.643C35.6695 49.8262 35.4211 49.9291 35.1621 49.9291ZM15.8145 47.9759H34.1855V44.8875C34.1855 42.4513 33.2178 40.1149 31.4952 38.3923C29.7725 36.6697 27.4362 35.7019 25 35.7019C22.5638 35.7019 20.2275 36.6697 18.5048 38.3923C16.7822 40.1149 15.8145 42.4513 15.8145 44.8875V47.9759Z" fill="#2854AB"/>
<path d="M38.8613 23.6539C37.3282 23.6539 35.8296 23.1993 34.5548 22.3476C33.2801 21.4959 32.2866 20.2853 31.6998 18.8689C31.1131 17.4526 30.9596 15.894 31.2587 14.3904C31.5577 12.8868 32.296 11.5056 33.38 10.4215C34.464 9.33745 35.8452 8.59919 37.3488 8.30008C38.8524 8.00098 40.411 8.15447 41.8274 8.74115C43.2438 9.32782 44.4544 10.3213 45.3061 11.596C46.1579 12.8708 46.6125 14.3694 46.6125 15.9025C46.6101 17.9575 45.7927 19.9277 44.3396 21.3808C42.8865 22.834 40.9163 23.6514 38.8613 23.6539ZM38.8613 10.1043C37.7145 10.1042 36.5935 10.4442 35.6399 11.0813C34.6864 11.7184 33.9432 12.624 33.5043 13.6835C33.0654 14.743 32.9506 15.9088 33.1743 17.0336C33.398 18.1583 33.9502 19.1915 34.7611 20.0024C35.572 20.8133 36.6051 21.3656 37.7299 21.5893C38.8546 21.8131 40.0205 21.6982 41.08 21.2594C42.1395 20.8205 43.045 20.0774 43.6822 19.1238C44.3193 18.1703 44.6594 17.0493 44.6594 15.9025C44.6576 14.3653 44.0462 12.8915 42.9592 11.8045C41.8723 10.7175 40.3985 10.1061 38.8613 10.1043Z" fill="#2854AB"/>
<path d="M49.0234 37.8809H35.7006C35.4416 37.8809 35.1932 37.778 35.01 37.5949C34.8269 37.4117 34.724 37.1633 34.724 36.9043C34.724 36.6453 34.8269 36.397 35.01 36.2138C35.1932 36.0307 35.4416 35.9278 35.7006 35.9278H48.0469V32.8395C48.0464 31.2352 47.6258 29.659 46.8271 28.2677C46.0284 26.8764 44.8793 25.7184 43.4941 24.909C42.1089 24.0996 40.536 23.667 38.9318 23.6542C37.3275 23.6414 35.7479 24.0488 34.35 24.836C34.1246 24.9622 33.8583 24.9939 33.6095 24.9242C33.3607 24.8546 33.1497 24.6891 33.0226 24.4642C32.8956 24.2392 32.8628 23.9731 32.9316 23.724C33.0003 23.475 33.165 23.2633 33.3894 23.1354C35.0845 22.1804 37.0001 21.6859 38.9456 21.7011C40.8911 21.7164 42.7987 22.2408 44.4786 23.2222C46.1585 24.2036 47.5522 25.6078 48.5208 27.2951C49.4895 28.9824 49.9995 30.8939 50 32.8395V36.9043C50 37.1633 49.8971 37.4117 49.714 37.5949C49.5308 37.778 49.2824 37.8809 49.0234 37.8809Z" fill="#2854AB"/>
<path d="M11.1387 23.6539C9.60562 23.6539 8.10698 23.1993 6.83227 22.3475C5.55756 21.4958 4.56405 20.2852 3.97737 18.8688C3.39069 17.4524 3.23718 15.8939 3.53627 14.3903C3.83536 12.8867 4.57361 11.5055 5.65766 10.4214C6.7417 9.3374 8.12286 8.59916 9.62648 8.30007C11.1301 8.00098 12.6886 8.15448 14.105 8.74116C15.5214 9.32785 16.732 10.3214 17.5837 11.5961C18.4355 12.8708 18.8901 14.3694 18.8901 15.9025C18.8877 17.9576 18.0703 19.9278 16.6171 21.3809C15.164 22.8341 13.1938 23.6515 11.1387 23.6539ZM11.1387 10.1043C9.99192 10.1043 8.87088 10.4443 7.91737 11.0814C6.96385 11.7186 6.22068 12.6241 5.78182 13.6836C5.34297 14.7431 5.22814 15.9089 5.45187 17.0337C5.6756 18.1584 6.22782 19.1916 7.03872 20.0025C7.84962 20.8134 8.88277 21.3656 10.0075 21.5893C11.1323 21.8131 12.2981 21.6982 13.3576 21.2594C14.4171 20.8205 15.3226 20.0773 15.9598 19.1238C16.5969 18.1703 16.9369 17.0493 16.9369 15.9025C16.9352 14.3652 16.3237 12.8915 15.2367 11.8045C14.1497 10.7175 12.6759 10.106 11.1387 10.1043Z" fill="#2854AB"/>
<path d="M14.2994 37.8809H0.976562C0.717562 37.8809 0.469169 37.778 0.286029 37.5949C0.102888 37.4117 0 37.1633 0 36.9043L0 32.8395C0.000506756 30.8939 0.510471 28.9824 1.47915 27.2951C2.44783 25.6078 3.84145 24.2036 5.52136 23.2222C7.20126 22.2408 9.10887 21.7164 11.0544 21.7011C12.9999 21.6859 14.9155 22.1804 16.6105 23.1354C16.8361 23.2628 17.0017 23.4746 17.0711 23.7241C17.1405 23.9737 17.1079 24.2406 16.9805 24.4661C16.8531 24.6916 16.6413 24.8572 16.3917 24.9266C16.1422 24.996 15.8753 24.9634 15.6498 24.836C14.2519 24.0489 12.6723 23.6415 11.0681 23.6543C9.46386 23.6672 7.89096 24.0998 6.50584 24.9092C5.12071 25.7185 3.97164 26.8765 3.17291 28.2678C2.37419 29.6591 1.95365 31.2352 1.95312 32.8395V35.9278H14.2994C14.5584 35.9278 14.8068 36.0307 14.9899 36.2138C15.1731 36.397 15.276 36.6453 15.276 36.9043C15.276 37.1633 15.1731 37.4117 14.9899 37.5949C14.8068 37.778 14.5584 37.8809 14.2994 37.8809Z" fill="#2854AB"/>
<path d="M25 15.5695C23.467 15.5695 21.9683 15.1149 20.6936 14.2632C19.4189 13.4114 18.4254 12.2008 17.8387 10.7845C17.252 9.36808 17.0985 7.80954 17.3976 6.30593C17.6967 4.80231 18.4349 3.42115 19.519 2.3371C20.603 1.25305 21.9842 0.514805 23.4878 0.215716C24.9914 -0.0833719 26.55 0.070131 27.9663 0.656814C29.3827 1.2435 30.5933 2.23701 31.4451 3.51171C32.2968 4.78642 32.7514 6.28507 32.7514 7.81814C32.749 9.8732 31.9316 11.8434 30.4784 13.2966C29.0253 14.7497 27.0551 15.5671 25 15.5695ZM25 2.0199C23.8532 2.0199 22.7322 2.35996 21.7787 2.99708C20.8252 3.6342 20.082 4.53976 19.6432 5.59925C19.2043 6.65874 19.0895 7.82458 19.3132 8.94932C19.5369 10.0741 20.0892 11.1072 20.9001 11.9181C21.7109 12.729 22.7441 13.2812 23.8688 13.505C24.9936 13.7287 26.1594 13.6139 27.2189 13.175C28.2784 12.7362 29.184 11.993 29.8211 11.0395C30.4582 10.086 30.7983 8.96493 30.7983 7.81814C30.7965 6.28089 30.1851 4.80711 29.0981 3.72011C28.0111 2.63311 26.5373 2.02166 25 2.0199Z" fill="#2854AB"/>
</g>
<defs>
<clipPath id="clip0_37_114">
<rect width="50" height="50" fill="white"/>
</clipPath>
</defs>
</svg>
