<svg width="49" height="49" viewBox="0 0 49 49" fill="none" xmlns="http://www.w3.org/2000/svg">
<path fill-rule="evenodd" clip-rule="evenodd" d="M11.1737 43.6276L11.7461 44.6389C11.7465 44.6396 11.7469 44.6402 11.7473 44.6409C12.2545 45.5432 11.9327 46.6947 11.0356 47.2015L8.94755 48.3849C8.94676 48.3854 8.94598 48.3858 8.9452 48.3863C8.04284 48.8936 6.89137 48.5719 6.38431 47.6742L0.244216 36.8247C-0.267745 35.9215 0.0540197 34.7689 0.952451 34.2615L3.04284 33.078L3.04353 33.0776C3.94147 32.5705 5.09333 32.8892 5.60471 33.7872L5.60569 33.7889L6.06618 34.6026L11.4954 31.4592C13.1506 30.502 14.8425 29.8803 16.6604 30.4706C18.417 31.0402 21.2846 32.2683 24.2114 32.7972C24.246 32.8034 24.2801 32.812 24.3135 32.8228C25.8142 33.3087 26.7257 34.8266 26.3159 36.3505C26.2623 36.5503 26.1938 36.7381 26.1112 36.9129C26.3937 36.8248 26.6708 36.7025 26.9436 36.5435L34.3888 32.2075C37.1011 30.6274 38.91 30.8053 39.9335 31.492C40.8197 32.0866 41.2312 33.1013 41.2047 34.0977C41.1779 35.1049 40.6968 36.0664 39.9069 36.5528L26.3973 44.8706C24.9653 45.7543 23.3969 45.962 21.772 45.5284L21.7711 45.5282L12.2851 42.9859L11.1737 43.6276ZM10.38 45.4099L4.24147 34.5631C4.15608 34.4136 3.96461 34.359 3.815 34.4434L1.7252 35.6266L1.72451 35.627C1.57588 35.7109 1.52422 35.9019 1.60882 36.0512L1.60912 36.0516L7.74951 46.9016L7.7498 46.9022C7.83421 47.0515 8.02598 47.1032 8.17598 47.0191L10.2621 45.8368L10.2631 45.8362C10.4124 45.7519 10.4642 45.56 10.38 45.4099ZM10.4012 42.2624L11.7821 41.465C11.9623 41.361 12.1764 41.3327 12.3773 41.3867L22.1765 44.0128C23.3696 44.3311 24.5221 44.1846 25.5733 43.5357L25.5741 43.5353L39.0843 35.2172C39.4501 34.992 39.6242 34.5225 39.6366 34.0561C39.6513 33.5038 39.4209 32.9187 38.8369 32.6758C38.0688 32.3562 36.8903 32.5656 35.1784 33.5628L27.7334 37.8988C26.5303 38.6 25.2694 38.7941 23.8952 38.5754C23.8943 38.5752 23.8934 38.5751 23.8925 38.575L22.9696 38.4248C22.9692 38.4247 19.6956 37.5657 17.9656 37.1008C17.5475 36.9884 17.2993 36.5578 17.4117 36.1398C17.524 35.7218 17.9546 35.4735 18.3726 35.5859C20.0601 36.0393 21.5812 36.5367 23.2192 36.8754C24.0244 36.9638 24.6158 36.6335 24.801 35.9435L24.8011 35.9431C24.9885 35.2464 24.5512 34.572 23.8748 34.3303C20.8898 33.7819 17.9682 32.5437 16.1763 31.9626L16.176 31.9625C14.7974 31.5149 13.536 32.0912 12.2808 32.8171L6.83882 35.9678L10.4012 42.2624ZM3.49657 35.6823C3.97039 35.6117 4.41049 35.9389 4.48098 36.4128C4.54873 36.8868 4.22147 37.3296 3.74755 37.3973C3.27373 37.4678 2.83363 37.1377 2.76314 36.6639C2.69539 36.19 3.02265 35.7499 3.49657 35.6823ZM8.20716 10.1621C12.7404 10.1621 16.4143 13.8361 16.4143 18.3693C16.4143 22.9025 12.7404 26.5765 8.20716 26.5765C3.67402 26.5765 0 22.9025 0 18.3693C0 13.8361 3.67402 10.1621 8.20716 10.1621ZM13.7415 22.0373C14.4392 20.9864 14.8457 19.7254 14.8457 18.3693C14.8457 14.7025 11.8739 11.7307 8.20716 11.7307C4.54039 11.7307 1.56863 14.7025 1.56863 18.3693C1.56863 19.7254 1.9751 20.9864 2.67284 22.0373C3.24902 20.6101 4.36069 19.4566 5.75853 18.8261C5.16667 18.2126 4.80147 17.3793 4.80147 16.4644C4.80147 14.5907 6.33343 13.0587 8.20716 13.0587C10.081 13.0587 11.6129 14.5907 11.6129 16.4644C11.6129 17.3793 11.2477 18.2126 10.6558 18.8261C12.0537 19.4566 13.1654 20.6101 13.7415 22.0373ZM3.89255 23.4149C5.05284 24.408 6.5599 25.0078 8.20716 25.0078C9.85451 25.0078 11.3615 24.408 12.5219 23.4149C12.1244 21.3944 10.3431 19.8702 8.20716 19.8702C6.07127 19.8702 4.29 21.3944 3.89255 23.4149ZM8.20716 18.3016C9.21794 18.3016 10.0443 17.4752 10.0443 16.4644C10.0443 15.4537 9.21794 14.6274 8.20716 14.6274C7.19647 14.6274 6.3701 15.4537 6.3701 16.4644C6.3701 17.4752 7.19647 18.3016 8.20716 18.3016ZM26.3812 1.36265C26.835 1.49941 27.2738 1.68118 27.6918 1.90578L28.5329 1.53176C28.8295 1.3999 29.1767 1.46431 29.4062 1.69382L30.8258 3.11343C31.055 3.34265 31.1196 3.68922 30.9883 3.98569C30.9883 3.98569 30.6156 4.82716 30.6155 4.82716C30.8405 5.24578 31.0225 5.68539 31.1594 6.14078L32.017 6.47088C32.3198 6.58745 32.5196 6.87843 32.5196 7.20284V9.21088C32.5196 9.53539 32.3198 9.82637 32.017 9.94294L31.1589 10.2731C31.0218 10.727 30.8393 11.1658 30.6152 11.5838L30.9883 12.4261C31.1196 12.7225 31.055 13.0691 30.8258 13.2983L29.4062 14.7179C29.177 14.9472 28.8304 15.0118 28.5339 14.8805C28.5339 14.8805 27.6928 14.5079 27.6928 14.5078C27.2751 14.7325 26.8354 14.9145 26.3809 15.0513L26.0508 15.9091C25.9342 16.212 25.6432 16.4118 25.3187 16.4118H23.3107C22.9863 16.4118 22.6953 16.212 22.5787 15.9091L22.2486 15.0514C21.7934 14.9142 21.3541 14.7316 20.9358 14.5074L20.0935 14.8805C19.7971 15.0118 19.4505 14.9472 19.2213 14.7179L17.8017 13.2983C17.5722 13.0688 17.5077 12.7217 17.6396 12.4251L18.0134 11.5844C17.7889 11.167 17.607 10.7275 17.4693 10.2734L16.6105 9.94294C16.3076 9.82637 16.1078 9.53539 16.1078 9.21088V7.20284C16.1078 6.87843 16.3076 6.58745 16.6105 6.47088C16.6105 6.47088 17.4691 6.14039 17.469 6.14049C17.6068 5.68539 17.7888 5.24608 18.0135 4.82784L17.6396 3.98667C17.5077 3.6901 17.5722 3.34294 17.8017 3.11343L19.2213 1.69382C19.4508 1.46431 19.7979 1.3999 20.0945 1.53176C20.0945 1.53176 20.9357 1.90578 20.9356 1.90578C21.3538 1.68108 21.7928 1.49922 22.247 1.36245L22.579 0.501961C22.6957 0.19951 22.9865 0 23.3107 0H25.3187C25.6434 0 25.9345 0.2 26.0509 0.503039L26.3812 1.36265ZM25.0598 2.29716L24.7799 1.56863H23.8487L23.5672 2.29824C23.4741 2.53931 23.2682 2.71912 23.0169 2.77892C22.4429 2.91529 21.8956 3.14206 21.3925 3.45206C21.1722 3.58784 20.899 3.60618 20.6625 3.50098L19.9495 3.18392L19.2918 3.84167L19.6088 4.55461C19.714 4.79118 19.6957 5.06431 19.5599 5.28471C19.2495 5.78833 19.0226 6.33637 18.8843 6.91265C18.8241 7.16363 18.6442 7.36892 18.4034 7.46167L17.6765 7.74137V8.67235L18.4034 8.95216C18.6441 9.0448 18.8238 9.2498 18.8842 9.50059C19.0224 10.0748 19.249 10.6244 19.5592 11.126C19.6956 11.3466 19.7141 11.6202 19.6088 11.8572L19.2918 12.5701L19.9501 13.2283L20.6634 12.9124C20.8991 12.8079 21.1711 12.8261 21.3909 12.9607C21.8944 13.2692 22.4421 13.4982 23.0183 13.6347C23.2702 13.6944 23.4765 13.8746 23.5695 14.1162L23.8492 14.8431H24.7802L25.06 14.1162C25.1529 13.8748 25.3589 13.6947 25.6106 13.6349C26.1841 13.4986 26.7329 13.2722 27.2338 12.9625C27.454 12.8263 27.7273 12.8075 27.964 12.9124L28.6774 13.2283L29.3362 12.5695L29.0202 11.8562C28.9158 11.6205 28.9339 11.3485 29.0685 11.1287C29.3772 10.6252 29.6062 10.0774 29.7427 9.50275C29.8025 9.25108 29.9826 9.0451 30.224 8.95216L30.951 8.67235V7.74137L30.224 7.46167C29.9825 7.36863 29.8023 7.16235 29.7425 6.91049C29.6063 6.3349 29.3795 5.78765 29.0696 5.28471C28.934 5.06461 28.9156 4.79196 29.0202 4.55559L29.3362 3.84226L28.6779 3.18392L27.965 3.50098C27.7284 3.60618 27.4553 3.58784 27.2349 3.45206C26.7319 3.14206 26.1845 2.91529 25.6106 2.77892C25.3588 2.71902 25.1526 2.53882 25.0598 2.29716ZM24.3137 3.91912C26.6823 3.91912 28.6025 5.83735 28.6025 8.20588C28.6025 10.5743 26.6822 12.4947 24.3137 12.4947C21.9452 12.4947 20.027 10.5744 20.027 8.20588C20.027 5.83725 21.9451 3.91912 24.3137 3.91912ZM24.3137 5.48774C22.8119 5.48774 21.5956 6.70402 21.5956 8.20588C21.5956 9.70794 22.8117 10.9261 24.3137 10.9261C25.8159 10.9261 27.0339 9.70804 27.0339 8.20588C27.0339 6.70382 25.8158 5.48774 24.3137 5.48774ZM40.4216 26.5765C35.9021 26.5765 32.2157 22.8901 32.2157 18.3706C32.2157 13.8511 35.9021 10.1647 40.4216 10.1647C44.9411 10.1647 48.6274 13.8511 48.6274 18.3706C48.6274 22.8901 44.9411 26.5765 40.4216 26.5765ZM40.4216 25.0078C44.0772 25.0078 47.0588 22.0262 47.0588 18.3706C47.0588 14.715 44.0772 11.7333 40.4216 11.7333C36.766 11.7333 33.7843 14.715 33.7843 18.3706C33.7843 22.0262 36.766 25.0078 40.4216 25.0078ZM39.6373 14.0365V13.6757C39.6373 13.2428 39.9887 12.8914 40.4216 12.8914C40.8544 12.8914 41.2059 13.2428 41.2059 13.6757V14.0275C42.0927 14.2321 42.9083 14.8064 43.3311 15.8138C43.4986 16.213 43.3105 16.673 42.9114 16.8406C42.5123 17.008 42.0522 16.82 41.8847 16.4208C41.5089 15.5254 40.5039 15.3475 39.7835 15.6309C39.3791 15.79 39.0496 16.112 39.0731 16.5866L39.0732 16.5885C39.0905 16.9544 39.3324 17.16 39.6151 17.298C39.9044 17.4393 40.2392 17.5177 40.5551 17.5692L40.5565 17.5694C41.9039 17.7913 43.3748 18.4125 43.5674 20.0142C43.7556 21.5677 42.52 22.477 41.2059 22.7293V23.0679C41.2059 23.5008 40.8544 23.8523 40.4216 23.8523C39.9887 23.8523 39.6373 23.5008 39.6373 23.0679V22.7177C38.5275 22.4797 37.5756 21.7421 37.2808 20.5579C37.1763 20.1378 37.4324 19.712 37.8524 19.6075C38.2725 19.5028 38.6984 19.759 38.803 20.179C38.991 20.9344 39.7602 21.2512 40.4988 21.2328H40.5006C40.9023 21.2237 41.3501 21.1256 41.6796 20.8984C41.8988 20.7473 42.0488 20.5213 42.0102 20.2026L42.0101 20.2018C41.9595 19.7805 41.6688 19.5524 41.3354 19.401C41.0123 19.2541 40.6451 19.1737 40.3029 19.1175C38.9817 18.9023 37.5804 18.2293 37.5064 16.6626C37.4474 15.4602 38.1843 14.5743 39.2092 14.1712C39.3474 14.1168 39.4906 14.0718 39.6373 14.0365ZM25.098 24.5362C25.098 24.969 24.7466 25.3205 24.3137 25.3205C23.8809 25.3205 23.5294 24.969 23.5294 24.5362V19.2013C23.5294 18.7684 23.8809 18.417 24.3137 18.417C24.7466 18.417 25.098 18.7684 25.098 19.2013V24.5362ZM27.1641 27.455C26.8247 27.7236 26.331 27.6661 26.0625 27.3266C25.7938 26.9871 25.8514 26.4934 26.1909 26.2248L30.7752 22.5977C31.1146 22.3291 31.6083 22.3867 31.8769 22.7262C32.1455 23.0656 32.0879 23.5593 31.7484 23.8278L27.1641 27.455ZM22.4366 26.2248C22.7761 26.4934 22.8336 26.9871 22.565 27.3266C22.2965 27.6661 21.8027 27.7236 21.4633 27.455L16.879 23.8278C16.5395 23.5593 16.482 23.0656 16.7506 22.7262C17.0191 22.3867 17.5128 22.3291 17.8523 22.5977L22.4366 26.2248Z" fill="#2854AB"/>
</svg>
