<svg width="50" height="50" viewBox="0 0 50 50" fill="none" xmlns="http://www.w3.org/2000/svg">
<g clip-path="url(#clip0_35_90)">
<path d="M22.7031 15.7207C20.9131 15.7207 19.4561 17.1777 19.4561 18.9678C19.4561 20.7578 20.9131 22.2148 22.7031 22.2148C24.4932 22.2148 25.9502 20.7578 25.9502 18.9678C25.9502 17.1777 24.4941 15.7207 22.7031 15.7207ZM22.7031 20.6543C21.7734 20.6543 21.0176 19.8984 21.0176 18.9687C21.0176 18.039 21.7734 17.2832 22.7031 17.2832C23.6328 17.2832 24.3887 18.039 24.3887 18.9687C24.3887 19.8984 23.6328 20.6543 22.7031 20.6543ZM29.0889 17.4668L28.3242 17.2197C28.2178 16.8789 28.0811 16.5478 27.9141 16.2304L28.2803 15.5097C28.4336 15.209 28.375 14.8428 28.1367 14.6045L27.0693 13.5342C26.8301 13.2929 26.4619 13.2353 26.1602 13.3896L25.4424 13.7568C25.125 13.5898 24.7939 13.4531 24.4531 13.3467L24.2061 12.582C24.1016 12.2597 23.8018 12.041 23.4629 12.041H21.9463C21.6074 12.041 21.3076 12.2597 21.2031 12.582L20.9561 13.3467C20.6152 13.4531 20.2842 13.5898 19.9668 13.7568L19.249 13.3896C18.9473 13.2353 18.5791 13.2929 18.3398 13.5342L17.2715 14.6025C17.0313 14.8418 16.9727 15.2099 17.127 15.5117L17.4941 16.2295C17.3271 16.5469 17.1904 16.8779 17.084 17.2187L16.3174 17.4658C15.9951 17.5693 15.7764 17.8701 15.7764 18.209V19.7265C15.7764 20.0654 15.9951 20.3662 16.3174 20.4697L17.084 20.7168C17.1904 21.0576 17.3271 21.3887 17.4941 21.706L17.127 22.4238C16.9717 22.7256 17.0303 23.0937 17.2715 23.333L18.3398 24.4013C18.5791 24.6416 18.9463 24.7002 19.249 24.5459L19.9668 24.1787C20.2842 24.3457 20.6152 24.4824 20.9561 24.5888L21.2031 25.3545C21.3076 25.6767 21.6074 25.8955 21.9463 25.8955H23.4629C23.8018 25.8955 24.1016 25.6767 24.2061 25.3545L24.4531 24.5888C24.7939 24.4824 25.125 24.3457 25.4424 24.1787L26.1602 24.5459C26.4629 24.7012 26.8301 24.6426 27.0693 24.4013L28.1367 23.331C28.376 23.0918 28.4336 22.7265 28.2803 22.4258L27.9141 21.7051C28.0811 21.3877 28.2178 21.0566 28.3242 20.7158L29.0889 20.4687C29.4111 20.3642 29.6299 20.0644 29.6299 19.7256V18.209C29.6299 17.8711 29.4111 17.5713 29.0889 17.4668ZM28.0684 19.1582L27.4385 19.3633C27.1777 19.4482 26.9814 19.664 26.9199 19.9306C26.8115 20.4033 26.625 20.8535 26.3652 21.2695C26.2207 21.501 26.207 21.792 26.3311 22.0361L26.6309 22.6279L26.3633 22.8955L25.7715 22.5947C25.5273 22.4717 25.2373 22.4844 25.0049 22.6289C24.5889 22.8887 24.1387 23.0752 23.666 23.1836C23.3994 23.2451 23.1836 23.4414 23.0986 23.7021L22.8936 24.332H22.5127L22.3076 23.7021C22.2227 23.4414 22.0068 23.2451 21.7402 23.1836C21.2676 23.0752 20.8174 22.8887 20.4014 22.6289C20.1699 22.4844 19.8789 22.4717 19.6348 22.5947L19.043 22.8955L18.7744 22.6269L19.0752 22.0351C19.1982 21.791 19.1855 21.501 19.041 21.2685C18.7812 20.8525 18.5947 20.4023 18.4863 19.9297C18.4248 19.6631 18.2285 19.4472 17.9678 19.3623L17.335 19.1562V18.7773L17.9678 18.5713C18.2285 18.4863 18.4248 18.2705 18.4863 18.0039C18.5947 17.5312 18.7812 17.081 19.041 16.665C19.1855 16.4336 19.1982 16.1426 19.0752 15.8984L18.7744 15.3066L19.043 15.039L19.6348 15.3398C19.8789 15.4629 20.1689 15.4502 20.4014 15.3056C20.8174 15.0459 21.2676 14.8594 21.7402 14.751C22.0068 14.6894 22.2227 14.4931 22.3076 14.2324L22.5127 13.6025H22.8936L23.0986 14.2324C23.1836 14.4931 23.3994 14.6894 23.666 14.751C24.1387 14.8594 24.5889 15.0459 25.0049 15.3056C25.2363 15.4502 25.5273 15.4629 25.7715 15.3398L26.3633 15.039L26.6309 15.3066L26.3311 15.8984C26.208 16.1426 26.2207 16.4326 26.3652 16.665C26.625 17.081 26.8115 17.5312 26.9199 18.0039C26.9814 18.2705 27.1777 18.4863 27.4385 18.5713L28.0684 18.7763V19.1582ZM22.7031 9.81932C17.6152 9.81932 13.4766 13.958 13.4766 19.0459C13.4766 22.414 14.8555 23.9541 16.3145 25.5849C16.5332 25.8301 16.7598 26.083 16.9824 26.3428C17.7197 27.208 18.0771 28.1797 18.0771 29.3164V30.8222C18.0771 33.0508 19.8906 34.8642 22.1191 34.8642H23.2871C25.5156 34.8642 27.3291 33.0508 27.3291 30.8222V29.3164C27.3291 28.1806 27.6875 27.208 28.4238 26.3437C28.6465 26.083 28.873 25.8301 29.0918 25.5849C30.5508 23.9551 31.9297 22.415 31.9297 19.0459C31.9297 13.958 27.791 9.81932 22.7031 9.81932ZM25.7676 30.8213C25.7676 32.1885 24.6553 33.3017 23.2871 33.3017H22.1191C20.752 33.3017 19.6387 32.1894 19.6387 30.8213V29.3154C19.6387 29.2597 19.6377 29.2041 19.6367 29.1494H25.7695C25.7686 29.2041 25.7676 29.2597 25.7676 29.3154V30.8213ZM27.9287 24.5429C27.7031 24.7949 27.4707 25.0547 27.2363 25.3301C26.6436 26.0254 26.2354 26.7734 26.002 27.5889H19.4053C19.1719 26.7734 18.7637 26.0254 18.1699 25.3301C17.9355 25.0556 17.7031 24.7959 17.4775 24.5439C16.1143 23.0215 15.0381 21.8183 15.0381 19.0469C15.0381 14.8203 18.4766 11.3818 22.7031 11.3818C26.9297 11.3818 30.3682 14.8203 30.3682 19.0469C30.3682 21.8174 29.292 23.0205 27.9287 24.5429ZM11.5195 19.0459C11.5195 19.4775 11.1699 19.8262 10.7393 19.8262H8.33692C7.90527 19.8262 7.55664 19.4765 7.55664 19.0459C7.55664 18.6152 7.90625 18.2656 8.33692 18.2656H10.7393C11.1699 18.2646 11.5195 18.6142 11.5195 19.0459ZM37.8506 19.0459C37.8506 19.4775 37.501 19.8262 37.0703 19.8262H34.668C34.2363 19.8262 33.8877 19.4765 33.8877 19.0459C33.8877 18.6152 34.2373 18.2656 34.668 18.2656H37.0703C37.502 18.2646 37.8506 18.6142 37.8506 19.0459ZM14.7959 26.9531C15.1006 27.2578 15.1006 27.7519 14.7959 28.0566L13.0967 29.7558C12.9443 29.9082 12.7441 29.9844 12.5449 29.9844C12.3457 29.9844 12.1455 29.9082 11.9932 29.7558C11.6885 29.4512 11.6885 28.957 11.9932 28.6523L13.6924 26.9531C13.9961 26.6484 14.4912 26.6484 14.7959 26.9531ZM33.415 8.33397C33.7197 8.63865 33.7197 9.13279 33.415 9.43748L31.7158 11.1367C31.5635 11.289 31.3633 11.3652 31.1641 11.3652C30.9648 11.3652 30.7646 11.289 30.6123 11.1367C30.3076 10.832 30.3076 10.3379 30.6123 10.0332L32.3115 8.33397C32.6152 8.02928 33.1094 8.02928 33.415 8.33397ZM21.9229 7.08104V4.67869C21.9229 4.24705 22.2725 3.89842 22.7031 3.89842C23.1338 3.89842 23.4834 4.24803 23.4834 4.67869V7.08104C23.4834 7.51268 23.1338 7.86131 22.7031 7.86131C22.2725 7.86131 21.9229 7.51268 21.9229 7.08104ZM33.415 28.6533C33.7197 28.958 33.7197 29.4521 33.415 29.7568C33.2627 29.9092 33.0625 29.9853 32.8633 29.9853C32.6641 29.9853 32.4639 29.9092 32.3115 29.7568L30.6123 28.0576C30.3076 27.7529 30.3076 27.2588 30.6123 26.9541C30.917 26.6494 31.4111 26.6494 31.7158 26.9541L33.415 28.6533ZM11.9922 9.43846C11.6875 9.13377 11.6875 8.63963 11.9922 8.33494C12.2969 8.03025 12.791 8.03025 13.0957 8.33494L14.7949 10.0342C15.0996 10.3388 15.0996 10.833 14.7949 11.1377C14.6426 11.29 14.4424 11.3662 14.2432 11.3662C14.0439 11.3662 13.8438 11.29 13.6914 11.1377L11.9922 9.43846ZM47.1104 27.7871C47.0957 27.7627 47.0791 27.7402 47.0625 27.7178C43.4453 23.0752 43.4531 21.1992 43.4619 19.0263C43.4648 18.4277 43.4668 17.8096 43.4033 17.1074C43.1641 14.4609 42.3438 11.9892 40.9648 9.76072C39.6846 7.69041 37.9531 5.874 35.8184 4.36033C31.8174 1.52147 26.5459 -0.0674019 21.3613 0.00193401C16.4023 0.0683403 11.8154 1.63572 8.44531 4.41502C4.58984 7.59471 2.36133 12.2803 1.99902 17.9658C1.99707 17.9892 1.99707 18.0127 1.99805 18.0361C2.15625 23.8769 4.59082 27.2705 6.73926 30.2646C9.86231 34.6172 12.5596 38.376 7.39063 48.874C7.27149 49.1162 7.28516 49.4023 7.42773 49.6308C7.57031 49.8594 7.82129 49.999 8.09082 49.999H32.0195C32.3799 49.999 32.6934 49.7529 32.7783 49.4023L33.9971 44.3789C39.1709 45.3584 41.9658 45.0791 43.2783 43.4697C44.1885 42.3545 44.2383 40.7353 43.4268 38.5351C44.2236 38.0498 44.7197 37.3086 44.7422 36.5137C44.75 36.2285 44.6963 35.6709 44.2393 35.1426C44.6523 34.789 44.9854 34.3281 45.1025 33.7871C45.1641 33.5019 45.1787 33.1426 45.0498 32.7451C46.1035 32.625 47.2344 32.2998 47.75 31.3447C48.2383 30.4375 48.0293 29.2744 47.1104 27.7871ZM46.375 30.6035C46.0547 31.1963 44.4551 31.2412 43.6865 31.2627L43.5918 31.2656C43.2695 31.2744 42.9863 31.4814 42.8789 31.7842C42.7715 32.0879 42.8613 32.4267 43.1055 32.6367C43.3545 32.8515 43.6396 33.168 43.5771 33.457C43.5 33.8154 42.9785 34.2021 42.5596 34.3242C42.2412 34.418 42.0166 34.7021 41.999 35.0332C41.9814 35.3642 42.1768 35.6709 42.4844 35.7959C42.6973 35.8828 43.1914 36.1221 43.1816 36.4687C43.1729 36.7656 42.8252 37.1826 42.1777 37.4043C41.9727 37.4746 41.8057 37.6269 41.7178 37.8252C41.6299 38.0234 41.6279 38.249 41.7129 38.4492C42.543 40.3984 42.6631 41.7549 42.0693 42.4834C40.7061 44.1543 35.3359 43.0635 33.5703 42.7041C33.1592 42.6211 32.7549 42.8769 32.6562 43.2851L31.4063 48.4385H9.32715C14.1641 37.9355 11.1709 33.7627 8.00781 29.3555C5.89649 26.4131 3.71289 23.3711 3.55957 18.0303C4.33887 6.05369 13.2744 1.67088 21.3818 1.56346C30.5996 1.43748 40.9131 6.89647 41.8486 17.2471C41.9053 17.875 41.9033 18.457 41.9004 19.0185C41.8906 21.373 41.8809 23.5976 45.8037 28.6426C46.3545 29.5429 46.5625 30.2558 46.375 30.6035Z" fill="#2854AB"/>
</g>
<defs>
<clipPath id="clip0_35_90">
<rect width="50" height="50" fill="white"/>
</clipPath>
</defs>
</svg>
