<svg width="15" height="15" viewBox="0 0 15 15" fill="none" xmlns="http://www.w3.org/2000/svg">
<path d="M14.4 14.4002V9.1262C14.4 6.5342 13.842 4.5542 10.818 4.5542C9.35999 4.5542 8.38799 5.3462 7.99199 6.1022H7.95599V4.7882H5.09399V14.4002H8.08199V9.6302C8.08199 8.3702 8.31599 7.1642 9.864 7.1642C11.394 7.1642 11.412 8.5862 11.412 9.7022V14.3822H14.4V14.4002Z" fill="white"/>
<path d="M0.234009 4.78809H3.22201V14.4001H0.234009V4.78809Z" fill="white"/>
<path d="M1.728 0C0.774 0 0 0.774 0 1.728C0 2.682 0.774 3.474 1.728 3.474C2.682 3.474 3.456 2.682 3.456 1.728C3.456 0.774 2.682 0 1.728 0Z" fill="white"/>
</svg>
