<svg width="22" height="25" viewBox="0 0 22 25" fill="none" xmlns="http://www.w3.org/2000/svg">
<path d="M11 24.5143C9.24 24.5143 1 16.5143 1 10C1 7.34784 2.05357 4.8043 3.92893 2.92893C5.8043 1.05357 8.34784 0 11 0C13.6522 0 16.1957 1.05357 18.0711 2.92893C19.9464 4.8043 21 7.34784 21 10C21 16.5371 12.76 24.5143 11 24.5143ZM11 1.70286C8.80144 1.70589 6.69397 2.58138 5.14042 4.13707C3.58688 5.69276 2.71428 7.80144 2.71429 10C2.71429 15.4171 9.46857 22.0457 11 22.7657C12.5314 22.0457 19.2857 15.4171 19.2857 10C19.2857 7.80144 18.4131 5.69276 16.8596 4.13707C15.306 2.58138 13.1986 1.70589 11 1.70286Z" fill="#FF9500"/>
<path d="M11 14.7997C10.0394 14.7997 9.1003 14.5149 8.30154 13.9812C7.50279 13.4475 6.88024 12.6889 6.51261 11.8013C6.14499 10.9138 6.0488 9.93721 6.23621 8.99501C6.42363 8.05282 6.88623 7.18736 7.56551 6.50808C8.24479 5.82879 9.11025 5.36619 10.0524 5.17878C10.9946 4.99137 11.9713 5.08755 12.8588 5.45518C13.7463 5.82281 14.5049 6.44536 15.0386 7.24411C15.5723 8.04286 15.8572 8.98194 15.8572 9.9426C15.8542 11.2299 15.3415 12.4635 14.4312 13.3738C13.521 14.284 12.2873 14.7967 11 14.7997ZM11 6.79974C10.3784 6.79974 9.77079 6.98406 9.25395 7.3294C8.73711 7.67475 8.33428 8.16559 8.09641 8.73988C7.85853 9.31416 7.79629 9.94608 7.91756 10.5557C8.03883 11.1654 8.33816 11.7254 8.77769 12.1649C9.21723 12.6045 9.77723 12.9038 10.3869 13.0251C10.9965 13.1463 11.6285 13.0841 12.2027 12.8462C12.777 12.6083 13.2679 12.2055 13.6132 11.6887C13.9586 11.1718 14.1429 10.5642 14.1429 9.9426C14.1429 9.10906 13.8118 8.30966 13.2224 7.72026C12.633 7.13086 11.8336 6.79974 11 6.79974Z" fill="#FF9500"/>
</svg>
