<svg width="24" height="24" viewBox="0 0 24 24" fill="none" xmlns="http://www.w3.org/2000/svg">
<g clip-path="url(#clip0_58_507)">
<path d="M23.5812 18.0733C23.5902 18.0715 23.599 18.069 23.6079 18.0668C23.6155 18.0648 23.6231 18.0632 23.6305 18.0609C23.6392 18.0583 23.6477 18.055 23.6561 18.052C23.6636 18.0493 23.6712 18.0468 23.6786 18.0437C23.6866 18.0404 23.6943 18.0365 23.7021 18.0328C23.7096 18.0292 23.7173 18.0259 23.7248 18.0219C23.7322 18.0179 23.7392 18.0134 23.7464 18.0091C23.7538 18.0046 23.7613 18.0005 23.7685 17.9956C23.7763 17.9905 23.7834 17.9848 23.7908 17.9792C23.7971 17.9746 23.8035 17.9702 23.8096 17.9652C23.8208 17.956 23.8315 17.9461 23.8419 17.936C23.8438 17.9342 23.8458 17.9327 23.8477 17.9308C23.8496 17.9289 23.8513 17.9267 23.8531 17.9247C23.8631 17.9144 23.8729 17.9039 23.882 17.8928C23.8874 17.8863 23.892 17.8794 23.897 17.8727C23.9021 17.8658 23.9076 17.859 23.9123 17.8518C23.9175 17.8441 23.922 17.8361 23.9267 17.8282C23.9307 17.8216 23.9349 17.8151 23.9386 17.8082C23.9429 17.8002 23.9465 17.7919 23.9503 17.7838C23.9537 17.7766 23.9573 17.7695 23.9604 17.762C23.9638 17.754 23.9664 17.7459 23.9693 17.7378C23.9722 17.7299 23.9752 17.7221 23.9776 17.714C23.9801 17.7058 23.9819 17.6975 23.984 17.6892C23.986 17.681 23.9884 17.6729 23.99 17.6647C23.9919 17.6549 23.9931 17.645 23.9945 17.6352C23.9955 17.6282 23.9968 17.6214 23.9975 17.6144C23.9992 17.5971 24.0001 17.5798 24.0001 17.5624V6.43747C24.0001 6.14996 23.7672 5.91699 23.4796 5.91699H7.0845C7.07992 5.91699 7.07548 5.91755 7.0709 5.91769C7.06097 5.91796 7.05112 5.91838 7.04127 5.91921C7.03342 5.91984 7.02565 5.92074 7.01788 5.92178C7.009 5.92289 7.00018 5.92421 6.99137 5.92581C6.98311 5.92726 6.97492 5.929 6.9668 5.93087C6.95854 5.93281 6.95028 5.9349 6.9421 5.93726C6.93398 5.93955 6.926 5.94204 6.91808 5.94468C6.90996 5.94746 6.90185 5.95037 6.89386 5.95356C6.8863 5.95655 6.87888 5.9596 6.87152 5.96293C6.86333 5.96661 6.85521 5.97057 6.84716 5.97466C6.84029 5.9782 6.83356 5.98181 6.8269 5.98563C6.81885 5.99021 6.81094 5.99506 6.80309 6.00006C6.79664 6.00422 6.79032 6.00853 6.78408 6.0129C6.77672 6.0181 6.76944 6.02352 6.76229 6.02921C6.75576 6.03441 6.74938 6.03976 6.74306 6.04524C6.73682 6.05072 6.73064 6.0562 6.7246 6.06203C6.71773 6.06863 6.71114 6.0755 6.70462 6.08244C6.70136 6.08591 6.69789 6.08896 6.69476 6.0925C6.69289 6.09458 6.69143 6.09687 6.68963 6.09895C6.6831 6.10652 6.677 6.11443 6.67089 6.12241C6.66645 6.12824 6.66187 6.13407 6.65771 6.14004C6.65229 6.14781 6.6473 6.15579 6.6423 6.16384C6.6382 6.17043 6.63397 6.17695 6.63022 6.18369C6.62585 6.19146 6.62204 6.19944 6.61808 6.20742C6.61447 6.21471 6.61072 6.22199 6.60746 6.22942C6.60406 6.23726 6.60108 6.24538 6.59809 6.25336C6.59511 6.2612 6.59206 6.26898 6.58949 6.27689C6.58692 6.28487 6.58484 6.29299 6.58262 6.30111C6.5804 6.30943 6.57804 6.31769 6.57616 6.32609C6.57443 6.33393 6.57325 6.34191 6.57186 6.34982C6.57033 6.35885 6.56881 6.36787 6.5677 6.37689C6.56679 6.38438 6.56638 6.39202 6.56582 6.39965C6.56513 6.40937 6.5645 6.41908 6.56437 6.42887C6.5643 6.43171 6.56395 6.43449 6.56395 6.43733V9.64711C6.56395 9.93462 6.79692 10.1676 7.08443 10.1676C7.37194 10.1676 7.60491 9.93462 7.60491 9.64711V7.59329L12.2324 11.6903C12.2083 11.7073 12.185 11.7261 12.1634 11.7477L7.60484 16.3062V12.8857C7.60484 12.5982 7.37187 12.3653 7.08436 12.3653C6.79685 12.3653 6.56388 12.5982 6.56388 12.8857V13.5217H3.87473C3.58722 13.5217 3.35425 13.7547 3.35425 14.0422C3.35425 14.3297 3.58722 14.5627 3.87473 14.5627H6.56388V17.5628C6.56388 17.8503 6.79685 18.0833 7.08436 18.0833H23.4795C23.4966 18.0833 23.5138 18.0824 23.5309 18.0807C23.5388 18.0799 23.5465 18.0784 23.5544 18.0773C23.5634 18.0761 23.5723 18.075 23.5812 18.0733ZM22.9591 16.3063L18.4005 11.7478C18.3976 11.7449 18.3945 11.7424 18.3915 11.7396L21.8185 8.8321C22.0377 8.64612 22.0646 8.31773 21.8786 8.0985C21.6928 7.87941 21.3644 7.85235 21.145 8.0384L15.2892 13.0066L8.45746 6.95802H22.9591V16.3063ZM12.8995 12.4839C12.9366 12.4468 12.9668 12.4054 12.9903 12.3614L14.937 14.0849C15.0354 14.172 15.1586 14.2157 15.282 14.2157C15.4018 14.2157 15.5215 14.1746 15.6188 14.0922L17.6027 12.409C17.6207 12.4354 17.641 12.4605 17.6644 12.4839L22.2229 17.0424H8.34101L12.8995 12.4839Z" fill="white"/>
<path d="M0.520481 11.8447H9.31085C9.59836 11.8447 9.83133 11.6117 9.83133 11.3242C9.83133 11.0367 9.59836 10.8037 9.31085 10.8037H0.520481C0.232967 10.8037 0 11.0367 0 11.3242C0 11.6117 0.232967 11.8447 0.520481 11.8447Z" fill="white"/>
<path d="M1.43137 8.97651H5.37835C5.66586 8.97651 5.89883 8.74354 5.89883 8.45603C5.89883 8.16851 5.66586 7.93555 5.37835 7.93555H1.43137C1.14386 7.93555 0.910889 8.16851 0.910889 8.45603C0.910889 8.74354 1.14386 8.97651 1.43137 8.97651Z" fill="white"/>
<path d="M4.33734 15.7192H0.520481C0.232967 15.7192 0 15.9522 0 16.2397C0 16.5272 0.232967 16.7602 0.520481 16.7602H4.33734C4.62485 16.7602 4.85782 16.5272 4.85782 16.2397C4.85782 15.9522 4.62485 15.7192 4.33734 15.7192Z" fill="white"/>
</g>
<defs>
<clipPath id="clip0_58_507">
<rect width="24" height="24" fill="white"/>
</clipPath>
</defs>
</svg>
