<svg width="88" height="88" viewBox="0 0 88 88" fill="none" xmlns="http://www.w3.org/2000/svg">
<path d="M43.9999 65.7483C31.5534 65.7483 20.4083 60.1163 13.2504 55.3918C5.53427 50.2995 0.78811 45.2691 0.589766 45.0577C0.321124 44.771 0.171631 44.3928 0.171631 44C0.171631 43.6071 0.321124 43.2289 0.589766 42.9422C0.78811 42.7308 5.53564 37.7004 13.2504 32.6081C20.4083 27.8836 31.5534 22.2516 43.9999 22.2516C56.4464 22.2516 67.5915 27.8836 74.7494 32.6081C82.4641 37.7004 87.2117 42.7305 87.4097 42.9422C87.6783 43.2289 87.8278 43.6071 87.8278 44C87.8278 44.3928 87.6783 44.771 87.4097 45.0577C87.2117 45.2694 82.4641 50.2995 74.7494 55.3918C67.5915 60.1163 56.4464 65.7483 43.9999 65.7483ZM3.91005 44C8.16464 48.094 24.6609 62.6546 43.9999 62.6546C63.3654 62.6546 79.8406 48.0961 84.0908 44.0006C79.8372 39.9093 63.3403 25.3453 43.9999 25.3453C24.6595 25.3453 8.16499 39.9056 3.91005 44Z" fill="#013475"/>
<path d="M44 65.7483C39.6986 65.7483 35.4938 64.4727 31.9173 62.0829C28.3409 59.6931 25.5534 56.2965 23.9074 52.3225C22.2613 48.3485 21.8307 43.9756 22.6699 39.7569C23.5091 35.5381 25.5805 31.663 28.622 28.6214C31.6636 25.5799 35.5388 23.5086 39.7576 22.6695C43.9763 21.8303 48.3492 22.261 52.3232 23.9071C56.2971 25.5532 59.6937 28.3408 62.0835 31.9173C64.4732 35.4938 65.7487 39.6986 65.7487 44C65.7422 49.766 63.4487 55.2941 59.3714 59.3713C55.2941 63.4485 49.7661 65.7419 44 65.7483ZM44 25.3453C40.3105 25.3454 36.7038 26.4395 33.6361 28.4894C30.5684 30.5392 28.1775 33.4527 26.7656 36.8614C25.3537 40.2701 24.9844 44.0209 25.7042 47.6395C26.424 51.2581 28.2007 54.582 30.8096 57.1909C33.4186 59.7998 36.7425 61.5764 40.3611 62.2962C43.9798 63.0159 47.7306 62.6465 51.1392 61.2346C54.5479 59.8226 57.4613 57.4316 59.5111 54.3639C61.5609 51.2962 62.655 47.6895 62.655 44C62.6493 39.0541 60.6821 34.3125 57.1848 30.8153C53.6875 27.3181 48.9458 25.3509 44 25.3453Z" fill="#013475"/>
<path d="M44 19.4019C43.5897 19.4019 43.1963 19.2389 42.9062 18.9489C42.6161 18.6588 42.4531 18.2653 42.4531 17.855V12.0085C42.4531 11.5983 42.6161 11.2048 42.9062 10.9147C43.1963 10.6246 43.5897 10.4617 44 10.4617C44.4103 10.4617 44.8037 10.6246 45.0938 10.9147C45.3839 11.2048 45.5469 11.5983 45.5469 12.0085V17.855C45.5469 18.2653 45.3839 18.6588 45.0938 18.9489C44.8037 19.2389 44.4103 19.4019 44 19.4019Z" fill="#013475"/>
<path d="M30.929 22.9051C30.6573 22.9053 30.3903 22.8338 30.155 22.698C29.9196 22.5621 29.7242 22.3667 29.5884 22.1313L26.6665 17.0679C26.4646 16.7128 26.4114 16.2923 26.5184 15.8981C26.6254 15.5038 26.884 15.168 27.2378 14.9637C27.5915 14.7595 28.0117 14.7034 28.4066 14.8079C28.8015 14.9123 29.1391 15.1686 29.3457 15.521L32.2676 20.5845C32.4034 20.8195 32.4749 21.0862 32.475 21.3576C32.4751 21.6291 32.4038 21.8958 32.2682 22.131C32.1326 22.3661 31.9375 22.5615 31.7025 22.6974C31.4674 22.8333 31.2005 22.9049 30.929 22.9051Z" fill="#013475"/>
<path d="M28.0029 73.2531C27.7315 73.2529 27.4648 73.1813 27.2298 73.0454C26.9948 72.9095 26.7997 72.7141 26.6641 72.479C26.5285 72.2438 26.4572 71.9771 26.4573 71.7056C26.4574 71.4342 26.5289 71.1675 26.6647 70.9325L29.5866 65.8694C29.6874 65.692 29.8223 65.5364 29.9836 65.4114C30.1448 65.2864 30.3291 65.1945 30.526 65.1411C30.7229 65.0876 30.9284 65.0736 31.1307 65.0999C31.333 65.1262 31.5281 65.1923 31.7048 65.2943C31.8814 65.3963 32.0362 65.5322 32.1601 65.6943C32.284 65.8563 32.3747 66.0413 32.4268 66.2385C32.4789 66.4358 32.4916 66.6413 32.4639 66.8435C32.4363 67.0456 32.369 67.2402 32.2658 67.4162L29.3439 72.4793C29.2081 72.7147 29.0126 72.9102 28.7772 73.0461C28.5418 73.1819 28.2747 73.2533 28.0029 73.2531Z" fill="#013475"/>
<path d="M44 77.5383C43.5897 77.5383 43.1963 77.3753 42.9062 77.0852C42.6161 76.7951 42.4531 76.4017 42.4531 75.9914V70.1453C42.4531 69.735 42.6161 69.3415 42.9062 69.0515C43.1963 68.7614 43.5897 68.5984 44 68.5984C44.4103 68.5984 44.8037 68.7614 45.0938 69.0515C45.3839 69.3415 45.5469 69.735 45.5469 70.1453V75.9914C45.5469 76.4017 45.3839 76.7951 45.0938 77.0852C44.8037 77.3753 44.4103 77.5383 44 77.5383Z" fill="#013475"/>
<path d="M59.9971 73.2531C59.7253 73.2533 59.4584 73.1818 59.223 73.046C58.9877 72.9102 58.7923 72.7147 58.6564 72.4794L55.7346 67.4163C55.5294 67.0609 55.4739 66.6387 55.5801 66.2424C55.6863 65.8461 55.9456 65.5082 56.3009 65.3031C56.6562 65.0979 57.0785 65.0424 57.4748 65.1486C57.8711 65.2548 58.209 65.5141 58.4141 65.8694L61.336 70.9325C61.4718 71.1676 61.5433 71.4342 61.5434 71.7057C61.5435 71.9772 61.4721 72.244 61.3365 72.4791C61.2008 72.7143 61.0057 72.9097 60.7706 73.0455C60.5356 73.1814 60.2686 73.253 59.9971 73.2531Z" fill="#013475"/>
<path d="M57.071 22.9051C56.7996 22.9049 56.533 22.8332 56.298 22.6973C56.0629 22.5615 55.8678 22.3661 55.7322 22.131C55.5966 21.8958 55.5253 21.6291 55.5254 21.3576C55.5255 21.0862 55.597 20.8195 55.7328 20.5844L58.6547 15.521C58.8598 15.1654 59.1978 14.9059 59.5943 14.7996C59.9907 14.6932 60.4132 14.7487 60.7688 14.9538C61.1243 15.1589 61.3838 15.4969 61.4902 15.8934C61.5966 16.2898 61.5411 16.7123 61.336 17.0679L58.4141 22.1313C58.2781 22.367 58.0823 22.5627 57.8465 22.6986C57.6107 22.8344 57.3432 22.9057 57.071 22.9051Z" fill="#013475"/>
<path d="M55.7191 43.3681C55.3088 43.3681 54.9154 43.2052 54.6253 42.9151C54.3352 42.625 54.1722 42.2315 54.1722 41.8213V38.3198H50.6687C50.2584 38.3198 49.865 38.1569 49.5749 37.8668C49.2848 37.5767 49.1218 37.1832 49.1218 36.7729C49.1218 36.3627 49.2848 35.9692 49.5749 35.6791C49.865 35.389 50.2584 35.2261 50.6687 35.2261H55.7177C56.128 35.2261 56.5214 35.389 56.8115 35.6791C57.1016 35.9692 57.2646 36.3627 57.2646 36.7729V41.8213C57.2646 42.2313 57.1018 42.6245 56.812 42.9146C56.5222 43.2046 56.1291 43.3678 55.7191 43.3681Z" fill="#013475"/>
<path d="M32.2813 52.7749C31.9753 52.7749 31.6762 52.6842 31.4219 52.5142C31.1675 52.3443 30.9692 52.1027 30.8521 51.82C30.735 51.5373 30.7044 51.2263 30.7641 50.9263C30.8238 50.6262 30.9711 50.3506 31.1875 50.1342L40.4666 40.855C40.6103 40.7114 40.7808 40.5975 40.9685 40.5197C41.1562 40.442 41.3573 40.402 41.5605 40.402C41.7636 40.402 41.9647 40.442 42.1524 40.5197C42.3401 40.5975 42.5106 40.7114 42.6543 40.855L46.0515 44.2527L54.6254 35.6789C54.9155 35.3888 55.309 35.2259 55.7192 35.226C56.1295 35.226 56.5229 35.3891 56.813 35.6792C57.103 35.9693 57.2659 36.3628 57.2659 36.7731C57.2658 37.1833 57.1028 37.5768 56.8126 37.8668L47.145 47.5341C46.855 47.8241 46.4617 47.9871 46.0515 47.9872C45.8484 47.9872 45.6473 47.9472 45.4596 47.8694C45.2719 47.7917 45.1014 47.6777 44.9577 47.5341L41.5594 44.1375L33.3751 52.3219C33.2316 52.4657 33.0611 52.5798 32.8734 52.6576C32.6857 52.7353 32.4844 52.7752 32.2813 52.7749Z" fill="#013475"/>
</svg>
