<svg width="24" height="24" viewBox="0 0 24 24" fill="none" xmlns="http://www.w3.org/2000/svg">
<g clip-path="url(#clip0_58_473)">
<path d="M22.3215 16.0783L20.4083 14.1651C19.3028 13.0596 17.3768 13.0588 16.272 14.1651L14.5155 15.9208C14.4915 15.9448 14.4555 15.9516 14.436 15.9456C12.8715 15.4146 11.5357 14.6023 10.467 13.5336C9.3975 12.4648 8.586 11.1291 8.055 9.56457C8.04825 9.54432 8.055 9.50907 8.079 9.48507L9.8355 7.72857C10.3882 7.17582 10.6927 6.44157 10.6927 5.66007C10.6927 4.87857 10.3882 4.14432 9.8355 3.59157L7.92225 1.67832C6.7815 0.537566 4.926 0.537566 3.786 1.67832L2.988 2.47482C1.37625 4.08732 0.588747 6.33132 0.882748 8.47332C1.35225 12.0103 3.0345 15.2541 5.8845 18.1161C8.74425 20.9646 11.9888 22.6468 15.5228 23.1163C15.8198 23.1568 16.1183 23.1771 16.4168 23.1771C18.276 23.1771 20.1345 22.4008 21.5243 21.0111L22.3215 20.2146C23.4615 19.0738 23.4615 17.2183 22.3215 16.0783ZM21.3668 19.2606L20.5703 20.0571C19.254 21.3726 17.4353 22.0183 15.7043 21.7783C12.4672 21.3486 9.48375 19.7946 6.84 17.1613C4.20525 14.5161 2.65125 11.5326 2.22075 8.29257C1.98375 6.56307 2.62725 4.74582 3.94275 3.42957L4.73925 2.63307C5.04675 2.32557 5.4495 2.17257 5.853 2.17257C6.2565 2.17257 6.65925 2.32632 6.96675 2.63307L8.88 4.54632C9.177 4.84407 9.34125 5.23932 9.34125 5.66007C9.34125 6.08082 9.177 6.47607 8.88 6.77382L7.12275 8.53107C6.7395 8.91507 6.60375 9.49107 6.77625 9.99882C7.374 11.7613 8.295 13.2718 9.5115 14.4883C10.728 15.7056 12.2385 16.6258 14.001 17.2236C14.5095 17.3968 15.0848 17.2596 15.4695 16.8763L17.2268 15.1198C17.8215 14.5251 18.8588 14.5258 19.4543 15.1198L21.3675 17.0331C21.981 17.6466 21.981 18.6463 21.3668 19.2606Z" fill="#FF9500"/>
<path d="M13.9867 4.27127C15.216 4.74452 16.407 5.53652 17.4307 6.55952C18.4522 7.58102 19.2465 8.77577 19.7287 10.0148C19.833 10.2818 20.088 10.4453 20.358 10.4453C20.4397 10.4453 20.5222 10.4303 20.6032 10.3988C20.9505 10.263 21.1222 9.87227 20.9872 9.52427C20.4375 8.11277 19.5375 6.75752 18.3847 5.60477C17.2282 4.44827 15.876 3.55202 14.472 3.01127C14.1247 2.87702 13.7332 3.05027 13.599 3.39827C13.4647 3.74627 13.6395 4.13777 13.9867 4.27127Z" fill="#FF9500"/>
<path d="M14.4975 6.4891C14.148 6.36085 13.7595 6.5371 13.6297 6.8866C13.5 7.2361 13.6777 7.62459 14.0272 7.75434C14.4757 7.92084 14.9325 8.22834 15.348 8.64384C15.7575 9.05334 16.0732 9.52209 16.2375 9.96459C16.3387 10.2368 16.5967 10.4048 16.8705 10.4048C16.9485 10.4048 17.028 10.3906 17.1052 10.3621C17.4547 10.2323 17.6325 9.84384 17.5027 9.49434C17.2687 8.8651 16.854 8.24109 16.302 7.6891C15.7507 7.1386 15.1267 6.7231 14.4975 6.4891Z" fill="#FF9500"/>
</g>
<defs>
<clipPath id="clip0_58_473">
<rect width="24" height="24" fill="white"/>
</clipPath>
</defs>
</svg>
