<svg width="15" height="17" viewBox="0 0 15 17" fill="none" xmlns="http://www.w3.org/2000/svg">
<g clip-path="url(#clip0_51_317)">
<path fill-rule="evenodd" clip-rule="evenodd" d="M7.5 0.193359C6.45018 0.193359 5.44336 0.580067 4.70103 1.26841C3.9587 1.95675 3.54166 2.89035 3.54166 3.86381C3.54166 4.83728 3.9587 5.77087 4.70103 6.45922C5.44336 7.14756 6.45018 8 7.5 8C8.54982 8 9.55663 7.14756 10.299 6.45922C11.0413 5.77087 11.4583 4.83728 11.4583 3.86381C11.4583 2.89035 11.0413 1.95675 10.299 1.26841C9.55663 0.580067 8.54981 0.193359 7.5 0.193359ZM4.79166 3.86381C4.79166 3.19776 5.077 2.55898 5.58492 2.08801C6.09283 1.61704 6.7817 1.35245 7.5 1.35245C8.21829 1.35245 8.90717 1.61704 9.41508 2.08801C9.92299 2.55898 10.2083 3.19776 10.2083 3.86381C10.2083 4.52987 9.92299 5.16864 9.41508 5.63962C8.90717 6.11059 8.21829 6.37518 7.5 6.37518C6.7817 6.37518 6.09283 6.11059 5.58492 5.63962C5.077 5.16864 4.79166 4.52987 4.79166 3.86381ZM7.5 8.69336C5.5725 8.69336 3.79583 9.09981 2.48 9.786C1.18333 10.4629 0.208329 11.4875 0.208329 12.7502V12.829C0.207496 13.7269 0.206662 14.8535 1.2725 15.6587C1.79666 16.0544 2.53083 16.3364 3.5225 16.5219C4.51583 16.7089 5.81166 16.807 7.5 16.807C9.18833 16.807 10.4833 16.7089 11.4783 16.5219C12.47 16.3364 13.2033 16.0544 13.7283 15.6587C14.7942 14.8535 14.7925 13.7269 14.7917 12.829V12.7502C14.7917 11.4875 13.8167 10.4629 12.5208 9.786C11.2042 9.09981 9.42833 8.69336 7.5 8.69336ZM1.45833 12.7502C1.45833 12.0926 1.97666 11.3786 3.0925 10.7967C4.18916 10.2249 5.74583 9.85245 7.50083 9.85245C9.25416 9.85245 10.8108 10.2249 11.9075 10.7967C13.0242 11.3786 13.5417 12.0926 13.5417 12.7502C13.5417 13.7609 13.5083 14.3296 12.9383 14.7593C12.63 14.9926 12.1133 15.2206 11.23 15.386C10.3492 15.5513 9.145 15.6479 7.5 15.6479C5.855 15.6479 4.65 15.5513 3.77 15.386C2.88666 15.2206 2.37 14.9926 2.06166 14.76C1.49166 14.3296 1.45833 13.7609 1.45833 12.7502Z" fill="#013475"/>
</g>
<defs>
<clipPath id="clip0_51_317">
<rect width="15" height="17" fill="white"/>
</clipPath>
</defs>
</svg>
