<svg width="17" height="18" viewBox="0 0 17 18" fill="none" xmlns="http://www.w3.org/2000/svg">
<g clip-path="url(#clip0_51_311)">
<path d="M4.78125 11.6471C5.13349 11.6471 5.4713 11.5076 5.72038 11.2594C5.96945 11.0112 6.10938 10.6746 6.10938 10.3235C6.10938 9.97251 5.96945 9.63586 5.72038 9.38765C5.4713 9.13944 5.13349 9 4.78125 9C4.42901 9 4.0912 9.13944 3.84212 9.38765C3.59305 9.63586 3.45312 9.97251 3.45312 10.3235C3.45312 10.6746 3.59305 11.0112 3.84212 11.2594C4.0912 11.5076 4.42901 11.6471 4.78125 11.6471ZM4.78125 15.3529C5.13349 15.3529 5.4713 15.2135 5.72038 14.9653C5.96945 14.7171 6.10938 14.3804 6.10938 14.0294C6.10938 13.6784 5.96945 13.3417 5.72038 13.0935C5.4713 12.8453 5.13349 12.7059 4.78125 12.7059C4.42901 12.7059 4.0912 12.8453 3.84212 13.0935C3.59305 13.3417 3.45312 13.6784 3.45312 14.0294C3.45312 14.3804 3.59305 14.7171 3.84212 14.9653C4.0912 15.2135 4.42901 15.3529 4.78125 15.3529ZM9.82812 10.3235C9.82812 10.6746 9.6882 11.0112 9.43913 11.2594C9.19005 11.5076 8.85224 11.6471 8.5 11.6471C8.14776 11.6471 7.80995 11.5076 7.56087 11.2594C7.3118 11.0112 7.17188 10.6746 7.17188 10.3235C7.17188 9.97251 7.3118 9.63586 7.56087 9.38765C7.80995 9.13944 8.14776 9 8.5 9C8.85224 9 9.19005 9.13944 9.43913 9.38765C9.6882 9.63586 9.82812 9.97251 9.82812 10.3235ZM8.5 15.3529C8.85224 15.3529 9.19005 15.2135 9.43913 14.9653C9.6882 14.7171 9.82812 14.3804 9.82812 14.0294C9.82812 13.6784 9.6882 13.3417 9.43913 13.0935C9.19005 12.8453 8.85224 12.7059 8.5 12.7059C8.14776 12.7059 7.80995 12.8453 7.56087 13.0935C7.3118 13.3417 7.17188 13.6784 7.17188 14.0294C7.17188 14.3804 7.3118 14.7171 7.56087 14.9653C7.80995 15.2135 8.14776 15.3529 8.5 15.3529ZM13.5469 10.3235C13.5469 10.6746 13.4069 11.0112 13.1579 11.2594C12.9088 11.5076 12.571 11.6471 12.2188 11.6471C11.8665 11.6471 11.5287 11.5076 11.2796 11.2594C11.0306 11.0112 10.8906 10.6746 10.8906 10.3235C10.8906 9.97251 11.0306 9.63586 11.2796 9.38765C11.5287 9.13944 11.8665 9 12.2188 9C12.571 9 12.9088 9.13944 13.1579 9.38765C13.4069 9.63586 13.5469 9.97251 13.5469 10.3235Z" fill="#013475"/>
<path fill-rule="evenodd" clip-rule="evenodd" d="M4.25 0.264648C4.46134 0.264648 4.66403 0.348314 4.81348 0.49724C4.96292 0.646166 5.04688 0.848153 5.04688 1.05877V1.85288H11.9531V1.05877C11.9531 0.848153 12.0371 0.646166 12.1865 0.49724C12.336 0.348314 12.5387 0.264648 12.75 0.264648C12.9613 0.264648 13.164 0.348314 13.3135 0.49724C13.4629 0.646166 13.5469 0.848153 13.5469 1.05877V1.86135C13.7084 1.86559 13.8589 1.87335 13.9984 1.88465C14.4022 1.91641 14.7804 1.98841 15.1385 2.17053C15.6884 2.44971 16.1355 2.89524 16.4156 3.44324C16.5984 3.80006 16.6706 4.177 16.7025 4.57935C16.7344 4.96583 16.7344 5.437 16.7344 6.00347V14.1141C16.7344 14.6805 16.7344 15.1517 16.7025 15.5382C16.6706 15.9405 16.5984 16.3175 16.4156 16.6743C16.1358 17.2221 15.6891 17.6676 15.1396 17.947C14.7804 18.1291 14.4022 18.2011 13.9984 18.2329C13.6106 18.2646 13.1378 18.2646 12.5704 18.2646H4.43062C3.86219 18.2646 3.38937 18.2646 3.00156 18.2329C2.59781 18.2011 2.21956 18.1291 1.8615 17.947C1.31192 17.6684 0.864886 17.2236 0.584375 16.6764C0.401625 16.3185 0.329375 15.9416 0.2975 15.5392C0.265625 15.1528 0.265625 14.6816 0.265625 14.1162V6.00347C0.265625 5.437 0.265625 4.96583 0.2975 4.57935C0.329375 4.177 0.401625 3.80006 0.584375 3.44324C0.864525 2.89524 1.3116 2.44971 1.8615 2.17053C2.21956 1.98841 2.59781 1.91641 3.00156 1.88465C3.1411 1.87335 3.29163 1.86559 3.45312 1.86135V1.05877C3.45312 0.954481 3.47374 0.851217 3.51378 0.75487C3.55383 0.658524 3.61253 0.570981 3.68652 0.49724C3.76052 0.423499 3.84837 0.365005 3.94505 0.325097C4.04173 0.285189 4.14535 0.264648 4.25 0.264648ZM15.1406 7.67641H1.85938V14.0823C1.85938 14.6879 1.85938 15.0956 1.88594 15.4079C1.91038 15.7129 1.955 15.8579 2.00388 15.9532C2.13138 16.2031 2.33431 16.4054 2.58506 16.5324C2.68069 16.5811 2.82625 16.6256 3.13119 16.6499C3.44569 16.6754 3.85369 16.6764 4.4625 16.6764H12.5375C13.1453 16.6764 13.5543 16.6764 13.8678 16.6499C14.1737 16.6256 14.3193 16.5811 14.4149 16.5324C14.6652 16.4055 14.8687 16.2027 14.9961 15.9532C15.045 15.8579 15.0896 15.7129 15.1141 15.4079C15.1396 15.0956 15.1406 14.6879 15.1406 14.0823V7.67641ZM6.90625 4.23524C6.69491 4.23524 6.49222 4.3189 6.34277 4.46783C6.19333 4.61675 6.10938 4.81874 6.10938 5.02935C6.10938 5.23997 6.19333 5.44195 6.34277 5.59088C6.49222 5.73981 6.69491 5.82347 6.90625 5.82347H10.0938C10.3051 5.82347 10.5078 5.73981 10.6572 5.59088C10.8067 5.44195 10.8906 5.23997 10.8906 5.02935C10.8906 4.81874 10.8067 4.61675 10.6572 4.46783C10.5078 4.3189 10.3051 4.23524 10.0938 4.23524H6.90625Z" fill="#013475"/>
</g>
<defs>
<clipPath id="clip0_51_311">
<rect width="17" height="18" fill="white"/>
</clipPath>
</defs>
</svg>
