<svg width="74" height="74" viewBox="0 0 74 74" fill="none" xmlns="http://www.w3.org/2000/svg">
<path d="M56.9224 39.0542C56.4504 43.6266 54.423 47.8988 51.1787 51.1574C47.9344 54.416 43.6697 56.4636 39.0967 56.9585C39.0046 56.9574 38.9132 56.9747 38.8279 57.0094C38.7426 57.0441 38.6651 57.0955 38.6 57.1606C38.5349 57.2257 38.4835 57.3031 38.4487 57.3883C38.414 57.4736 38.3967 57.5649 38.3978 57.6569V72.6032C38.3978 72.9736 38.2505 73.3289 37.9884 73.5909C37.7262 73.8528 37.3707 74 37 74C36.6293 74 36.2738 73.8528 36.0116 73.5909C35.7495 73.3289 35.6022 72.9736 35.6022 72.6032V67.1801C35.5889 66.9993 35.511 66.8293 35.3827 66.701C35.2544 66.5728 35.0843 66.495 34.9033 66.4817C28.6866 65.9789 22.7898 63.518 18.0617 59.453C13.3336 55.3881 10.018 49.9288 8.59222 43.861C8.53915 43.6812 8.52282 43.4926 8.54422 43.3064C8.56562 43.1202 8.6243 42.9401 8.71677 42.7771C8.80924 42.614 8.93361 42.4712 9.08247 42.3571C9.23132 42.2431 9.40162 42.1602 9.58323 42.1133C9.76483 42.0664 9.95401 42.0565 10.1395 42.0842C10.325 42.1119 10.503 42.1767 10.663 42.2746C10.8229 42.3725 10.9615 42.5016 11.0705 42.6541C11.1795 42.8067 11.2566 42.9796 11.2973 43.1626C12.5649 48.6092 15.5206 53.5169 19.7431 57.1863C23.9656 60.8556 29.2395 63.0993 34.8129 63.5976C34.9938 63.688 35.1664 63.5976 35.3391 63.4251C35.4304 63.3736 35.5042 63.296 35.5511 63.2023C35.598 63.1086 35.6158 63.0031 35.6022 62.8992V57.6569C35.6033 57.5649 35.586 57.4736 35.5513 57.3883C35.5165 57.3031 35.4651 57.2257 35.4 57.1606C35.3349 57.0955 35.2574 57.0441 35.1721 57.0094C35.0868 56.9747 34.9954 56.9574 34.9033 56.9585C30.3521 56.4518 26.1051 54.4252 22.8496 51.2068C19.5947 47.9377 17.5627 43.6502 17.094 39.0624C17.0673 38.8945 16.983 38.7412 16.8554 38.6287C16.7279 38.5162 16.5651 38.4517 16.3951 38.4461H1.43889C1.05727 38.4461 0.691285 38.2947 0.421441 38.025C0.151597 37.7553 0 37.3896 0 37.0082C0 36.6269 0.151597 36.2611 0.421441 35.9914C0.691285 35.7218 1.05727 35.5703 1.43889 35.5703H7.12044C7.28998 35.5632 7.45194 35.4981 7.57917 35.3859C7.70641 35.2737 7.7912 35.1213 7.81933 34.954C8.19243 28.7507 10.4988 22.8196 14.4152 17.9923C18.3315 13.1649 23.6614 9.68347 29.6576 8.03598C30.0207 7.9671 30.3964 8.03968 30.7077 8.23882C31.0189 8.43797 31.2422 8.74859 31.3316 9.10698C31.421 9.46537 31.3697 9.84435 31.1884 10.1662C31.0071 10.4881 30.7094 10.7284 30.3564 10.8379C24.992 12.2835 20.2131 15.3671 16.6872 19.6582C13.1612 23.9492 11.0642 29.2336 10.6889 34.7733C10.6657 34.8753 10.6666 34.9814 10.6916 35.083C10.7165 35.1846 10.7648 35.2791 10.8327 35.3588C10.9005 35.4385 10.986 35.5014 11.0823 35.5424C11.1787 35.5834 11.2833 35.6014 11.3878 35.5949H16.3622C16.5322 35.5894 16.695 35.5248 16.8225 35.4124C16.9501 35.2999 17.0344 35.1466 17.0611 34.9787C17.5267 30.3979 19.5534 26.116 22.8016 22.8505C26.0498 19.585 30.3223 17.5342 34.9033 17.0415C34.9954 17.0426 35.0868 17.0253 35.1721 16.9906C35.2574 16.9559 35.3349 16.9045 35.4 16.8394C35.4651 16.7743 35.5165 16.6969 35.5513 16.6117C35.586 16.5264 35.6033 16.4351 35.6022 16.3431V1.39685C35.6022 1.02638 35.7495 0.671087 36.0116 0.409127C36.2738 0.147167 36.6293 0 37 0C37.3707 0 37.7262 0.147167 37.9884 0.409127C38.2505 0.671087 38.3978 1.02638 38.3978 1.39685V18.348C38.4072 18.5458 38.3751 18.7434 38.3036 18.928C38.2322 19.1127 38.1229 19.2805 37.9827 19.4205C37.8426 19.5605 37.6748 19.6697 37.49 19.7411C37.3052 19.8126 37.1075 19.8446 36.9096 19.8352C21.7067 19.8352 14.1093 38.4379 24.8558 49.1854C35.6022 59.9329 53.946 52.2421 54.2091 37C54.2069 36.816 54.2416 36.6333 54.311 36.4629C54.3805 36.2924 54.4834 36.1375 54.6136 36.0074C54.7438 35.8772 54.8988 35.7744 55.0694 35.705C55.24 35.6356 55.4227 35.6009 55.6069 35.6032H72.5611C72.9427 35.6032 73.3087 35.7547 73.5786 36.0243C73.8484 36.294 74 36.6597 74 37.0411C74 37.4224 73.8484 37.7882 73.5786 38.0579C73.3087 38.3275 72.9427 38.479 72.5611 38.479H66.97C66.7965 38.472 66.627 38.5322 66.4968 38.647C66.3667 38.7618 66.2858 38.9224 66.2711 39.0953C65.8174 45.3373 63.4017 51.2765 59.3692 56.0648C55.3366 60.8532 49.8932 64.2459 43.8162 65.7586C41.9827 66.1941 41.3496 63.4004 43.1996 62.9649C48.6266 61.6165 53.4936 58.6005 57.1148 54.3419C60.7361 50.0833 62.9292 44.7967 63.3851 39.2267C63.4083 39.1247 63.4074 39.0186 63.3824 38.917C63.3575 38.8154 63.3092 38.7209 63.2413 38.6412C63.1735 38.5615 63.088 38.4986 62.9917 38.4576C62.8953 38.4166 62.7907 38.3986 62.6862 38.4051H57.6213C57.4513 38.4106 57.2886 38.4752 57.161 38.5876C57.0335 38.7001 56.9491 38.8534 56.9224 39.0213V39.0542ZM68.2444 15.8172L58.1393 25.8581C57.8924 26.1259 57.5496 26.2854 57.1856 26.3018H50.4516C50.2677 26.3179 50.0903 26.377 49.9336 26.4743L37.962 38.5283C37.6928 38.7797 37.3366 38.9168 36.9682 38.9109C36.5999 38.9051 36.2482 38.7566 35.9871 38.4968C35.7261 38.237 35.5761 37.8862 35.5687 37.5181C35.5614 37.15 35.6972 36.7935 35.9476 36.5234L47.9191 24.4613C47.9996 24.4209 48.0671 24.3586 48.1137 24.2815C48.1602 24.2045 48.184 24.1158 48.1822 24.0258V17.2798C48.1805 17.0855 48.2183 16.8928 48.2932 16.7134C48.3681 16.5341 48.4786 16.3718 48.618 16.2363L58.6656 6.20364C58.8596 5.99403 59.1123 5.84767 59.3907 5.78362C59.6691 5.71956 59.9604 5.7408 60.2266 5.84454C60.4928 5.94829 60.7216 6.12974 60.8831 6.36527C61.0446 6.60079 61.1314 6.87947 61.1322 7.165V12.6702C61.1438 12.8516 61.2212 13.0226 61.3498 13.1512C61.4785 13.2797 61.6496 13.357 61.8311 13.3686H67.2496C67.5386 13.3611 67.8232 13.4407 68.0662 13.5971C68.3093 13.7535 68.4996 13.9795 68.6123 14.2455C68.725 14.5116 68.7549 14.8054 68.6981 15.0887C68.6413 15.372 68.5004 15.6316 68.2938 15.8337L68.2444 15.8172ZM56.7333 23.2123L62.5876 17.362C62.6893 17.2681 62.7612 17.1464 62.7943 17.012C62.8274 16.8776 62.8203 16.7365 62.7739 16.6061C62.7275 16.4757 62.6438 16.3619 62.5332 16.2786C62.4226 16.1953 62.29 16.1463 62.1518 16.1377H59.6851C59.3032 16.1466 58.9332 16.0051 58.6548 15.7438C58.3763 15.4825 58.2119 15.1223 58.1969 14.7408V12.3498C58.1962 12.2083 58.154 12.0701 58.0755 11.9523C57.9969 11.8345 57.8855 11.7424 57.7551 11.6873C57.6247 11.6322 57.481 11.6165 57.3417 11.6423C57.2025 11.668 57.0738 11.734 56.9718 11.8321L51.2162 17.6824C51.0626 17.8162 50.968 18.0052 50.9531 18.2083V22.7522C50.952 22.8442 50.9693 22.9355 51.0041 23.0207C51.0388 23.106 51.0902 23.1834 51.1554 23.2485C51.2205 23.3136 51.298 23.365 51.3833 23.3997C51.4685 23.4344 51.5599 23.4517 51.652 23.4506H56.2811C56.462 23.4506 56.6347 23.4506 56.7169 23.2698L56.7333 23.2123ZM48.8729 37.0164C48.8761 39.3658 48.1819 41.6633 46.878 43.6182C45.5741 45.573 43.7192 47.0974 41.548 47.9983C39.3768 48.8993 36.987 49.1363 34.681 48.6793C32.3749 48.2224 30.2564 47.0921 28.5935 45.4314C26.9306 43.7707 25.798 41.6544 25.3392 39.3502C24.8803 37.0461 25.1158 34.6577 26.0159 32.4873C26.9159 30.3169 28.44 28.4622 30.3953 27.1578C32.3505 25.8534 34.6491 25.158 37 25.1597C37.3533 25.1867 37.6833 25.3461 37.924 25.6058C38.1648 25.8656 38.2986 26.2066 38.2986 26.5606C38.2986 26.9147 38.1648 27.2557 37.924 27.5154C37.6833 27.7752 37.3533 27.9345 37 27.9616C34.6013 27.9616 32.3008 28.9138 30.6046 30.6089C28.9084 32.3039 27.9556 34.6029 27.9556 37C27.9556 39.3971 28.9084 41.6961 30.6046 43.3911C32.3008 45.0862 34.6013 46.0384 37 46.0384C42.2458 46.0384 45.7402 42.1108 45.9951 37C45.9869 36.8018 46.0196 36.604 46.0912 36.4189C46.1628 36.2338 46.2717 36.0654 46.4112 35.9243C46.5507 35.7831 46.7177 35.6721 46.902 35.5982C47.0862 35.5243 47.2837 35.489 47.4822 35.4947C47.6807 35.5003 47.8758 35.5467 48.0556 35.631C48.2353 35.7153 48.3958 35.8356 48.527 35.9845C48.6582 36.1334 48.7574 36.3077 48.8183 36.4965C48.8792 36.6854 48.9006 36.8847 48.8811 37.0822L48.8729 37.0164Z" fill="#013475"/>
</svg>
